SplineFontDB: 3.2
FontName: Samaano-Wide-Bold
FullName: Samaano Wide Bold
FamilyName: Samaano
Weight: Wide-Bold
Copyright: Copyright 2024 The Samaano Project Authors  (github.com/mitradranirban/samaano-fonts)
UComments: "2024-8-27: Created with FontForge (http://fontforge.org)"
Version: 0.700
ItalicAngle: 0
UnderlinePosition: -204
UnderlineWidth: 102
Ascent: 1638
Descent: 410
InvalidEm: 0
UFOAscent: 1638
UFODescent: -410
LayerCount: 2
Layer: 0 0 "Back" 1
Layer: 1 0 "public.default" 0 "glyphs"
StyleMap: 0x0020
FSType: 0
OS2Version: 0
OS2_WeightWidthSlopeOnly: 0
OS2_UseTypoMetrics: 0
CreationTime: 1726829869
ModificationTime: 1727283041
PfmFamily: 16
TTFWeight: 700
TTFWidth: 9
LineGap: 0
VLineGap: 0
Panose: 2 7 8 9 0 0 0 0 0 0
OS2TypoAscent: 2457
OS2TypoAOffset: 0
OS2TypoDescent: -615
OS2TypoDOffset: 0
OS2TypoLinegap: 0
OS2WinAscent: 2476
OS2WinAOffset: 0
OS2WinDescent: 958
OS2WinDOffset: 0
HheadAscent: 2457
HheadAOffset: 0
HheadDescent: -615
HheadDOffset: 0
OS2CapHeight: 1548
OS2XHeight: 1024
OS2FamilyClass: 1031
OS2Vendor: 'anir'
Lookup: 4 0 0 "nuktNuktaFormsinDevanagarilookup0" { "nuktNuktaFormsinDevanagarilookup0 subtable"  } ['nukt' ('deva' <'dflt' > ) ]
Lookup: 4 0 0 "akhnAkhandinDevanagarilookup0" { "akhnAkhandinDevanagarilookup0 subtable"  } ['akhn' ('deva' <'dflt' > ) ]
Lookup: 4 0 0 "rphfRephForminDevanagarilookup0" { "rphfRephForminDevanagarilookup0 subtable"  } ['rphf' ('deva' <'dflt' > ) ]
Lookup: 4 0 0 "blwfBelowBaseFormsinDevanagarilookup0" { "blwfBelowBaseFormsinDevanagarilookup0 subtable"  } ['blwf' ('deva' <'dflt' > ) ]
Lookup: 4 0 0 "halfHalfFormsinDevanagarilookup0" { "halfHalfFormsinDevanagarilookup0 subtable"  } ['half' ('deva' <'dflt' > ) ]
Lookup: 4 0 0 "halnHalantFormsinDevanagarilookup0" { "halnHalantFormsinDevanagarilookup0 subtable"  } ['haln' ('deva' <'dflt' > ) ]
Lookup: 4 0 0 "dligDiscretionaryLigatureslookup0" { "dligDiscretionaryLigatureslookup0 subtable"  } ['dlig' ('latn' <'dflt' > 'DFLT' <'dflt' > ) ]
MarkAttachClasses: 1

StartChar: .notdef
Encoding: 0 0 0
GlifName: _notdef
Width: 2048
VWidth: 0
Flags: HW
LayerCount: 2
Fore
SplineSet
463 -16 m 257
 1461 -16 l 257
 1461 1624 l 257
 463 1624 l 257
 463 -16 l 257
537 64 m 257
 537 1546 l 257
 930 827 l 257
 537 64 l 257
629 64 m 257
 968 750 l 257
 1309 64 l 257
 629 64 l 257
657 1558 m 257
 1288 1558 l 257
 970 909 l 257
 657 1558 l 257
1008 832 m 257
 1384 1559 l 257
 1384 64 l 257
 1008 832 l 257
EndSplineSet
EndChar

StartChar: A
Encoding: 65 65 1
GlifName: A_
Width: 2048
VWidth: 0
Flags: HW
VStem: 1725 113
LayerCount: 2
Fore
SplineSet
124 1 m 257
 321 0 l 257
 320 1548 l 257
 121 1548 l 257
 124 1 l 257
178 1337 m 257
 1854 1332 l 257
 1850 1548 l 257
 182 1548 l 257
 178 1337 l 257
200 1025 m 257
 198 840 l 257
 1838 849 l 257
 1838 1025 l 257
 200 1025 l 257
1727 0 m 257
 1927 0 l 257
 1925 1548 l 257
 1725 1548 l 257
 1727 0 l 257
EndSplineSet
Guideline: "WIN-ASCENT" "" 0 2457 0 0 0
Guideline: "X_HEIGHT" "" 0 1024 0 0 0
Guideline: "CAPS_HEIFGHT" "" 0 1548 0 0 0
PickledDataWithLists: "(dp0
Vcom.fontlab.hintData
p1
(dp2
Vvhints
p3
(lp4
(dp5
Vposition
p6
I1725
sVwidth
p7
I113
sass."
EndChar

StartChar: AE
Encoding: 198 198 2
GlifName: A_E_
Width: 2048
VWidth: 0
Flags: HW
LayerCount: 2
Fore
SplineSet
1158 185 m 257
 1158 0 l 257
 2020 0 l 257
 2020 185 l 257
 1158 185 l 257
125 0 m 257
 324 0 l 257
 324 1548 l 257
 125 1548 l 257
 125 0 l 257
186 1332 m 257
 1998 1332 l 257
 1998 1548 l 257
 186 1548 l 257
 186 1332 l 257
204 1025 m 257
 204 849 l 257
 1946 849 l 257
 1946 1025 l 257
 204 1025 l 257
1063 0 m 257
 1263 0 l 257
 1263 1548 l 257
 1063 1548 l 257
 1063 0 l 257
EndSplineSet
EndChar

StartChar: B
Encoding: 66 66 12
GlifName: B_
Width: 2048
VWidth: 0
Flags: HW
LayerCount: 2
Fore
SplineSet
120.5 2 m 257
 304.5 1 l 257
 298.5 1533 l 257
 90.5 1534 l 257
 120.5 2 l 257
1436.5 1331 m 257
 1954.5 989 l 257
 1951.5 1215 l 257
 1438.5 1536 l 257
 1436.5 1331 l 257
1439.5 820 m 257
 1957.5 991 l 257
 1952.5 1215 l 257
 1437.5 1020 l 257
 1439.5 820 l 257
1379.5 201 m 257
 1379.5 1 l 257
 1917.5 364 l 257
 1933.5 588 l 257
 1379.5 201 l 257
1443.5 567 m 257
 1917.5 364 l 257
 1933.5 586 l 257
 1446.5 766 l 257
 1443.5 567 l 257
251.5 1020 m 257
 252.5 820 l 257
 1439.5 820 l 257
 1437.5 1021 l 257
 251.5 1020 l 257
250.5 766 m 257
 249.5 567 l 257
 1445.5 567 l 257
 1446.5 766 l 257
 250.5 766 l 257
188.5 200 m 257
 188.5 1 l 257
 1379.5 1 l 257
 1379.5 200 l 257
 188.5 200 l 257
250.5 1535 m 257
 249.5 1331 l 257
 1436.5 1331 l 257
 1437.5 1535 l 257
 250.5 1535 l 257
EndSplineSet
EndChar

StartChar: C
Encoding: 67 67 13
GlifName: C_
Width: 2048
VWidth: 0
Flags: HW
LayerCount: 2
Fore
SplineSet
71 1533 m 257
 75 3 l 257
 271 3 l 257
 271 1533 l 257
 71 1533 l 257
170 1541 m 257
 170 1338 l 257
 1977 1338 l 257
 1977 1541 l 257
 170 1541 l 257
156 199 m 257
 156 -3 l 257
 1975 -3 l 257
 1975 199 l 257
 156 199 l 257
EndSplineSet
EndChar

StartChar: D
Encoding: 68 68 19
GlifName: D_
Width: 2048
VWidth: 0
Flags: HW
LayerCount: 2
Fore
SplineSet
118.5 1547 m 257
 153.5 -1 l 257
 353.5 0 l 257
 320.5 1548 l 257
 118.5 1547 l 257
1444.5 1550 m 257
 1445.5 1350 l 257
 1929.5 767 l 257
 1927.5 1019 l 257
 1444.5 1550 l 257
1452.5 201 m 257
 1453.5 1 l 257
 1926.5 769 l 257
 1924.5 1025 l 257
 1452.5 201 l 257
282.5 1548 m 257
 282.5 1349 l 257
 1445.5 1349 l 257
 1444.5 1549 l 257
 282.5 1548 l 257
290.5 199 m 257
 290.5 0 l 257
 1453.5 0 l 257
 1452.5 200 l 257
 290.5 199 l 257
EndSplineSet
EndChar

StartChar: Dcroat
Encoding: 272 272 21
GlifName: D_croat
Width: 2048
VWidth: 0
Flags: HW
LayerCount: 2
Fore
SplineSet
0 935 m 257
 0 730 l 257
 600 730 l 257
 600 935 l 257
 0 935 l 257
107 1548 m 257
 107 0 l 257
 309 0 l 257
 309 1548 l 257
 107 1548 l 257
1457 1550 m 257
 1457 1350 l 257
 1940 767 l 257
 1940 1019 l 257
 1457 1550 l 257
1465 201 m 257
 1465 1 l 257
 1937 769 l 257
 1937 1025 l 257
 1465 201 l 257
271 1549 m 257
 271 1349 l 257
 1457 1349 l 257
 1457 1549 l 257
 271 1549 l 257
279 200 m 257
 279 0 l 257
 1465 0 l 257
 1465 200 l 257
 279 200 l 257
EndSplineSet
EndChar

StartChar: E
Encoding: 69 69 22
GlifName: E_
Width: 2048
VWidth: 0
Flags: HW
VStem: 182 149 200 115
LayerCount: 2
Fore
SplineSet
115.5 1537 m 257
 124.5 3 l 257
 331.5 3 l 257
 315.5 1535 l 257
 115.5 1537 l 257
193.5 1536 m 257
 200.5 1338 l 257
 1914.5 1333 l 257
 1912.5 1536 l 257
 193.5 1536 l 257
182.5 203 m 257
 183.5 5 l 257
 1932.5 1 l 257
 1928.5 203 l 257
 182.5 203 l 257
182.5 888 m 257
 182.5 688 l 257
 1681.5 688 l 257
 1681.5 888 l 257
 182.5 888 l 257
EndSplineSet
PickledDataWithLists: "(dp0
Vcom.fontlab.hintData
p1
(dp2
Vvhints
p3
(lp4
(dp5
Vposition
p6
I182
sVwidth
p7
I149
sa(dp8
g6
I200
sg7
I115
sass."
EndChar

StartChar: Eth
Encoding: 208 208 32
GlifName: E_th
Width: 2048
VWidth: 0
Flags: HW
LayerCount: 2
Fore
SplineSet
0 935 m 257
 0 730 l 257
 476 730 l 257
 476 935 l 257
 0 935 l 257
107 1548 m 257
 107 0 l 257
 309 0 l 257
 309 1548 l 257
 107 1548 l 257
1457 1550 m 257
 1457 1350 l 257
 1940 767 l 257
 1940 1019 l 257
 1457 1550 l 257
1465 201 m 257
 1465 1 l 257
 1937 769 l 257
 1937 1025 l 257
 1465 201 l 257
271 1549 m 257
 271 1349 l 257
 1457 1349 l 257
 1457 1549 l 257
 271 1549 l 257
279 200 m 257
 279 0 l 257
 1465 0 l 257
 1465 200 l 257
 279 200 l 257
EndSplineSet
EndChar

StartChar: Euro
Encoding: 8364 8364 33
GlifName: E_uro
Width: 2048
VWidth: 0
Flags: HW
VStem: 894 190
LayerCount: 2
Fore
SplineSet
626 520 m 257
 626 372 l 257
 1422 372 l 257
 1422 520 l 257
 626 520 l 257
638 935 m 257
 638 788 l 257
 1418 788 l 257
 1418 935 l 257
 638 935 l 257
893.5 1026 m 257
 893.5 179 l 257
 1083.5 179 l 257
 1083.5 1026 l 257
 893.5 1026 l 257
1212.5 1633 m 257
 893.5 1028 l 257
 1083.5 1026 l 257
 1332 1601 l 257
 1212.5 1633 l 257
893.5 179 m 257
 1237.5 -408 l 257
 1390 -408 l 257
 1084.5 179 l 257
 893.5 179 l 257
EndSplineSet
PickledDataWithLists: "(dp0
Vcom.fontlab.hintData
p1
(dp2
Vvhints
p3
(lp4
(dp5
Vposition
p6
I894
sVwidth
p7
I190
sass."
EndChar

StartChar: F
Encoding: 70 70 34
GlifName: F_
Width: 2048
VWidth: 0
Flags: HW
LayerCount: 2
Fore
SplineSet
153 1548 m 257
 162 3 l 257
 368 3 l 257
 353 1547 l 257
 153 1548 l 257
255 1548 m 257
 255 1351 l 257
 1895 1347 l 257
 1889 1548 l 257
 255 1548 l 257
243 880 m 257
 244 683 l 257
 1801 672 l 257
 1792 875 l 257
 243 880 l 257
EndSplineSet
EndChar

StartChar: G
Encoding: 71 71 35
GlifName: G_
Width: 2048
VWidth: 0
Flags: HW
LayerCount: 2
Fore
SplineSet
127 1547 m 257
 127 0 l 257
 329 0 l 257
 329 1547 l 257
 127 1547 l 257
185 1547 m 257
 185 1347 l 257
 1885 1347 l 257
 1885 1547 l 257
 185 1547 l 257
158 202 m 257
 158 0 l 257
 1921 0 l 257
 1921 202 l 257
 158 202 l 257
1722 561 m 257
 1722 18 l 257
 1921 18 l 257
 1921 561 l 257
 1722 561 l 257
EndSplineSet
EndChar

StartChar: H
Encoding: 72 72 39
GlifName: H_
Width: 2048
VWidth: 0
Flags: HW
LayerCount: 2
Fore
SplineSet
126 1540 m 257
 126 1 l 257
 326 1 l 257
 326 1540 l 257
 126 1540 l 257
1712 1540 m 257
 1712 1 l 257
 1922 1 l 257
 1922 1540 l 257
 1712 1540 l 257
246 1020 m 257
 246 818 l 257
 1792 818 l 257
 1792 1020 l 257
 246 1020 l 257
EndSplineSet
EndChar

StartChar: Hbar
Encoding: 294 294 40
GlifName: H_bar
Width: 2048
VWidth: 0
Flags: HW
LayerCount: 2
Fore
SplineSet
89 1540 m 257
 89 1 l 257
 289 1 l 257
 289 1540 l 257
 89 1540 l 257
1699 1540 m 257
 1699 1 l 257
 1909 1 l 257
 1909 1540 l 257
 1699 1540 l 257
209 1020 m 257
 209 818 l 257
 1779 818 l 257
 1779 1020 l 257
 209 1020 l 257
28 1434 m 257
 28 1226 l 257
 1977 1226 l 257
 1977 1434 l 257
 28 1434 l 257
EndSplineSet
EndChar

StartChar: I
Encoding: 73 73 42
GlifName: I_
Width: 2048
VWidth: 0
Flags: HW
LayerCount: 2
Fore
SplineSet
144 1537 m 257
 144 1335 l 257
 1889 1335 l 257
 1889 1537 l 257
 144 1537 l 257
975 1468 m 257
 975 84 l 257
 1175 84 l 257
 1175 1468 l 257
 975 1468 l 257
124 204 m 257
 124 6 l 257
 1924 6 l 257
 1924 204 l 257
 124 204 l 257
EndSplineSet
EndChar

StartChar: J
Encoding: 74 74 52
GlifName: J_
Width: 2048
VWidth: 0
Flags: HW
LayerCount: 2
Fore
SplineSet
1711.5 1527 m 257
 1711.5 1 l 257
 1911.5 1 l 257
 1911.5 1527 l 257
 1711.5 1527 l 257
137.5 208 m 257
 137.5 0 l 257
 1752.5 0 l 257
 1752.5 208 l 257
 137.5 208 l 257
136.5 503 m 257
 136.5 54 l 257
 334.5 52 l 257
 334.5 503 l 257
 136.5 503 l 257
EndSplineSet
EndChar

StartChar: K
Encoding: 75 75 54
GlifName: K_
Width: 2048
VWidth: 0
Flags: HW
LayerCount: 2
Fore
SplineSet
112 1535 m 257
 112 5 l 257
 313 5 l 257
 313 1535 l 257
 112 1535 l 257
157 999 m 257
 276 835 l 257
 1883 1529 l 257
 1616 1536 l 257
 157 999 l 257
287 798 m 257
 150 643 l 257
 1655 -1 l 257
 1936 0 l 257
 287 798 l 257
EndSplineSet
EndChar

StartChar: L
Encoding: 76 76 55
GlifName: L_
Width: 2048
VWidth: 0
Flags: HW
LayerCount: 2
Fore
SplineSet
129 1542 m 257
 129 3 l 257
 327 3 l 257
 327 1542 l 257
 129 1542 l 257
238 202 m 257
 243 3 l 257
 1919 3 l 257
 1914 202 l 257
 238 202 l 257
EndSplineSet
EndChar

StartChar: Lcaron
Encoding: 317 317 57
GlifName: L_caron
Width: 2048
VWidth: 0
Flags: HW
LayerCount: 2
Fore
SplineSet
53 1542 m 257
 53 3 l 257
 251 3 l 257
 251 1542 l 257
 53 1542 l 257
162 202 m 257
 162 3 l 257
 1912 3 l 257
 1912 202 l 257
 162 202 l 257
447 1496 m 257
 447 1264 l 257
 577 1264 l 257
 577 1496 l 257
 447 1496 l 257
EndSplineSet
EndChar

StartChar: Lslash
Encoding: 321 321 59
GlifName: L_slash
Width: 2048
VWidth: 0
Flags: HW
LayerCount: 2
Fore
SplineSet
171 1542 m 257
 171 3 l 257
 369 3 l 257
 369 1542 l 257
 171 1542 l 257
280 202 m 257
 280 3 l 257
 2030 3 l 257
 2030 202 l 257
 280 202 l 257
16 902 m 257
 96 730 l 257
 530 932 l 257
 450 1104 l 257
 16 902 l 257
EndSplineSet
EndChar

StartChar: M
Encoding: 77 77 60
GlifName: M_
Width: 2048
VWidth: 0
Flags: HW
LayerCount: 2
Fore
SplineSet
137.5 1546 m 257
 137.5 2 l 257
 340.5 2 l 257
 340.5 1546 l 257
 137.5 1546 l 257
1708.5 1541 m 257
 1708.5 -3 l 257
 1910.5 -3 l 257
 1910.5 1541 l 257
 1708.5 1541 l 257
174.5 1429 m 257
 889.5 1026 l 257
 1077.5 1031 l 257
 316.5 1546 l 257
 174.5 1429 l 257
1735.5 1541 m 257
 888.5 1027 l 257
 1075.5 1025 l 257
 1901.5 1488 l 257
 1735.5 1541 l 257
EndSplineSet
EndChar

StartChar: N
Encoding: 78 78 61
GlifName: N_
Width: 2048
VWidth: 0
Flags: HW
LayerCount: 2
Fore
SplineSet
133.5 1549 m 257
 139.5 2 l 257
 343.5 2 l 257
 338.5 1548 l 257
 133.5 1549 l 257
1710.5 1548 m 257
 1710.5 0 l 257
 1913.5 1 l 257
 1912.5 1548 l 257
 1710.5 1548 l 257
134.5 1550 m 257
 1711.5 -1 l 257
 1914.5 -1 l 257
 339.5 1548 l 257
 134.5 1550 l 257
EndSplineSet
EndChar

StartChar: O
Encoding: 79 79 65
GlifName: O_
Width: 2048
VWidth: 0
Flags: HW
LayerCount: 2
Fore
SplineSet
149 1540 m 257
 149 0 l 257
 350 0 l 257
 350 1540 l 257
 149 1540 l 257
1696 1537 m 257
 1696 0 l 257
 1899 0 l 257
 1899 1537 l 257
 1696 1537 l 257
213 1538 m 257
 213 1337 l 257
 1806 1337 l 257
 1806 1538 l 257
 213 1538 l 257
189 204 m 257
 189 0 l 257
 1812 0 l 257
 1812 204 l 257
 189 204 l 257
EndSplineSet
EndChar

StartChar: OE
Encoding: 338 338 66
GlifName: O_E_
Width: 2048
VWidth: 0
Flags: HW
LayerCount: 2
Fore
SplineSet
111 1548 m 257
 110 0 l 257
 311 0 l 257
 312 1548 l 257
 111 1548 l 257
1015 1548 m 257
 1015 0 l 257
 1215 0 l 257
 1216 1548 l 257
 1015 1548 l 257
148 1548 m 257
 148 1345 l 257
 1904 1349 l 257
 1904 1548 l 257
 148 1548 l 257
150 200 m 257
 150 0 l 257
 1912 0 l 257
 1912 200 l 257
 150 200 l 257
1118 859 m 257
 1118 659 l 257
 1874 659 l 257
 1874 859 l 257
 1118 859 l 257
EndSplineSet
EndChar

StartChar: Oslash
Encoding: 216 216 74
GlifName: O_slash
Width: 2048
VWidth: 0
Flags: HW
LayerCount: 2
Fore
SplineSet
1812 1667 m 257
 35 -45 l 257
 223 -118 l 257
 2000 1594 l 257
 1812 1667 l 257
110 1540 m 257
 110 0 l 257
 311 0 l 257
 311 1540 l 257
 110 1540 l 257
1731 1537 m 257
 1731 0 l 257
 1934 0 l 257
 1934 1537 l 257
 1731 1537 l 257
174 1538 m 257
 174 1337 l 257
 1841 1337 l 257
 1841 1538 l 257
 174 1538 l 257
150 204 m 257
 150 0 l 257
 1847 0 l 257
 1847 204 l 257
 150 204 l 257
EndSplineSet
EndChar

StartChar: P
Encoding: 80 80 76
GlifName: P_
Width: 2048
VWidth: 0
Flags: HW
LayerCount: 2
Fore
SplineSet
171.5 1545 m 257
 171.5 9 l 257
 361.5 9 l 257
 361.5 1545 l 257
 171.5 1545 l 257
250.5 1545 m 257
 249.5 1346 l 257
 1856.5 1346 l 257
 1856.5 1545 l 257
 250.5 1545 l 257
1676.5 1545 m 257
 1676.5 881 l 257
 1876.5 881 l 257
 1876.5 1545 l 257
 1676.5 1545 l 257
234.5 1068 m 257
 234.5 868 l 257
 1871.5 868 l 257
 1871.5 1068 l 257
 234.5 1068 l 257
EndSplineSet
EndChar

StartChar: Q
Encoding: 81 81 77
GlifName: Q_
Width: 2048
VWidth: 0
Flags: HW
LayerCount: 2
Fore
SplineSet
149 1540 m 257
 149 5 l 257
 348 5 l 257
 348 1540 l 257
 149 1540 l 257
1698 1537 m 257
 1698 -2 l 257
 1899 -2 l 257
 1899 1537 l 257
 1698 1537 l 257
213 1538 m 257
 213 1337 l 257
 1806 1337 l 257
 1806 1538 l 257
 213 1538 l 257
189 205 m 257
 189 3 l 257
 1812 3 l 257
 1812 205 l 257
 189 205 l 257
1247 21 m 257
 1433 -285 l 257
 1624 -169 l 257
 1438 137 l 257
 1247 21 l 257
EndSplineSet
EndChar

StartChar: R
Encoding: 82 82 78
GlifName: R_
Width: 2048
VWidth: 0
Flags: HW
LayerCount: 2
Fore
SplineSet
102 1535 m 257
 102 -1 l 257
 303 -1 l 257
 303 1535 l 257
 102 1535 l 257
181 1536 m 257
 181 1335 l 257
 1837 1335 l 257
 1837 1536 l 257
 181 1536 l 257
1664 1536 m 257
 1664 872 l 257
 1864 872 l 257
 1864 1536 l 257
 1664 1536 l 257
165 1079 m 257
 165 868 l 257
 1852 868 l 257
 1852 1079 l 257
 165 1079 l 257
305 875 m 257
 1706 1 l 257
 1946 -4 l 257
 504 892 l 257
 305 875 l 257
EndSplineSet
EndChar

StartChar: S
Encoding: 83 83 81
GlifName: S_
Width: 2048
VWidth: 0
Flags: HW
LayerCount: 2
Fore
SplineSet
138 1539 m 257
 138 1336 l 257
 1736 1336 l 257
 1736 1539 l 257
 138 1539 l 257
138 1542 m 257
 138 1028 l 257
 340 1028 l 257
 340 1542 l 257
 138 1542 l 257
166 199 m 257
 166 0 l 257
 1874 0 l 257
 1874 199 l 257
 166 199 l 257
1709 1 m 257
 1910 1 l 257
 1910 355 l 257
 1709 355 l 257
 1709 1 l 257
138 1028 m 257
 1709 355 l 257
 1910 355 l 257
 340 1028 l 257
 138 1028 l 257
EndSplineSet
EndChar

StartChar: T
Encoding: 84 84 86
GlifName: T_
Width: 2048
VWidth: 0
Flags: HW
LayerCount: 2
Fore
SplineSet
125 1549 m 257
 125 1348 l 257
 1923 1348 l 257
 1923 1549 l 257
 125 1549 l 257
924 1436 m 257
 924 6 l 257
 1124 6 l 257
 1124 1436 l 257
 924 1436 l 257
EndSplineSet
EndChar

StartChar: Thorn
Encoding: 222 222 88
GlifName: T_horn
Width: 2048
VWidth: 0
Flags: HW
LayerCount: 2
Fore
SplineSet
112 1545 m 257
 112 9 l 257
 302 9 l 257
 302 1542 l 257
 112 1545 l 257
191 1234 m 257
 191 1035 l 257
 1871 1035 l 257
 1871 1234 l 257
 191 1234 l 257
1691 1233 m 257
 1691 569 l 257
 1891 569 l 257
 1891 1233 l 257
 1691 1233 l 257
179 684 m 257
 179 484 l 257
 1890 484 l 257
 1890 684 l 257
 179 684 l 257
EndSplineSet
EndChar

StartChar: U
Encoding: 85 85 89
GlifName: U_
Width: 2048
VWidth: 0
Flags: HW
LayerCount: 2
Fore
SplineSet
156.5 1536 m 257
 156.5 0 l 257
 356.5 0 l 257
 356.5 1536 l 257
 156.5 1536 l 257
1691.5 1535 m 257
 1691.5 0 l 257
 1891.5 0 l 257
 1890.5 1535 l 257
 1691.5 1535 l 257
203.5 200 m 257
 204.5 0 l 257
 1847.5 0 l 257
 1847.5 200 l 257
 203.5 200 l 257
EndSplineSet
EndChar

StartChar: V
Encoding: 86 86 100
GlifName: V_
Width: 2048
VWidth: 0
Flags: HW
LayerCount: 2
Fore
SplineSet
118.5 1548 m 257
 890.5 -5 l 257
 1111.5 0 l 257
 319.5 1548 l 257
 118.5 1548 l 257
1728.5 1548 m 257
 1015.5 1 l 257
 1238.5 0 l 257
 1929.5 1548 l 257
 1728.5 1548 l 257
EndSplineSet
EndChar

StartChar: W
Encoding: 87 87 101
GlifName: W_
Width: 2048
VWidth: 0
Flags: HW
LayerCount: 2
Fore
SplineSet
103.5 1546 m 257
 104.5 1 l 257
 305.5 0 l 257
 304.5 1546 l 257
 103.5 1546 l 257
1744.5 1545 m 257
 1744.5 12 l 257
 1945.5 12 l 257
 1945.5 1545 l 257
 1744.5 1545 l 257
926.5 1028 m 257
 927.5 1 l 257
 1126.5 1 l 257
 1127.5 1028 l 257
 926.5 1028 l 257
102.5 201 m 257
 104.5 1 l 257
 1945.5 0 l 257
 1945.5 201 l 257
 102.5 201 l 257
EndSplineSet
EndChar

StartChar: X
Encoding: 88 88 106
GlifName: X_
Width: 2048
VWidth: 0
Flags: HW
LayerCount: 2
Fore
SplineSet
82 1545 m 257
 1766 0 l 257
 1966 -2 l 257
 281 1548 l 257
 82 1545 l 257
85 3 m 257
 286 6 l 257
 1958 1544 l 257
 1759 1546 l 257
 85 3 l 257
EndSplineSet
EndChar

StartChar: Y
Encoding: 89 89 107
GlifName: Y_
Width: 2048
VWidth: 0
Flags: HW
LayerCount: 2
Fore
SplineSet
913.5 896 m 257
 918.5 -2 l 257
 1120.5 -1 l 257
 1115.5 897 l 257
 913.5 896 l 257
110.5 1547 m 257
 110.5 859 l 257
 310.5 859 l 257
 310.5 1547 l 257
 110.5 1547 l 257
1738.5 1548 m 257
 1736.5 859 l 257
 1937.5 859 l 257
 1937.5 1547 l 257
 1738.5 1548 l 257
178.5 1019 m 257
 178.5 859 l 257
 1847.5 859 l 257
 1847.5 1019 l 257
 178.5 1019 l 257
EndSplineSet
EndChar

StartChar: Z
Encoding: 90 90 112
GlifName: Z_
Width: 2048
VWidth: 0
Flags: HW
LayerCount: 2
Fore
SplineSet
107 1546 m 257
 108 1336 l 257
 1936 1336 l 257
 1941 1548 l 257
 107 1546 l 257
108 212 m 257
 108 0 l 257
 1936 0 l 257
 1936 212 l 257
 108 212 l 257
1680 1336 m 257
 108 212 l 257
 315 211 l 257
 1925 1335 l 257
 1680 1336 l 257
EndSplineSet
EndChar

StartChar: a
Encoding: 97 97 116
GlifName: a
Width: 2048
VWidth: 0
Flags: HW
LayerCount: 2
Fore
SplineSet
178 1025 m 257
 178 824 l 257
 1782 824 l 257
 1784 1024 l 257
 178 1025 l 257
1671 1025 m 257
 1668 -1 l 257
 1870 1 l 257
 1865 1025 l 257
 1671 1025 l 257
182 602 m 257
 184 401 l 257
 1806 400 l 257
 1806 599 l 257
 182 602 l 257
182 575 m 257
 182 -2 l 257
 383 -2 l 257
 383 575 l 257
 182 575 l 257
180 200 m 257
 182 -2 l 257
 1870 1 l 257
 1870 201 l 257
 180 200 l 257
EndSplineSet
EndChar

StartChar: acute
Encoding: 180 180 120
GlifName: acute
Width: 2048
VWidth: 0
Flags: HW
LayerCount: 2
Fore
SplineSet
522 1556 m 257
 392 1302 l 257
 480 1256 l 257
 611 1511 l 257
 522 1556 l 257
EndSplineSet
PickledDataWithLists: "(dp0
."
EndChar

StartChar: acutecomb
Encoding: 769 769 121
GlifName: acutecomb
Width: 2048
VWidth: 0
Flags: HW
LayerCount: 2
Fore
SplineSet
1044.5 980 m 257
 914.5 726 l 257
 1002.5 680 l 257
 1133.5 935 l 257
 1044.5 980 l 257
EndSplineSet
PickledDataWithLists: "(dp0
."
EndChar

StartChar: ae
Encoding: 230 230 123
GlifName: ae
Width: 2048
VWidth: 0
Flags: HW
LayerCount: 2
Fore
SplineSet
48 1028 m 257
 46 828 l 257
 1889 824 l 257
 1891 1024 l 257
 48 1028 l 257
961 1025 m 257
 961 1 l 257
 1155 1 l 257
 1155 1025 l 257
 961 1025 l 257
71 599 m 257
 71 400 l 257
 1892 400 l 257
 1892 599 l 257
 71 599 l 257
71 575 m 257
 71 -2 l 257
 272 -2 l 257
 272 575 l 257
 71 575 l 257
69 201 m 257
 69 1 l 257
 2013 1 l 257
 2013 201 l 257
 69 201 l 257
1797 1022 m 257
 1797 400 l 257
 1992 400 l 257
 1992 1022 l 257
 1797 1022 l 257
EndSplineSet
EndChar

StartChar: ampersand
Encoding: 38 38 126
GlifName: ampersand
Width: 2048
VWidth: 0
Flags: HW
LayerCount: 2
Fore
SplineSet
772.5 1536 m 257
 1219.5 12 l 257
 1366.5 56 l 257
 934.5 1534 l 257
 772.5 1536 l 257
1315.5 1401 m 257
 1315.5 1536 l 257
 850.5 1536 l 257
 850.5 1401 l 257
 1315.5 1401 l 257
1155.5 1446 m 257
 1155.5 917 l 257
 1315.5 917 l 257
 1315.5 1446 l 257
 1155.5 1446 l 257
619.5 1045 m 257
 619.5 843 l 257
 1315.5 843 l 257
 1315.5 1045 l 257
 619.5 1045 l 257
619.5 1045 m 257
 619.5 24 l 257
 829.5 24 l 257
 829.5 1045 l 257
 619.5 1045 l 257
619.5 190 m 257
 619.5 6 l 257
 1428.5 6 l 257
 1428.5 190 l 257
 619.5 190 l 257
EndSplineSet
PickledDataWithLists: "(dp0
."
EndChar

StartChar: asciicircum
Encoding: 94 94 129
GlifName: asciicircum
Width: 2048
VWidth: 0
Flags: HW
LayerCount: 2
Fore
SplineSet
1099.5 1023 m 257
 950.5 1025 l 257
 685.5 407 l 257
 835.5 345 l 257
 1099.5 1023 l 257
956.5 904 m 257
 1212.5 343 l 257
 1362.5 400 l 257
 1099.5 1023 l 257
 956.5 904 l 257
EndSplineSet
PickledDataWithLists: "(dp0
."
EndChar

StartChar: asciitilde
Encoding: 126 126 130
GlifName: asciitilde
Width: 2048
VWidth: 0
Flags: HW
LayerCount: 2
Fore
SplineSet
877.5 815 m 257
 877.5 716 l 257
 1227.5 655 l 257
 1227.5 754 l 257
 877.5 815 l 257
639.5 757 m 257
 654.5 659 l 257
 877.5 716 l 257
 877.5 815 l 257
 639.5 757 l 257
1227.5 754 m 257
 1227.5 655 l 257
 1408.5 796 l 257
 1384.5 892 l 257
 1227.5 754 l 257
EndSplineSet
EndChar

StartChar: asterisk
Encoding: 42 42 131
GlifName: asterisk
Width: 2048
VWidth: 0
Flags: HW
LayerCount: 2
Fore
SplineSet
934 1297 m 257
 934 300 l 257
 1164 300 l 257
 1164 1297 l 257
 934 1297 l 257
577 1099 m 257
 1305 360 l 257
 1464 504 l 257
 732 1241 l 257
 577 1099 l 257
1329 1232 m 257
 606 525 l 257
 748 372 l 257
 1471 1079 l 257
 1329 1232 l 257
EndSplineSet
PickledDataWithLists: "(dp0
."
EndChar

StartChar: at
Encoding: 64 64 132
GlifName: at
Width: 2048
VWidth: 0
Flags: HW
LayerCount: 2
Fore
SplineSet
613 1024 m 257
 614 879 l 257
 1428 879 l 257
 1432 1024 l 257
 613 1024 l 257
1149 592 m 257
 1148 -1 l 257
 1306 0 l 257
 1302 592 l 257
 1149 592 l 257
816 602 m 257
 818 445 l 257
 1241 444 l 257
 1241 600 l 257
 816 602 l 257
813 589 m 257
 813 12 l 257
 987 12 l 257
 987 589 l 257
 813 589 l 257
811 187 m 257
 812 -2 l 257
 1305 0 l 257
 1305 188 l 257
 811 187 l 257
525 1024 m 257
 526 -223 l 257
 701 -223 l 257
 701 1024 l 257
 525 1024 l 257
523 -86 m 257
 523 -258 l 257
 1471 -258 l 257
 1471 -86 l 257
 523 -86 l 257
1374 1011 m 257
 1374 0 l 257
 1525 0 l 257
 1525 1011 l 257
 1374 1011 l 257
1246 175 m 257
 1246 1 l 257
 1455 1 l 257
 1455 175 l 257
 1246 175 l 257
EndSplineSet
EndChar

StartChar: b
Encoding: 98 98 134
GlifName: b
Width: 2048
VWidth: 0
Flags: HW
LayerCount: 2
Fore
SplineSet
143 1536 m 257
 143 1 l 257
 342 1 l 257
 342 1536 l 257
 143 1536 l 257
240 1033 m 257
 240 834 l 257
 1766 834 l 257
 1766 1033 l 257
 240 1033 l 257
1706 1033 m 257
 1706 0 l 257
 1905 0 l 257
 1905 1033 l 257
 1706 1033 l 257
268 207 m 257
 268 1 l 257
 1826 1 l 257
 1826 207 l 257
 268 207 l 257
EndSplineSet
EndChar

StartChar: backslash
Encoding: 92 92 135
GlifName: backslash
Width: 2048
VWidth: 0
Flags: HW
LayerCount: 2
Fore
SplineSet
615 1441 m 257
 1242 -13 l 257
 1433 65 l 257
 807 1519 l 257
 615 1441 l 257
EndSplineSet
PickledDataWithLists: "(dp0
."
EndChar

StartChar: bar
Encoding: 124 124 136
GlifName: bar
Width: 2048
VWidth: 0
Flags: HW
LayerCount: 2
Fore
SplineSet
922.5 1435 m 257
 922.5 -90 l 257
 1125.5 -90 l 257
 1125.5 1435 l 257
 922.5 1435 l 257
EndSplineSet
PickledDataWithLists: "(dp0
."
EndChar

StartChar: braceleft
Encoding: 123 123 137
GlifName: braceleft
Width: 2048
VWidth: 0
Flags: HW
LayerCount: 2
Fore
SplineSet
1024 1544 m 257
 1028 838 l 257
 1174 838 l 257
 1170 1544 l 257
 1024 1544 l 257
1036 424 m 257
 1036 -286 l 257
 1182 -286 l 257
 1182 424 l 257
 1036 424 l 257
735 690 m 257
 735 630 l 257
 1170 838 l 257
 1024 838 l 257
 735 690 l 257
735 690 m 257
 735 630 l 257
 1034 423 l 257
 1183 425 l 257
 735 690 l 257
1025 1603 m 257
 1025 1452 l 257
 1293 1574 l 257
 1297 1603 l 257
 1025 1603 l 257
1037 -140 m 257
 1037 -284 l 257
 1312 -287 l 257
 1313 -274 l 257
 1037 -140 l 257
EndSplineSet
EndChar

StartChar: braceright
Encoding: 125 125 138
GlifName: braceright
Width: 2048
VWidth: 0
Flags: HW
LayerCount: 2
Fore
SplineSet
1040 1544 m 257
 878 1544 l 257
 874 838 l 257
 1036 838 l 257
 1040 1544 l 257
1026 424 m 257
 866 424 l 257
 866 -286 l 257
 1026 -286 l 257
 1026 424 l 257
1313 690 m 257
 1035 838 l 257
 874 838 l 257
 1313 630 l 257
 1313 690 l 257
1313 690 m 257
 866 424 l 257
 1026 424 l 257
 1313 630 l 257
 1313 690 l 257
1041 1603 m 257
 766 1603 l 257
 770 1574 l 257
 1038 1452 l 257
 1041 1603 l 257
1011 -140 m 257
 735 -274 l 257
 736 -287 l 257
 1011 -284 l 257
 1011 -140 l 257
EndSplineSet
EndChar

StartChar: bracketleft
Encoding: 91 91 139
GlifName: bracketleft
Width: 2048
VWidth: 0
Flags: HW
LayerCount: 2
Fore
SplineSet
890 1542 m 257
 895 -242 l 257
 1017 -242 l 257
 1012 1542 l 257
 890 1542 l 257
944 1543 m 257
 944 1416 l 257
 1153 1416 l 257
 1153 1543 l 257
 944 1543 l 257
944 -91 m 257
 944 -242 l 257
 1158 -242 l 257
 1158 -91 l 257
 944 -91 l 257
EndSplineSet
PickledDataWithLists: "(dp0
."
EndChar

StartChar: bracketright
Encoding: 93 93 140
GlifName: bracketright
Width: 2048
VWidth: 0
Flags: HW
LayerCount: 2
Fore
SplineSet
1035.5 1542 m 257
 1040.5 -242 l 257
 1162.5 -242 l 257
 1157.5 1542 l 257
 1035.5 1542 l 257
885.5 1543 m 257
 885.5 1416 l 257
 1094.5 1416 l 257
 1094.5 1543 l 257
 885.5 1543 l 257
885.5 -91 m 257
 885.5 -242 l 257
 1099.5 -242 l 257
 1099.5 -91 l 257
 885.5 -91 l 257
EndSplineSet
PickledDataWithLists: "(dp0
."
EndChar

StartChar: breve
Encoding: 728 728 141
GlifName: breve
Width: 2048
VWidth: 0
Flags: HW
LayerCount: 2
Fore
SplineSet
1102 1552 m 257
 1102 1480 l 257
 1267 1552 l 257
 1267 1645 l 257
 1102 1552 l 257
778 1552 m 257
 777 1480 l 257
 1102 1480 l 257
 1102 1552 l 257
 778 1552 l 257
607 1630 m 257
 607 1552 l 257
 778 1480 l 257
 778 1550 l 257
 607 1630 l 257
EndSplineSet
EndChar

StartChar: brokenbar
Encoding: 166 166 142
GlifName: brokenbar
Width: 2048
VWidth: 0
Flags: HW
VStem: 762 110
LayerCount: 2
Fore
SplineSet
967.4 -326 m 257
 1077 -332 l 257
 1077 682 l 257
 967.4 688 l 257
 967.4 -326 l 257
970.199 790 m 257
 1080.6 790 l 257
 1080.6 1636 l 257
 970.199 1636 l 257
 970.199 790 l 257
EndSplineSet
PickledDataWithLists: "(dp0
Vcom.fontlab.hintData
p1
(dp2
Vvhints
p3
(lp4
(dp5
Vposition
p6
I762
sVwidth
p7
I110
sass."
EndChar

StartChar: bullet
Encoding: 8226 8226 143
GlifName: bullet
Width: 2048
VWidth: 0
Flags: HW
LayerCount: 2
Fore
SplineSet
881.5 1026 m 257
 881.5 765 l 257
 1166.5 765 l 257
 1166.5 1026 l 257
 881.5 1026 l 257
EndSplineSet
EndChar

StartChar: c
Encoding: 99 99 144
GlifName: c
Width: 2048
VWidth: 0
Flags: HW
LayerCount: 2
Fore
SplineSet
171 1023 m 257
 173 826 l 257
 1875 826 l 257
 1877 1027 l 257
 171 1023 l 257
173 984 m 257
 173 -1 l 257
 375 0 l 257
 375 984 l 257
 173 984 l 257
279 201 m 257
 279 4 l 257
 1871 0 l 257
 1871 201 l 257
 279 201 l 257
EndSplineSet
EndChar

StartChar: caron
Encoding: 711 711 146
GlifName: caron
Width: 2048
VWidth: 0
Flags: HW
LayerCount: 2
Fore
SplineSet
979 1158 m 257
 873 1430 l 257
 813 1405 l 257
 919 1158 l 257
 979 1158 l 257
921 1206 m 257
 979 1158 l 257
 1084 1408 l 257
 1024 1430 l 257
 921 1206 l 257
EndSplineSet
EndChar

StartChar: cedilla
Encoding: 184 184 151
GlifName: cedilla
Width: 2048
VWidth: 0
Flags: HW
HStem: -568 120 -532 84 -304 144
VStem: 1031 155 1325 152
LayerCount: 2
Fore
SplineSet
800.5 184.6 m 257
 800.5 -139.4 l 257
 956.5 -139.4 l 257
 956.5 184.6 l 257
 800.5 184.6 l 257
801.5 -283.4 m 257
 801.5 -403.4 l 257
 1247.5 -403.4 l 257
 1247.5 -283.4 l 257
 801.5 -283.4 l 257
1095.5 4.59961 m 257
 1095.5 -367.4 l 257
 1247.5 -367.4 l 257
 1247.5 4.59961 l 257
 1095.5 4.59961 l 257
801.5 4.59961 m 257
 801.5 -151.4 l 257
 1247.5 -151.4 l 257
 1247.5 4.59961 l 257
 801.5 4.59961 l 257
EndSplineSet
PickledDataWithLists: "(dp0
Vcom.fontlab.hintData
p1
(dp2
Vhhints
p3
(lp4
(dp5
Vposition
p6
I-568
sVwidth
p7
I120
sa(dp8
g6
I-532
sg7
I84
sa(dp9
g6
I-304
sg7
I144
sasVvhints
p10
(lp11
(dp12
g6
I1031
sg7
I155
sa(dp13
g6
I1325
sg7
I152
sass."
EndChar

StartChar: cent
Encoding: 162 162 152
GlifName: cent
Width: 2048
VWidth: 0
Flags: HW
LayerCount: 2
Fore
SplineSet
1203 1183 m 257
 1056 1183 l 257
 1056 -86 l 257
 1203 -86 l 257
 1203 1183 l 257
676 1027 m 257
 676 826 l 257
 1372 826 l 257
 1372 1027 l 257
 676 1027 l 257
678 984 m 257
 678 0 l 257
 880 0 l 257
 880 984 l 257
 678 984 l 257
784 201 m 257
 784 0 l 257
 1366 0 l 257
 1366 201 l 257
 784 201 l 257
EndSplineSet
EndChar

StartChar: circumflex
Encoding: 710 710 153
GlifName: circumflex
Width: 2048
VWidth: 0
Flags: HW
LayerCount: 2
Fore
SplineSet
1054.5 2158 m 257
 994.5 2158 l 257
 888.5 1911 l 257
 948.5 1886 l 257
 1054.5 2158 l 257
996.5 2110 m 257
 1099.5 1886 l 257
 1159.5 1908 l 257
 1054.5 2158 l 257
 996.5 2110 l 257
EndSplineSet
EndChar

StartChar: colon
Encoding: 58 58 154
GlifName: colon
Width: 2048
VWidth: 0
Flags: HW
LayerCount: 2
Fore
SplineSet
911.5 430 m 257
 911.5 201 l 257
 1159.5 201 l 257
 1159.5 430 l 257
 911.5 430 l 257
888.5 1294 m 257
 888.5 1047 l 257
 1153.5 1047 l 257
 1153.5 1294 l 257
 888.5 1294 l 257
EndSplineSet
PickledDataWithLists: "(dp0
."
EndChar

StartChar: comma
Encoding: 44 44 155
GlifName: comma
Width: 2048
VWidth: 0
Flags: HW
LayerCount: 2
Fore
SplineSet
909.5 237 m 257
 909.5 8 l 257
 1157.5 8 l 257
 1157.5 237 l 257
 909.5 237 l 257
1008.5 135 m 257
 890.5 -146 l 257
 1033.5 -206 l 257
 1155.5 4 l 257
 1008.5 135 l 257
EndSplineSet
PickledDataWithLists: "(dp0
."
EndChar

StartChar: copyright
Encoding: 169 169 156
GlifName: copyright
Width: 2048
VWidth: 0
Flags: HW
VStem: 1322 9 1322 3
LayerCount: 2
Fore
SplineSet
523.5 1540 m 257
 523.5 0 l 257
 724.5 0 l 257
 724.5 1540 l 257
 523.5 1540 l 257
1321.5 1537 m 257
 1321.5 0 l 257
 1524.5 0 l 257
 1524.5 1537 l 257
 1321.5 1537 l 257
633.5 1538 m 257
 633.5 1337 l 257
 1324.5 1337 l 257
 1324.5 1538 l 257
 633.5 1538 l 257
657.5 204 m 257
 657.5 0 l 257
 1330.5 0 l 257
 1330.5 204 l 257
 657.5 204 l 257
769.5 1197 m 257
 769.5 996 l 257
 1204.5 996 l 257
 1204.5 1197 l 257
 769.5 1197 l 257
770.5 1154 m 257
 770.5 340 l 257
 939.5 340 l 257
 939.5 1154 l 257
 770.5 1154 l 257
770.5 495 m 257
 770.5 294 l 257
 1210.5 294 l 257
 1210.5 495 l 257
 770.5 495 l 257
EndSplineSet
PickledDataWithLists: "(dp0
Vcom.fontlab.hintData
p1
(dp2
Vvhints
p3
(lp4
(dp5
Vposition
p6
I1322
sVwidth
p7
I9
sa(dp8
g6
I1322
sg7
I3
sass."
EndChar

StartChar: currency
Encoding: 164 164 157
GlifName: currency
Width: 2048
VWidth: 0
Flags: HW
HStem: 119 247 124 247 1084 247 1109 247
VStem: 41 265 47 265 717 265 735 265
LayerCount: 2
Fore
SplineSet
116 1204 m 257
 114 180 l 257
 318 180 l 257
 316 1202 l 257
 116 1204 l 257
1731 1204 m 257
 1731 180 l 257
 1933 180 l 257
 1933 1204 l 257
 1731 1204 l 257
239 1201 m 257
 239 1002 l 257
 1824 1002 l 257
 1825 1204 l 257
 239 1201 l 257
243 380 m 257
 243 181 l 257
 1815 181 l 257
 1815 380 l 257
 243 380 l 257
52.5 1372 m 257
 52.5 1125 l 257
 317.5 1125 l 257
 317.5 1372 l 257
 52.5 1372 l 257
1730.5 1371 m 257
 1730.5 1124 l 257
 1995.5 1124 l 257
 1995.5 1371 l 257
 1730.5 1371 l 257
50.5 270 m 257
 50.5 23 l 257
 315.5 23 l 257
 315.5 270 l 257
 50.5 270 l 257
1732.5 279 m 257
 1732.5 32 l 257
 1997.5 32 l 257
 1997.5 279 l 257
 1732.5 279 l 257
EndSplineSet
PickledDataWithLists: "(dp0
Vcom.fontlab.hintData
p1
(dp2
Vhhints
p3
(lp4
(dp5
Vposition
p6
I119
sVwidth
p7
I247
sa(dp8
g6
I124
sg7
I247
sa(dp9
g6
I1084
sg7
I247
sa(dp10
g6
I1109
sg7
I247
sasVvhints
p11
(lp12
(dp13
g6
I41
sg7
I265
sa(dp14
g6
I47
sg7
I265
sa(dp15
g6
I717
sg7
I265
sa(dp16
g6
I735
sg7
I265
sass."
EndChar

StartChar: d
Encoding: 100 100 158
GlifName: d
Width: 2048
VWidth: 0
Flags: HW
LayerCount: 2
Fore
SplineSet
1703.5 1527 m 257
 1703.5 0 l 257
 1904.5 0 l 257
 1904.5 1527 l 257
 1703.5 1527 l 257
239.5 1023 m 257
 244.5 822 l 257
 1792.5 822 l 257
 1792.5 1023 l 257
 239.5 1023 l 257
143.5 1024 m 257
 143.5 0 l 257
 345.5 0 l 257
 344.5 1022 l 257
 143.5 1024 l 257
239.5 195 m 257
 239.5 -1 l 257
 1856.5 0 l 257
 1856.5 195 l 257
 239.5 195 l 257
EndSplineSet
EndChar

StartChar: dagger
Encoding: 8224 8224 159
GlifName: dagger
Width: 2048
VWidth: 0
Flags: HW
LayerCount: 2
Fore
SplineSet
721 1251 m 257
 721 1086 l 257
 1327 1086 l 257
 1327 1251 l 257
 721 1251 l 257
945 1552 m 257
 946 0 l 257
 1090 0 l 257
 1090 1552 l 257
 945 1552 l 257
EndSplineSet
EndChar

StartChar: daggerdbl
Encoding: 8225 8225 160
GlifName: daggerdbl
Width: 2048
VWidth: 0
Flags: HW
LayerCount: 2
Fore
SplineSet
721 937 m 257
 721 772 l 257
 1327 772 l 257
 1327 937 l 257
 721 937 l 257
721 1251 m 257
 721 1086 l 257
 1327 1086 l 257
 1327 1251 l 257
 721 1251 l 257
945 1552 m 257
 946 0 l 257
 1090 0 l 257
 1090 1552 l 257
 945 1552 l 257
EndSplineSet
EndChar

StartChar: dcaron
Encoding: 271 271 161
GlifName: dcaron
Width: 2048
VWidth: 0
Flags: HW
LayerCount: 2
Fore
SplineSet
1637 1527 m 257
 1637 0 l 257
 1838 0 l 257
 1838 1527 l 257
 1637 1527 l 257
149 1023 m 257
 149 822 l 257
 1726 822 l 257
 1726 1023 l 257
 149 1023 l 257
53 1022 m 257
 53 0 l 257
 254 0 l 257
 254 1022 l 257
 53 1022 l 257
149 195 m 257
 149 0 l 257
 1790 0 l 257
 1790 195 l 257
 149 195 l 257
1884 1496 m 257
 1884 1264 l 257
 2014 1264 l 257
 2014 1496 l 257
 1884 1496 l 257
EndSplineSet
EndChar

StartChar: dcroat
Encoding: 273 273 162
GlifName: dcroat
Width: 2048
VWidth: 0
Flags: HW
LayerCount: 2
Fore
SplineSet
692 1527 m 257
 692 0 l 257
 893 0 l 257
 893 1527 l 257
 692 1527 l 257
228 1023 m 257
 228 822 l 257
 781 822 l 257
 781 1023 l 257
 228 1023 l 257
132 1022 m 257
 132 0 l 257
 333 0 l 257
 333 1022 l 257
 132 1022 l 257
228 195 m 257
 228 0 l 257
 845 0 l 257
 845 195 l 257
 228 195 l 257
555 1403 m 257
 555 1202 l 257
 999 1202 l 257
 999 1403 l 257
 555 1403 l 257
EndSplineSet
EndChar

StartChar: degree
Encoding: 176 176 163
GlifName: degree
Width: 2048
VWidth: 0
Flags: HW
HStem: 1238 309<844 1204>
VStem: 844 360<1238 1547 1238 1547>
LayerCount: 2
Fore
SplineSet
949 1456 m 257
 1097 1456 l 257
 1097 1326 l 257
 949 1326 l 257
 949 1456 l 257
844 1547 m 257
 844 1238 l 257
 1204 1238 l 257
 1204 1547 l 257
 844 1547 l 257
EndSplineSet
PickledDataWithLists: "(dp0
Vcom.fontlab.hintData
p1
(dp2
Vhhints
p3
(lp4
(dp5
Vposition
p6
I1238
sVwidth
p7
I309
sasVvhints
p8
(lp9
(dp10
g6
I844
sg7
I360
sass."
EndChar

StartChar: dieresis
Encoding: 168 168 164
GlifName: dieresis
Width: 2048
VWidth: 0
Flags: HW
HStem: 522 101
VStem: 847 112 1089 112
LayerCount: 2
Fore
SplineSet
827 1021 m 257
 827 920 l 257
 939 920 l 257
 939 1021 l 257
 827 1021 l 257
1069 1021 m 257
 1069 920 l 257
 1181 920 l 257
 1181 1021 l 257
 1069 1021 l 257
EndSplineSet
PickledDataWithLists: "(dp0
Vcom.fontlab.hintData
p1
(dp2
Vhhints
p3
(lp4
(dp5
Vposition
p6
I522
sVwidth
p7
I101
sasVvhints
p8
(lp9
(dp10
g6
I847
sg7
I112
sa(dp11
g6
I1089
sg7
I112
sass."
EndChar

StartChar: divide
Encoding: 247 247 165
GlifName: divide
Width: 2048
VWidth: 0
Flags: HW
LayerCount: 2
Fore
SplineSet
911.5 430 m 257
 911.5 201 l 257
 1159.5 201 l 257
 1159.5 430 l 257
 911.5 430 l 257
888.5 1294 m 257
 888.5 1047 l 257
 1153.5 1047 l 257
 1153.5 1294 l 257
 888.5 1294 l 257
611 808 m 257
 611 600 l 257
 1437 600 l 257
 1437 808 l 257
 611 808 l 257
EndSplineSet
EndChar

StartChar: dollar
Encoding: 36 36 166
GlifName: dollar
Width: 2048
VWidth: 0
Flags: HW
LayerCount: 2
Fore
SplineSet
638 1539 m 257
 638 1358 l 257
 1236 1358 l 257
 1236 1539 l 257
 638 1539 l 257
638 1542 m 257
 638 1028 l 257
 843 1028 l 257
 843 1542 l 257
 638 1542 l 257
666 163 m 257
 666 0 l 257
 1374 0 l 257
 1374 163 l 257
 666 163 l 257
1204 1 m 257
 1410 1 l 257
 1410 355 l 257
 1204 355 l 257
 1204 1 l 257
638 1028 m 257
 1204 355 l 257
 1410 355 l 257
 843 1028 l 257
 638 1028 l 257
897 1636 m 257
 897 -215 l 257
 1111 -215 l 257
 1111 1636 l 257
 897 1636 l 257
EndSplineSet
PickledDataWithLists: "(dp0
."
EndChar

StartChar: dotaccent
Encoding: 729 729 167
GlifName: dotaccent
Width: 2048
VWidth: 0
Flags: HW
LayerCount: 2
Fore
SplineSet
908 1027 m 257
 908 926 l 257
 1020 926 l 257
 1020 1027 l 257
 908 1027 l 257
EndSplineSet
EndChar

StartChar: dotlessi
Encoding: 305 305 168
GlifName: dotlessi
Width: 2048
VWidth: 0
Flags: HW
LayerCount: 2
Fore
SplineSet
923 1018 m 257
 923 139 l 257
 1125 139 l 257
 1125 1018 l 257
 923 1018 l 257
153 204 m 257
 153 6 l 257
 1895 6 l 257
 1895 204 l 257
 153 204 l 257
203 1018 m 257
 203 818 l 257
 1079 818 l 257
 1079 1018 l 257
 203 1018 l 257
EndSplineSet
EndChar

StartChar: e
Encoding: 101 101 169
GlifName: e
Width: 2048
VWidth: 0
Flags: HW
LayerCount: 2
Fore
SplineSet
229.5 1021 m 257
 237.5 812 l 257
 1861.5 812 l 257
 1864.5 1024 l 257
 229.5 1021 l 257
179.5 1024 m 257
 175.5 -1 l 257
 382.5 1 l 257
 381.5 1022 l 257
 179.5 1024 l 257
281.5 197 m 257
 280.5 0 l 257
 1863.5 0 l 257
 1863.5 201 l 257
 281.5 197 l 257
249.5 625 m 257
 257.5 445 l 257
 1835.5 446 l 257
 1839.5 625 l 257
 249.5 625 l 257
1667.5 994 m 257
 1663.5 444 l 257
 1872.5 445 l 257
 1862.5 993 l 257
 1667.5 994 l 257
EndSplineSet
EndChar

StartChar: eight
Encoding: 56 56 177
GlifName: eight
Width: 2048
VWidth: 0
Flags: HW
HStem: -3 216 33 180 759 97 896 90 948 38 1417 222
VStem: 62 198 106 153 774 138 780 188
LayerCount: 2
Fore
SplineSet
56 1550 m 257
 62.5 0 l 257
 70.5 0 l 257
 70.5 -3 l 257
 1992.5 -3 l 257
 1993 1549 l 257
 56 1550 l 257
1791 759 m 257
 1791 197 l 257
 261 197 l 257
 260.5 759 l 257
 1791 759 l 257
1792 959 m 257
 260 959 l 257
 260 1350 l 257
 1792 1350 l 257
 1792 959 l 257
EndSplineSet
PickledDataWithLists: "(dp0
Vcom.fontlab.hintData
p1
(dp2
Vhhints
p3
(lp4
(dp5
Vposition
p6
I-3
sVwidth
p7
I216
sa(dp8
g6
I33
sg7
I180
sa(dp9
g6
I759
sg7
I97
sa(dp10
g6
I896
sg7
I90
sa(dp11
g6
I948
sg7
I38
sa(dp12
g6
I1417
sg7
I222
sasVvhints
p13
(lp14
(dp15
g6
I62
sg7
I198
sa(dp16
g6
I106
sg7
I153
sa(dp17
g6
I774
sg7
I138
sa(dp18
g6
I780
sg7
I188
sass."
EndChar

StartChar: ellipsis
Encoding: 8230 8230 178
GlifName: ellipsis
Width: 2048
VWidth: 0
Flags: HW
LayerCount: 2
Fore
SplineSet
179.5 114 m 257
 179.5 0 l 257
 322.5 0 l 257
 322.5 114 l 257
 179.5 114 l 257
436.5 114 m 257
 436.5 0 l 257
 579.5 0 l 257
 579.5 114 l 257
 436.5 114 l 257
701.5 114 m 257
 701.5 0 l 257
 844.5 0 l 257
 844.5 114 l 257
 701.5 114 l 257
EndSplineSet
EndChar

StartChar: emdash
Encoding: 8212 8212 180
GlifName: emdash
Width: 2048
VWidth: 0
Flags: HW
LayerCount: 2
Fore
SplineSet
87 600 m 257
 1950 600 l 257
 1950 808 l 257
 87 808 l 257
 87 600 l 257
EndSplineSet
EndChar

StartChar: endash
Encoding: 8211 8211 181
GlifName: endash
Width: 2048
VWidth: 0
Flags: HW
LayerCount: 2
Fore
SplineSet
611 600 m 257
 1437 600 l 257
 1437 808 l 257
 611 808 l 257
 611 600 l 257
EndSplineSet
EndChar

StartChar: equal
Encoding: 61 61 183
GlifName: equal
Width: 2048
VWidth: 0
Flags: HW
LayerCount: 2
Fore
SplineSet
615.5 914 m 257
 615.5 724 l 257
 1432.5 724 l 257
 1432.5 914 l 257
 615.5 914 l 257
615.5 540 m 257
 615.5 350 l 257
 1432.5 350 l 257
 1432.5 540 l 257
 615.5 540 l 257
EndSplineSet
PickledDataWithLists: "(dp0
."
EndChar

StartChar: eth
Encoding: 240 240 184
GlifName: eth
Width: 2048
VWidth: 0
Flags: HW
LayerCount: 2
Fore
SplineSet
1265 1547 m 257
 1716 0 l 257
 1917 0 l 257
 1466 1547 l 257
 1265 1547 l 257
228 1023 m 257
 228 822 l 257
 1593 822 l 257
 1593 1023 l 257
 228 1023 l 257
132 1022 m 257
 132 0 l 257
 333 0 l 257
 333 1022 l 257
 132 1022 l 257
228 195 m 257
 228 0 l 257
 1869 0 l 257
 1869 195 l 257
 228 195 l 257
1185 1416 m 257
 1185 1229 l 257
 1717 1229 l 257
 1717 1416 l 257
 1185 1416 l 257
EndSplineSet
EndChar

StartChar: exclam
Encoding: 33 33 185
GlifName: exclam
Width: 2048
VWidth: 0
Flags: HW
LayerCount: 2
Fore
SplineSet
952 126 m 257
 1096 126 l 257
 1096 374 l 257
 952 374 l 257
 952 126 l 257
962 611 m 257
 1090 611 l 257
 1090 1629 l 257
 962 1629 l 257
 962 611 l 257
EndSplineSet
EndChar

StartChar: exclamdown
Encoding: 161 161 186
GlifName: exclamdown
Width: 2048
VWidth: 0
Flags: HW
LayerCount: 2
Fore
SplineSet
1096 1520 m 257
 952 1520 l 257
 952 1272 l 257
 1096 1272 l 257
 1096 1520 l 257
1086 1035 m 257
 958 1035 l 257
 958 17 l 257
 1086 17 l 257
 1086 1035 l 257
EndSplineSet
EndChar

StartChar: f
Encoding: 102 102 187
GlifName: f
Width: 2048
VWidth: 0
Flags: HW
LayerCount: 2
Fore
SplineSet
839.5 1025 m 257
 828.5 -410 l 257
 1028.5 -405 l 257
 1022.5 1026 l 257
 839.5 1025 l 257
898.5 1024 m 257
 898.5 832 l 257
 1976.5 831 l 257
 1976.5 1025 l 257
 898.5 1024 l 257
71.5 559 m 257
 71.5 356 l 257
 1879.5 356 l 257
 1879.5 559 l 257
 71.5 559 l 257
EndSplineSet
EndChar

StartChar: five
Encoding: 53 53 188
GlifName: five
Width: 2048
VWidth: 0
Flags: HW
HStem: -2 190 52 136 759 188 863 123 1418 223 1418 201
VStem: 42 203 772 205
LayerCount: 2
Fore
SplineSet
1796.5 759 m 257
 1798 198 l 257
 59 198 l 257
 55 -2 l 257
 2003.5 -2 l 257
 2001 959 l 257
 260 959 l 257
 260 1352 l 257
 2011 1352 l 257
 2011 1552 l 257
 60 1552 l 257
 59 759 l 257
 1796.5 759 l 257
EndSplineSet
PickledDataWithLists: "(dp0
Vcom.fontlab.hintData
p1
(dp2
Vhhints
p3
(lp4
(dp5
Vposition
p6
I-2
sVwidth
p7
I190
sa(dp8
g6
I52
sg7
I136
sa(dp9
g6
I759
sg7
I188
sa(dp10
g6
I863
sg7
I123
sa(dp11
g6
I1418
sg7
I223
sa(dp12
g6
I1418
sg7
I201
sasVvhints
p13
(lp14
(dp15
g6
I42
sg7
I203
sa(dp16
g6
I772
sg7
I205
sass."
EndChar

StartChar: four
Encoding: 52 52 189
GlifName: four
Width: 2048
VWidth: 0
Flags: HW
HStem: 7 21<1757 1958.5 1958.5 1958.5> 761 57 884 104 940 48
VStem: 90 203 726 209
LayerCount: 2
Fore
SplineSet
89.5 761 m 257
 1757 761 l 257
 1757 7 l 257
 1958.5 7 l 257
 1953 1548 l 257
 1754 1548 l 257
 1754 961 l 257
 291 961 l 257
 291 1552 l 257
 91 1552 l 257
 89.5 761 l 257
EndSplineSet
PickledDataWithLists: "(dp0
Vcom.fontlab.hintData
p1
(dp2
Vhhints
p3
(lp4
(dp5
Vposition
p6
I7
sVwidth
p7
I21
sa(dp8
g6
I761
sg7
I57
sa(dp9
g6
I884
sg7
I104
sa(dp10
g6
I940
sg7
I48
sasVvhints
p11
(lp12
(dp13
g6
I90
sg7
I203
sa(dp14
g6
I726
sg7
I209
sass."
EndChar

StartChar: g
Encoding: 103 103 190
GlifName: g
Width: 2048
VWidth: 0
Flags: HW
LayerCount: 2
Fore
SplineSet
238 1024 m 257
 238 0 l 257
 430 0 l 257
 430 1024 l 257
 238 1024 l 257
278 1024 m 257
 278 823 l 257
 1794 823 l 257
 1794 1024 l 257
 278 1024 l 257
1622 1024 m 257
 1622 -411 l 257
 1816 -411 l 257
 1816 1024 l 257
 1622 1024 l 257
301 198 m 257
 301 -1 l 257
 1758 -1 l 257
 1758 198 l 257
 301 198 l 257
232 -214 m 257
 232 -413 l 257
 1767 -413 l 257
 1767 -214 l 257
 232 -214 l 257
EndSplineSet
EndChar

StartChar: germandbls
Encoding: 223 223 194
GlifName: germandbls
Width: 2048
VWidth: 0
Flags: HW
LayerCount: 2
Fore
SplineSet
18 1221 m 257
 18 1023 l 257
 269 1023 l 257
 269 1221 l 257
 18 1221 l 257
204 1547 m 257
 204 -4 l 257
 410 -4 l 257
 410 1547 l 257
 204 1547 l 257
410 1548 m 257
 410 1328 l 257
 1829 1328 l 257
 1829 1548 l 257
 410 1548 l 257
1714 1548 m 257
 1714 1023 l 257
 1913 1023 l 257
 1913 1548 l 257
 1714 1548 l 257
1714 1062 m 257
 490 1062 l 257
 490 826 l 257
 1714 826 l 257
 1714 1062 l 257
1714 848 m 257
 1714 175 l 257
 1914 175 l 257
 1914 848 l 257
 1714 848 l 257
547 251 m 257
 547 40 l 257
 1914 40 l 257
 1914 251 l 257
 547 251 l 257
EndSplineSet
EndChar

StartChar: grave
Encoding: 96 96 195
GlifName: grave
Width: 2048
VWidth: 0
Flags: HW
LayerCount: 2
Fore
SplineSet
877 1358 m 257
 1022 1057 l 257
 1171 1129 l 257
 1025 1430 l 257
 877 1358 l 257
EndSplineSet
PickledDataWithLists: "(dp0
."
EndChar

StartChar: gravecomb
Encoding: 768 768 196
GlifName: gravecomb
Width: 2048
VWidth: 0
Flags: HW
LayerCount: 2
Fore
SplineSet
918.5 907 m 257
 1038.5 671 l 257
 1129.5 717 l 257
 1010.5 954 l 257
 918.5 907 l 257
EndSplineSet
PickledDataWithLists: "(dp0
."
EndChar

StartChar: greater
Encoding: 62 62 197
GlifName: greater
Width: 2048
VWidth: 0
Flags: HW
LayerCount: 2
Fore
SplineSet
1436 777 m 257
 614 1013 l 257
 611 807 l 257
 1437 568 l 257
 1436 777 l 257
1436 777 m 257
 616 319 l 257
 616 122 l 257
 1437 568 l 257
 1436 777 l 257
EndSplineSet
PickledDataWithLists: "(dp0
."
EndChar

StartChar: guillemotleft
Encoding: 171 171 198
GlifName: guillemotleft
Width: 2048
VWidth: 0
Flags: HW
LayerCount: 2
Fore
SplineSet
632 609 m 257
 632 454 l 257
 1001 631 l 257
 1001 784 l 257
 632 609 l 257
632 609 m 257
 632 454 l 257
 1000 122 l 257
 1000 268 l 257
 632 609 l 257
1047 609 m 257
 1047 454 l 257
 1416 631 l 257
 1416 784 l 257
 1047 609 l 257
1047 609 m 257
 1047 454 l 257
 1415 122 l 257
 1415 268 l 257
 1047 609 l 257
EndSplineSet
EndChar

StartChar: guillemotright
Encoding: 187 187 199
GlifName: guillemotright
Width: 2048
VWidth: 0
Flags: HW
LayerCount: 2
Fore
SplineSet
1416 609 m 257
 1047 784 l 257
 1047 631 l 257
 1416 454 l 257
 1416 609 l 257
1416 609 m 257
 1048 268 l 257
 1048 122 l 257
 1416 454 l 257
 1416 609 l 257
1001 609 m 257
 632 784 l 257
 632 631 l 257
 1001 454 l 257
 1001 609 l 257
1001 609 m 257
 633 268 l 257
 633 122 l 257
 1001 454 l 257
 1001 609 l 257
EndSplineSet
EndChar

StartChar: guilsinglleft
Encoding: 8249 8249 200
GlifName: guilsinglleft
Width: 2048
VWidth: 0
Flags: HW
LayerCount: 2
Fore
SplineSet
613.5 777 m 257
 613.5 569 l 257
 1434.5 807 l 257
 1431.5 1013 l 257
 613.5 777 l 257
613.5 777 m 257
 613.5 569 l 257
 1429.5 122 l 257
 1429.5 319 l 257
 613.5 777 l 257
EndSplineSet
EndChar

StartChar: guilsinglright
Encoding: 8250 8250 201
GlifName: guilsinglright
Width: 2048
VWidth: 0
Flags: HW
LayerCount: 2
Fore
SplineSet
1436 777 m 257
 614 1013 l 257
 611 807 l 257
 1437 568 l 257
 1436 777 l 257
1436 777 m 257
 616 319 l 257
 616 122 l 257
 1437 568 l 257
 1436 777 l 257
EndSplineSet
EndChar

StartChar: h
Encoding: 104 104 202
GlifName: h
Width: 2048
VWidth: 0
Flags: HW
LayerCount: 2
Fore
SplineSet
186 1541 m 257
 186 6 l 257
 386 6 l 257
 386 1541 l 257
 186 1541 l 257
323 1025 m 257
 323 826 l 257
 1854 826 l 257
 1854 1025 l 257
 323 1025 l 257
1663 1024 m 257
 1663 1 l 257
 1862 1 l 257
 1862 1024 l 257
 1663 1024 l 257
EndSplineSet
EndChar

StartChar: hbar
Encoding: 295 295 203
GlifName: hbar
Width: 2048
VWidth: 0
Flags: HW
LayerCount: 2
Fore
SplineSet
174 1541 m 257
 174 6 l 257
 374 6 l 257
 374 1541 l 257
 174 1541 l 257
311 1025 m 257
 311 826 l 257
 1866 826 l 257
 1866 1025 l 257
 311 1025 l 257
1675 1024 m 257
 1675 1 l 257
 1874 1 l 257
 1874 1024 l 257
 1675 1024 l 257
38 1429 m 257
 38 1221 l 257
 494 1221 l 257
 494 1429 l 257
 38 1429 l 257
EndSplineSet
EndChar

StartChar: hungarumlaut
Encoding: 733 733 205
GlifName: hungarumlaut
Width: 2048
VWidth: 0
Flags: HW
LayerCount: 2
Fore
SplineSet
752 110 m 257
 896 110 l 257
 896 358 l 257
 752 358 l 257
 752 110 l 257
1152 110 m 257
 1296 110 l 257
 1296 358 l 257
 1152 358 l 257
 1152 110 l 257
EndSplineSet
EndChar

StartChar: hyphen
Encoding: 45 45 206
GlifName: hyphen
Width: 2048
VWidth: 0
Flags: HW
LayerCount: 2
Fore
SplineSet
611 808 m 257
 611 600 l 257
 1437 600 l 257
 1437 808 l 257
 611 808 l 257
EndSplineSet
PickledDataWithLists: "(dp0
."
EndChar

StartChar: i
Encoding: 105 105 207
GlifName: i
Width: 2048
VWidth: 0
Flags: HW
LayerCount: 2
Fore
SplineSet
923 1018 m 257
 923 139 l 257
 1125 139 l 257
 1125 1018 l 257
 923 1018 l 257
153 204 m 257
 153 6 l 257
 1895 6 l 257
 1895 204 l 257
 153 204 l 257
659 1333 m 257
 660 1133 l 257
 868 1133 l 257
 866 1333 l 257
 659 1333 l 257
497 1018 m 257
 497 816 l 257
 1117 816 l 257
 1117 1018 l 257
 497 1018 l 257
EndSplineSet
EndChar

StartChar: j
Encoding: 106 106 216
GlifName: j
Width: 2048
VWidth: 0
Flags: HW
LayerCount: 2
Fore
SplineSet
1639.5 1024 m 257
 1639.5 -411 l 257
 1838.5 -411 l 257
 1838.5 1024 l 257
 1639.5 1024 l 257
209.5 -209 m 257
 209.5 -409 l 257
 1739.5 -409 l 257
 1739.5 -209 l 257
 209.5 -209 l 257
210.5 -6 m 257
 210.5 -351 l 257
 410.5 -351 l 257
 410.5 -6 l 257
 210.5 -6 l 257
1627 1309 m 257
 1627 1113 l 257
 1851 1112 l 257
 1853 1307 l 257
 1627 1309 l 257
EndSplineSet
EndChar

StartChar: k
Encoding: 107 107 218
GlifName: k
Width: 2048
VWidth: 0
Flags: HW
LayerCount: 2
Fore
SplineSet
103 1535 m 257
 103 5 l 257
 303 5 l 257
 303 1535 l 257
 103 1535 l 257
152 516 m 257
 201 298 l 257
 1888 1023 l 257
 1671 1028 l 257
 152 516 l 257
467 596 m 257
 257 483 l 257
 1707 -3 l 257
 1945 -2 l 257
 467 596 l 257
EndSplineSet
EndChar

StartChar: l
Encoding: 108 108 219
GlifName: l
Width: 2048
VWidth: 0
Flags: HW
LayerCount: 2
Fore
SplineSet
207 209 m 257
 207 9 l 257
 1841 9 l 257
 1841 209 l 257
 207 209 l 257
924 1548 m 257
 924 86 l 257
 1124 86 l 257
 1124 1547 l 257
 924 1548 l 257
268 1548 m 257
 268 1349 l 257
 1003 1349 l 257
 1003 1548 l 257
 268 1548 l 257
EndSplineSet
EndChar

StartChar: lcaron
Encoding: 318 318 221
GlifName: lcaron
Width: 2048
VWidth: 0
Flags: HW
LayerCount: 2
Fore
SplineSet
133 209 m 257
 133 9 l 257
 1791 9 l 257
 1791 209 l 257
 133 209 l 257
862 1547 m 257
 862 86 l 257
 1062 86 l 257
 1062 1547 l 257
 862 1547 l 257
194 1548 m 257
 194 1349 l 257
 941 1349 l 257
 941 1548 l 257
 194 1548 l 257
1309 1496 m 257
 1309 1264 l 257
 1439 1264 l 257
 1439 1496 l 257
 1309 1496 l 257
EndSplineSet
EndChar

StartChar: less
Encoding: 60 60 223
GlifName: less
Width: 2048
VWidth: 0
Flags: HW
LayerCount: 2
Fore
SplineSet
613.5 777 m 257
 613.5 569 l 257
 1434.5 807 l 257
 1431.5 1013 l 257
 613.5 777 l 257
613.5 777 m 257
 613.5 569 l 257
 1429.5 122 l 257
 1429.5 319 l 257
 613.5 777 l 257
EndSplineSet
PickledDataWithLists: "(dp0
."
EndChar

StartChar: logicalnot
Encoding: 172 172 224
GlifName: logicalnot
Width: 2048
VWidth: 0
Flags: HW
HStem: 640 295<1179 1289 1289 1289>
VStem: 749 550<835 935 835 935>
LayerCount: 2
Fore
SplineSet
1179 935 m 257
 1179 640 l 257
 1289 640 l 257
 1289 935 l 257
 1179 935 l 257
749 935 m 257
 749 835 l 257
 1299 835 l 257
 1299 935 l 257
 749 935 l 257
EndSplineSet
PickledDataWithLists: "(dp0
Vcom.fontlab.hintData
p1
(dp2
Vhhints
p3
(lp4
(dp5
Vposition
p6
I640
sVwidth
p7
I295
sasVvhints
p8
(lp9
(dp10
g6
I749
sg7
I550
sass."
EndChar

StartChar: lslash
Encoding: 322 322 225
GlifName: lslash
Width: 2048
VWidth: 0
Flags: HW
LayerCount: 2
Fore
SplineSet
195 209 m 257
 195 9 l 257
 1853 9 l 257
 1853 209 l 257
 195 209 l 257
924 1547 m 257
 924 86 l 257
 1124 86 l 257
 1124 1547 l 257
 924 1547 l 257
256 1548 m 257
 256 1349 l 257
 1003 1349 l 257
 1003 1548 l 257
 256 1548 l 257
1839 1213 m 257
 112 830 l 257
 214 656 l 257
 1941 1039 l 257
 1839 1213 l 257
EndSplineSet
EndChar

StartChar: m
Encoding: 109 109 226
GlifName: m
Width: 2048
VWidth: 0
Flags: HW
LayerCount: 2
Fore
SplineSet
147.5 993 m 257
 147.5 1 l 257
 347.5 1 l 257
 347.5 993 l 257
 147.5 993 l 257
962.5 972 m 257
 962.5 -2 l 257
 1162.5 -2 l 257
 1162.5 972 l 257
 962.5 972 l 257
1777.5 976 m 257
 1777.5 1 l 257
 1977.5 1 l 257
 1977.5 976 l 257
 1777.5 976 l 257
70.5 1021 m 257
 71.5 820 l 257
 1977.5 826 l 257
 1976.5 1027 l 257
 70.5 1021 l 257
EndSplineSet
EndChar

StartChar: macron
Encoding: 175 175 227
GlifName: macron
Width: 2048
VWidth: 0
Flags: HW
HStem: 522 78
VStem: 1768 560
LayerCount: 2
Fore
SplineSet
758 1019 m 257
 758 941 l 257
 1318 941 l 257
 1318 1019 l 257
 758 1019 l 257
EndSplineSet
PickledDataWithLists: "(dp0
Vcom.fontlab.hintData
p1
(dp2
Vhhints
p3
(lp4
(dp5
Vposition
p6
I522
sVwidth
p7
I78
sasVvhints
p8
(lp9
(dp10
g6
I1768
sg7
I560
sass."
EndChar

StartChar: mu
Encoding: 181 181 229
GlifName: mu
Width: 2048
VWidth: 0
Flags: HW
HStem: 0 120<801.5 1316.5 1236.5 1316.5>
VStem: 702 95 1236 110 1236 80
LayerCount: 2
Fore
SplineSet
1236.5 935 m 257
 1236.5 0 l 257
 1346.5 0 l 257
 1346.5 935 l 257
 1236.5 935 l 257
801.5 120 m 257
 801.5 0 l 257
 1316.5 0 l 257
 1316.5 120 l 257
 801.5 120 l 257
701.5 935 m 257
 701.5 -430 l 257
 796.5 -430 l 257
 796.5 935 l 257
 701.5 935 l 257
EndSplineSet
PickledDataWithLists: "(dp0
Vcom.fontlab.hintData
p1
(dp2
Vhhints
p3
(lp4
(dp5
Vposition
p6
I0
sVwidth
p7
I120
sasVvhints
p8
(lp9
(dp10
g6
I702
sg7
I95
sa(dp11
g6
I1236
sg7
I110
sa(dp12
g6
I1236
sg7
I80
sass."
EndChar

StartChar: multiply
Encoding: 215 215 230
GlifName: multiply
Width: 2048
VWidth: 0
Flags: HW
LayerCount: 2
Fore
SplineSet
91 302 m 257
 292 302 l 257
 1951 1323 l 257
 1752 1323 l 257
 91 302 l 257
93 1325 m 257
 1759 298 l 257
 1958 298 l 257
 295 1325 l 257
 93 1325 l 257
EndSplineSet
EndChar

StartChar: n
Encoding: 110 110 231
GlifName: n
Width: 2048
VWidth: 0
Flags: HW
LayerCount: 2
Fore
SplineSet
313.5 990 m 257
 313.5 -2 l 257
 514.5 -2 l 257
 514.5 990 l 257
 313.5 990 l 257
1712.5 976 m 257
 1712.5 1 l 257
 1913.5 1 l 257
 1913.5 976 l 257
 1712.5 976 l 257
134.5 1021 m 257
 135.5 820 l 257
 1913.5 826 l 257
 1912.5 1027 l 257
 134.5 1021 l 257
EndSplineSet
EndChar

StartChar: nine
Encoding: 57 57 234
GlifName: nine
Width: 2048
VWidth: 0
Flags: HW
HStem: -1 209 759 74 868 118 1416 208 1416 95
VStem: 42 203 782 194 782 114
LayerCount: 2
Fore
SplineSet
1805 759 m 257
 1805 200 l 257
 79 200 l 257
 77 -1 l 257
 2006.5 0 l 257
 2001 1554 l 257
 57 1554 l 257
 57 1541 l 257
 57 759 l 257
 1805 759 l 257
1802 959 m 257
 257 959 l 257
 257 1354 l 257
 1802 1354 l 257
 1802 959 l 257
EndSplineSet
PickledDataWithLists: "(dp0
Vcom.fontlab.hintData
p1
(dp2
Vhhints
p3
(lp4
(dp5
Vposition
p6
I-1
sVwidth
p7
I209
sa(dp8
g6
I759
sg7
I74
sa(dp9
g6
I868
sg7
I118
sa(dp10
g6
I1416
sg7
I208
sa(dp11
g6
I1416
sg7
I95
sasVvhints
p12
(lp13
(dp14
g6
I42
sg7
I203
sa(dp15
g6
I782
sg7
I194
sa(dp16
g6
I782
sg7
I114
sass."
EndChar

StartChar: numbersign
Encoding: 35 35 236
GlifName: numbersign
Width: 2048
VWidth: 0
Flags: HW
LayerCount: 2
Fore
SplineSet
740.5 1348 m 257
 727.5 314 l 257
 867.5 313 l 257
 880.5 1347 l 257
 740.5 1348 l 257
1151.5 1352 m 257
 1139.5 281 l 257
 1305.5 279 l 257
 1318.5 1350 l 257
 1151.5 1352 l 257
611.5 1165 m 257
 609.5 1018 l 257
 1427.5 1010 l 257
 1429.5 1157 l 257
 611.5 1165 l 257
611.5 776 m 257
 609.5 600 l 257
 1436.5 592 l 257
 1438.5 767 l 257
 611.5 776 l 257
EndSplineSet
PickledDataWithLists: "(dp0
."
EndChar

StartChar: o
Encoding: 111 111 237
GlifName: o
Width: 2048
VWidth: 0
Flags: HW
LayerCount: 2
Fore
SplineSet
116.5 1024 m 257
 114.5 0 l 257
 318.5 0 l 257
 316.5 1022 l 257
 116.5 1024 l 257
1731.5 1024 m 257
 1731.5 0 l 257
 1933.5 0 l 257
 1933.5 1024 l 257
 1731.5 1024 l 257
239.5 1021 m 257
 239.5 822 l 257
 1824.5 822 l 257
 1825.5 1024 l 257
 239.5 1021 l 257
243.5 200 m 257
 243.5 1 l 257
 1815.5 1 l 257
 1815.5 200 l 257
 243.5 200 l 257
EndSplineSet
EndChar

StartChar: oe
Encoding: 339 339 242
GlifName: oe
Width: 2048
VWidth: 0
Flags: HW
LayerCount: 2
Fore
SplineSet
1109 645 m 257
 1112 446 l 257
 1848 446 l 257
 1848 645 l 257
 1109 645 l 257
1823 1023 m 257
 1823 445 l 257
 2023 445 l 257
 2023 1023 l 257
 1823 1023 l 257
103 1024 m 257
 103 0 l 257
 303 0 l 257
 303 1024 l 257
 103 1024 l 257
963 1024 m 257
 963 0 l 257
 1163 0 l 257
 1163 1024 l 257
 963 1024 l 257
158 1024 m 257
 158 823 l 257
 1883 823 l 257
 1883 1024 l 257
 158 1024 l 257
149 200 m 257
 149 0 l 257
 2023 0 l 257
 2023 200 l 257
 149 200 l 257
EndSplineSet
EndChar

StartChar: ogonek
Encoding: 731 731 243
GlifName: ogonek
Width: 2048
VWidth: 0
Flags: HW
HStem: -410 122 -121 121
VStem: 1506 118
LayerCount: 2
Fore
SplineSet
753 -274.333 m 257
 753 -396.333 l 257
 1295 -396.333 l 257
 1295 -274.333 l 257
 753 -274.333 l 257
753 13.667 m 257
 753 -396.333 l 257
 871 -396.333 l 257
 871 13.667 l 257
 753 13.667 l 257
753 13.667 m 257
 753 -107.333 l 257
 1295 -107.333 l 257
 1295 13.667 l 257
 753 13.667 l 257
EndSplineSet
PickledDataWithLists: "(dp0
Vcom.fontlab.hintData
p1
(dp2
Vhhints
p3
(lp4
(dp5
Vposition
p6
I-410
sVwidth
p7
I122
sa(dp8
g6
I-121
sg7
I121
sasVvhints
p9
(lp10
(dp11
g6
I1506
sg7
I118
sass."
EndChar

StartChar: one
Encoding: 49 49 247
GlifName: one
Width: 2048
VWidth: 0
Flags: HW
VStem: 1589 274
LayerCount: 2
Fore
SplineSet
1021.5 0 m 257
 1220.5 0 l 257
 1220.5 1551 l 257
 1021.5 1551 l 257
 1021.5 0 l 257
1025.5 1549 m 257
 827.5 1252 l 257
 977.5 1152 l 257
 1175.5 1449 l 257
 1025.5 1549 l 257
EndSplineSet
PickledDataWithLists: "(dp0
Vcom.fontlab.hintData
p1
(dp2
Vvhints
p3
(lp4
(dp5
Vposition
p6
I1589
sVwidth
p7
I274
sass."
EndChar

StartChar: onehalf
Encoding: 189 189 248
GlifName: onehalf
Width: 2048
VWidth: 0
Flags: HW
HStem: -8 104 44 52 292 109 565 83
VStem: 98 110 377 122 496 2 683 6 683 16
LayerCount: 2
Fore
SplineSet
1405 1483 m 257
 133 6 l 257
 310 -30 l 257
 1582 1447 l 257
 1405 1483 l 257
298 863 m 257
 381 863 l 257
 381 1551 l 257
 298 1551 l 257
 298 863 l 257
300 1550 m 257
 218 1419 l 257
 280 1374 l 257
 362 1506 l 257
 300 1550 l 257
1340 603 m 257
 1695 603 l 257
 1695 407 l 257
 1344 407 l 257
 1344 0 l 257
 1803 0 l 257
 1803 90 l 257
 1461 91 l 257
 1461 317 l 257
 1812 317 l 257
 1812 693 l 257
 1340 693 l 257
 1340 603 l 257
EndSplineSet
PickledDataWithLists: "(dp0
Vcom.fontlab.hintData
p1
(dp2
Vhhints
p3
(lp4
(dp5
Vposition
p6
I-8
sVwidth
p7
I104
sa(dp8
g6
I44
sg7
I52
sa(dp9
g6
I292
sg7
I109
sa(dp10
g6
I565
sg7
I83
sasVvhints
p11
(lp12
(dp13
g6
I98
sg7
I110
sa(dp14
g6
I377
sg7
I122
sa(dp15
g6
I496
sg7
I2
sa(dp16
g6
I683
sg7
I6
sa(dp17
g6
I683
sg7
I16
sass."
EndChar

StartChar: onequarter
Encoding: 188 188 249
GlifName: onequarter
Width: 2048
VWidth: 0
Flags: HW
HStem: 5 8 306 23 356 42 378 19
VStem: 98 110 419 81 673 84
LayerCount: 2
Fore
SplineSet
1276 1482 m 257
 81 10 l 257
 292 10 l 257
 1487 1482 l 257
 1276 1482 l 257
542 1046 m 257
 653 1046 l 257
 651 1552 l 257
 540 1552 l 257
 542 1046 l 257
550 1552 m 257
 325 1428 l 257
 366 1391 l 257
 610 1542 l 257
 550 1552 l 257
1081 380 m 257
 1706 381 l 257
 1708 9 l 257
 1835 9 l 257
 1825 770 l 257
 1702 770 l 257
 1704 447 l 257
 1202 447 l 257
 1200 772 l 257
 1079 771 l 257
 1081 380 l 257
EndSplineSet
PickledDataWithLists: "(dp0
Vcom.fontlab.hintData
p1
(dp2
Vhhints
p3
(lp4
(dp5
Vposition
p6
I5
sVwidth
p7
I8
sa(dp8
g6
I306
sg7
I23
sa(dp9
g6
I356
sg7
I42
sa(dp10
g6
I378
sg7
I19
sasVvhints
p11
(lp12
(dp13
g6
I98
sg7
I110
sa(dp14
g6
I419
sg7
I81
sa(dp15
g6
I673
sg7
I84
sass."
EndChar

StartChar: ordfeminine
Encoding: 170 170 250
GlifName: ordfeminine
Width: 2048
VWidth: 0
Flags: HW
LayerCount: 2
Fore
SplineSet
217 1320 m 257
 217 1119 l 257
 1821 1119 l 257
 1823 1319 l 257
 217 1320 l 257
1710 1320 m 257
 1707 294 l 257
 1909 296 l 257
 1904 1320 l 257
 1710 1320 l 257
221 897 m 257
 223 696 l 257
 1845 695 l 257
 1845 894 l 257
 221 897 l 257
221 870 m 257
 221 293 l 257
 422 293 l 257
 422 870 l 257
 221 870 l 257
219 495 m 257
 221 293 l 257
 1909 296 l 257
 1909 496 l 257
 219 495 l 257
126 162 m 257
 126 4 l 257
 1922 4 l 257
 1922 162 l 257
 126 162 l 257
EndSplineSet
EndChar

StartChar: ordmasculine
Encoding: 186 186 251
GlifName: ordmasculine
Width: 2048
VWidth: 0
Flags: HW
LayerCount: 2
Fore
SplineSet
172 1024 m 257
 170 0 l 257
 374 0 l 257
 372 1022 l 257
 172 1024 l 257
1787 1024 m 257
 1787 0 l 257
 1989 0 l 257
 1989 1024 l 257
 1787 1024 l 257
295 1021 m 257
 295 822 l 257
 1880 822 l 257
 1881 1024 l 257
 295 1021 l 257
299 200 m 257
 299 1 l 257
 1871 1 l 257
 1871 200 l 257
 299 200 l 257
0 -84 m 257
 0 -216 l 257
 2048 -216 l 257
 2048 -84 l 257
 0 -84 l 257
EndSplineSet
EndChar

StartChar: oslash
Encoding: 248 248 252
GlifName: oslash
Width: 2048
VWidth: 0
Flags: HW
LayerCount: 2
Fore
SplineSet
1861 1164 m 257
 9 -5 l 257
 171 -103 l 257
 2024 1066 l 257
 1861 1164 l 257
104 1022 m 257
 104 0 l 257
 304 0 l 257
 304 1022 l 257
 104 1022 l 257
1743 1024 m 257
 1743 0 l 257
 1945 0 l 257
 1945 1024 l 257
 1743 1024 l 257
227 1024 m 257
 227 822 l 257
 1837 822 l 257
 1837 1024 l 257
 227 1024 l 257
231 200 m 257
 231 1 l 257
 1827 1 l 257
 1827 200 l 257
 231 200 l 257
EndSplineSet
EndChar

StartChar: p
Encoding: 112 112 254
GlifName: p
Width: 2048
VWidth: 0
Flags: HW
LayerCount: 2
Fore
SplineSet
201.5 1203 m 257
 201.5 -406 l 257
 401.5 -406 l 257
 401.5 1203 l 257
 201.5 1203 l 257
299.5 1020 m 257
 299.5 820 l 257
 1840.5 821 l 257
 1838.5 1020 l 257
 299.5 1020 l 257
303.5 203 m 257
 306.5 1 l 257
 1846.5 1 l 257
 1843.5 202 l 257
 303.5 203 l 257
1641.5 876 m 257
 1641.5 175 l 257
 1844.5 175 l 257
 1839.5 876 l 257
 1641.5 876 l 257
EndSplineSet
EndChar

StartChar: paragraph
Encoding: 182 182 255
GlifName: paragraph
Width: 2048
VWidth: 0
Flags: HW
LayerCount: 2
Fore
SplineSet
601.5 1130 m 257
 601.5 985 l 257
 1166.5 985 l 257
 1166.5 1130 l 257
 601.5 1130 l 257
601.5 1552 m 257
 601.5 1000 l 257
 761.5 1000 l 257
 761.5 1552 l 257
 601.5 1552 l 257
601.5 1552 m 257
 601.5 1435 l 257
 1421.5 1435 l 257
 1421.5 1552 l 257
 601.5 1552 l 257
1071.5 1552 m 257
 1071.5 0 l 257
 1216.5 0 l 257
 1216.5 1552 l 257
 1071.5 1552 l 257
1341.5 1552 m 257
 1341.5 0 l 257
 1446.5 0 l 257
 1446.5 1552 l 257
 1341.5 1552 l 257
EndSplineSet
EndChar

StartChar: parenleft
Encoding: 40 40 256
GlifName: parenleft
Width: 2048
VWidth: 0
Flags: HW
LayerCount: 2
Fore
SplineSet
835.5 1026 m 257
 835.5 179 l 257
 1025.5 179 l 257
 1025.5 1026 l 257
 835.5 1026 l 257
1154.5 1633 m 257
 835.5 1026 l 257
 1024.5 1028 l 257
 1184.5 1640 l 257
 1154.5 1633 l 257
835.5 179 m 257
 1179.5 -406 l 257
 1212.5 -408 l 257
 1026.5 179 l 257
 835.5 179 l 257
EndSplineSet
EndChar

StartChar: parenright
Encoding: 41 41 257
GlifName: parenright
Width: 2048
VWidth: 0
Flags: HW
LayerCount: 2
Fore
SplineSet
1000.5 1026 m 257
 1000.5 179 l 257
 1190.5 179 l 257
 1190.5 1026 l 257
 1000.5 1026 l 257
857.5 1630 m 257
 1000.5 1025 l 257
 1190.5 1026 l 257
 895.5 1629 l 257
 857.5 1630 l 257
1000.5 179 m 257
 857.5 -407 l 257
 886.5 -409 l 257
 1190.5 179 l 257
 1000.5 179 l 257
EndSplineSet
EndChar

StartChar: percent
Encoding: 37 37 258
GlifName: percent
Width: 2048
VWidth: 0
Flags: HW
LayerCount: 2
Fore
SplineSet
590.5 522 m 257
 633.5 377 l 257
 1457.5 716 l 257
 1413.5 860 l 257
 590.5 522 l 257
730.5 1148 m 257
 730.5 822 l 257
 808.5 822 l 257
 808.5 1148 l 257
 730.5 1148 l 257
730.5 1152 m 257
 730.5 1057 l 257
 1077.5 1057 l 257
 1077.5 1152 l 257
 730.5 1152 l 257
730.5 871 m 257
 730.5 789 l 257
 1074.5 789 l 257
 1074.5 871 l 257
 730.5 871 l 257
985.5 1152 m 257
 985.5 791 l 257
 1077.5 791 l 257
 1077.5 1152 l 257
 985.5 1152 l 257
1057.5 436 m 257
 1057.5 110 l 257
 1135.5 110 l 257
 1135.5 436 l 257
 1057.5 436 l 257
1057.5 440 m 257
 1057.5 345 l 257
 1404.5 345 l 257
 1404.5 440 l 257
 1057.5 440 l 257
1057.5 159 m 257
 1057.5 77 l 257
 1401.5 77 l 257
 1401.5 159 l 257
 1057.5 159 l 257
1312.5 440 m 257
 1312.5 79 l 257
 1404.5 79 l 257
 1404.5 440 l 257
 1312.5 440 l 257
EndSplineSet
PickledDataWithLists: "(dp0
."
EndChar

StartChar: period
Encoding: 46 46 259
GlifName: period
Width: 2048
VWidth: 0
Flags: HW
LayerCount: 2
Fore
SplineSet
891.5 246 m 257
 891.5 -1 l 257
 1156.5 -1 l 257
 1156.5 246 l 257
 891.5 246 l 257
EndSplineSet
PickledDataWithLists: "(dp0
."
EndChar

StartChar: periodcentered
Encoding: 183 183 260
GlifName: periodcentered
Width: 2048
VWidth: 0
Flags: HW
HStem: 899 247<891.5 1156.5>
VStem: 892 265
LayerCount: 2
Fore
SplineSet
891.5 1146 m 257
 891.5 899 l 257
 1156.5 899 l 257
 1156.5 1146 l 257
 891.5 1146 l 257
EndSplineSet
PickledDataWithLists: "(dp0
Vcom.fontlab.hintData
p1
(dp2
Vhhints
p3
(lp4
(dp5
Vposition
p6
I899
sVwidth
p7
I247
sasVvhints
p8
(lp9
(dp10
g6
I892
sg7
I265
sass."
EndChar

StartChar: perthousand
Encoding: 8240 8240 261
GlifName: perthousand
Width: 2048
VWidth: 0
Flags: HW
LayerCount: 2
Fore
SplineSet
1173.5 436 m 257
 1173.5 110 l 257
 1251.5 110 l 257
 1251.5 436 l 257
 1173.5 436 l 257
1173.5 440 m 257
 1173.5 345 l 257
 1520.5 345 l 257
 1520.5 440 l 257
 1173.5 440 l 257
1173.5 159 m 257
 1173.5 77 l 257
 1517.5 77 l 257
 1517.5 159 l 257
 1173.5 159 l 257
1428.5 440 m 257
 1428.5 79 l 257
 1520.5 79 l 257
 1520.5 440 l 257
 1428.5 440 l 257
527.5 522 m 257
 570.5 377 l 257
 1394.5 716 l 257
 1350.5 860 l 257
 527.5 522 l 257
667.5 1148 m 257
 667.5 822 l 257
 745.5 822 l 257
 745.5 1148 l 257
 667.5 1148 l 257
667.5 1152 m 257
 667.5 1057 l 257
 1014.5 1057 l 257
 1014.5 1152 l 257
 667.5 1152 l 257
667.5 871 m 257
 667.5 789 l 257
 1011.5 789 l 257
 1011.5 871 l 257
 667.5 871 l 257
922.5 1152 m 257
 922.5 791 l 257
 1014.5 791 l 257
 1014.5 1152 l 257
 922.5 1152 l 257
772.5 436 m 257
 772.5 110 l 257
 850.5 110 l 257
 850.5 436 l 257
 772.5 436 l 257
772.5 440 m 257
 772.5 345 l 257
 1119.5 345 l 257
 1119.5 440 l 257
 772.5 440 l 257
772.5 159 m 257
 772.5 77 l 257
 1116.5 77 l 257
 1116.5 159 l 257
 772.5 159 l 257
1027.5 440 m 257
 1027.5 79 l 257
 1119.5 79 l 257
 1119.5 440 l 257
 1027.5 440 l 257
EndSplineSet
EndChar

StartChar: plus
Encoding: 43 43 262
GlifName: plus
Width: 2048
VWidth: 0
Flags: HW
LayerCount: 2
Fore
SplineSet
896 1221 m 257
 896 165 l 257
 1121 165 l 257
 1121 1221 l 257
 896 1221 l 257
573 821 m 257
 573 613 l 257
 1475 613 l 257
 1475 821 l 257
 573 821 l 257
EndSplineSet
PickledDataWithLists: "(dp0
."
EndChar

StartChar: plusminus
Encoding: 177 177 263
GlifName: plusminus
Width: 2048
VWidth: 0
Flags: HW
LayerCount: 2
Fore
SplineSet
611 108 m 257
 611 -100 l 257
 1437 -100 l 257
 1437 108 l 257
 611 108 l 257
896 1221 m 257
 896 165 l 257
 1121 165 l 257
 1121 1221 l 257
 896 1221 l 257
573 821 m 257
 573 613 l 257
 1475 613 l 257
 1475 821 l 257
 573 821 l 257
EndSplineSet
EndChar

StartChar: q
Encoding: 113 113 264
GlifName: q
Width: 2048
VWidth: 0
Flags: HW
LayerCount: 2
Fore
SplineSet
1423.5 1201 m 257
 1423.5 -410 l 257
 1622.5 -410 l 257
 1622.5 1201 l 257
 1423.5 1201 l 257
150.5 1022 m 257
 150.5 823 l 257
 1599.5 823 l 257
 1599.5 1022 l 257
 150.5 1022 l 257
151.5 203 m 257
 151.5 2 l 257
 1567.5 2 l 257
 1567.5 203 l 257
 151.5 203 l 257
149.5 855 m 257
 149.5 107 l 257
 349.5 107 l 257
 349.5 855 l 257
 149.5 855 l 257
1462.5 -268 m 257
 1462.5 -410 l 257
 1898.5 -410 l 257
 1898.5 -268 l 257
 1462.5 -268 l 257
EndSplineSet
EndChar

StartChar: question
Encoding: 63 63 265
GlifName: question
Width: 2048
VWidth: 0
Flags: HW
LayerCount: 2
Fore
SplineSet
880.5 246 m 257
 880.5 0 l 257
 1130.5 0 l 257
 1125.5 247 l 257
 880.5 246 l 257
703.5 1519 m 257
 703.5 1333 l 257
 1340.5 1333 l 257
 1340.5 1519 l 257
 703.5 1519 l 257
1150.5 1514 m 257
 1150.5 966 l 257
 1344.5 966 l 257
 1344.5 1514 l 257
 1150.5 1514 l 257
880.5 1015 m 257
 880.5 816 l 257
 1344.5 816 l 257
 1344.5 1015 l 257
 880.5 1015 l 257
880.5 1011 m 257
 880.5 392 l 257
 1128.5 392 l 257
 1128.5 1011 l 257
 880.5 1011 l 257
EndSplineSet
PickledDataWithLists: "(dp0
."
EndChar

StartChar: questiondown
Encoding: 191 191 266
GlifName: questiondown
Width: 2048
VWidth: 0
Flags: HW
VStem: 704 641
LayerCount: 2
Fore
SplineSet
1167.5 1273 m 257
 1167.5 1519 l 257
 917.5 1519 l 257
 917.5 1272 l 257
 1167.5 1273 l 257
1344.5 0 m 257
 1344.5 186 l 257
 707.5 186 l 257
 707.5 0 l 257
 1344.5 0 l 257
897.5 5 m 257
 897.5 553 l 257
 703.5 553 l 257
 703.5 5 l 257
 897.5 5 l 257
1167.5 504 m 257
 1167.5 703 l 257
 703.5 703 l 257
 703.5 504 l 257
 1167.5 504 l 257
1167.5 508 m 257
 1167.5 1127 l 257
 919.5 1127 l 257
 919.5 508 l 257
 1167.5 508 l 257
EndSplineSet
PickledDataWithLists: "(dp0
Vcom.fontlab.hintData
p1
(dp2
Vvhints
p3
(lp4
(dp5
Vposition
p6
I704
sVwidth
p7
I641
sass."
EndChar

StartChar: quotedbl
Encoding: 34 34 267
GlifName: quotedbl
Width: 2048
VWidth: 0
Flags: HW
LayerCount: 2
Fore
SplineSet
752 1326 m 257
 896 1326 l 257
 896 1574 l 257
 752 1574 l 257
 752 1326 l 257
1152 1326 m 257
 1296 1326 l 257
 1296 1574 l 257
 1152 1574 l 257
 1152 1326 l 257
EndSplineSet
EndChar

StartChar: quotedblbase
Encoding: 8222 8222 268
GlifName: quotedblbase
Width: 2048
VWidth: 0
Flags: HW
LayerCount: 2
Fore
SplineSet
198 237 m 257
 198 8 l 257
 446 8 l 257
 446 237 l 257
 198 237 l 257
297 135 m 257
 179 -146 l 257
 322 -206 l 257
 444 4 l 257
 297 135 l 257
597 237 m 257
 597 8 l 257
 845 8 l 257
 845 237 l 257
 597 237 l 257
696 135 m 257
 578 -146 l 257
 721 -206 l 257
 843 4 l 257
 696 135 l 257
EndSplineSet
EndChar

StartChar: quotedblleft
Encoding: 8220 8220 269
GlifName: quotedblleft
Width: 2048
VWidth: 0
Flags: HW
LayerCount: 2
Fore
SplineSet
970.5 1842 m 257
 970.5 2071 l 257
 722.5 2071 l 257
 722.5 1842 l 257
 970.5 1842 l 257
871.5 1944 m 257
 989.5 2225 l 257
 846.5 2285 l 257
 724.5 2075 l 257
 871.5 1944 l 257
1306.5 1842 m 257
 1306.5 2071 l 257
 1058.5 2071 l 257
 1058.5 1842 l 257
 1306.5 1842 l 257
1207.5 1944 m 257
 1325.5 2225 l 257
 1182.5 2285 l 257
 1060.5 2075 l 257
 1207.5 1944 l 257
EndSplineSet
EndChar

StartChar: quotedblright
Encoding: 8221 8221 270
GlifName: quotedblright
Width: 2048
VWidth: 0
Flags: HW
LayerCount: 2
Fore
SplineSet
1068.5 2285 m 257
 1068.5 2056 l 257
 1316.5 2056 l 257
 1316.5 2285 l 257
 1068.5 2285 l 257
1167.5 2183 m 257
 1049.5 1902 l 257
 1192.5 1842 l 257
 1314.5 2052 l 257
 1167.5 2183 l 257
750.5 2285 m 257
 750.5 2056 l 257
 998.5 2056 l 257
 998.5 2285 l 257
 750.5 2285 l 257
849.5 2183 m 257
 731.5 1902 l 257
 874.5 1842 l 257
 996.5 2052 l 257
 849.5 2183 l 257
EndSplineSet
EndChar

StartChar: quoteleft
Encoding: 8216 8216 271
GlifName: quoteleft
Width: 2048
VWidth: 0
Flags: HW
LayerCount: 2
Fore
SplineSet
1138.5 1842 m 257
 1138.5 2071 l 257
 890.5 2071 l 257
 890.5 1842 l 257
 1138.5 1842 l 257
1039.5 1944 m 257
 1157.5 2225 l 257
 1014.5 2285 l 257
 892.5 2075 l 257
 1039.5 1944 l 257
EndSplineSet
EndChar

StartChar: quoteright
Encoding: 8217 8217 272
GlifName: quoteright
Width: 2048
VWidth: 0
Flags: HW
LayerCount: 2
Fore
SplineSet
909.5 2285 m 257
 909.5 2056 l 257
 1157.5 2056 l 257
 1157.5 2285 l 257
 909.5 2285 l 257
1008.5 2183 m 257
 890.5 1902 l 257
 1033.5 1842 l 257
 1155.5 2052 l 257
 1008.5 2183 l 257
EndSplineSet
EndChar

StartChar: quotesinglbase
Encoding: 8218 8218 273
GlifName: quotesinglbase
Width: 2048
VWidth: 0
Flags: HW
LayerCount: 2
Fore
SplineSet
909.5 237 m 257
 909.5 8 l 257
 1157.5 8 l 257
 1157.5 237 l 257
 909.5 237 l 257
1008.5 135 m 257
 890.5 -146 l 257
 1033.5 -206 l 257
 1155.5 4 l 257
 1008.5 135 l 257
EndSplineSet
EndChar

StartChar: quotesingle
Encoding: 39 39 274
GlifName: quotesingle
Width: 2048
VWidth: 0
Flags: HW
LayerCount: 2
Fore
SplineSet
959 1496 m 257
 959 1264 l 257
 1089 1264 l 257
 1089 1496 l 257
 959 1496 l 257
EndSplineSet
PickledDataWithLists: "(dp0
."
EndChar

StartChar: r
Encoding: 114 114 275
GlifName: r
Width: 2048
VWidth: 0
Flags: HW
LayerCount: 2
Fore
SplineSet
157.5 1021 m 257
 157.5 821 l 257
 1890.5 821 l 257
 1890.5 1021 l 257
 157.5 1021 l 257
872.5 954 m 257
 872.5 -2 l 257
 1072.5 -2 l 257
 1072.5 954 l 257
 872.5 954 l 257
1690.5 976 m 257
 1690.5 650 l 257
 1890.5 650 l 257
 1890.5 976 l 257
 1690.5 976 l 257
EndSplineSet
EndChar

StartChar: registered
Encoding: 174 174 278
GlifName: registered
Width: 2048
VWidth: 0
Flags: HW
HStem: 801 8<977 977 977 1047>
LayerCount: 2
Fore
SplineSet
909 1032 m 257
 909 501 l 257
 977 501 l 257
 977 1032 l 257
 909 1032 l 257
934 1032 m 257
 934 963 l 257
 1163 963 l 257
 1163 1032 l 257
 934 1032 l 257
1103 1032 m 257
 1103 802 l 257
 1172 802 l 257
 1172 1032 l 257
 1103 1032 l 257
930 875 m 257
 930 801 l 257
 1168 801 l 257
 1168 875 l 257
 930 875 l 257
977 809 m 257
 1116 500 l 257
 1199 500 l 257
 1047 809 l 257
 977 809 l 257
153 1540 m 257
 153 0 l 257
 354 0 l 257
 354 1540 l 257
 153 1540 l 257
1692 1537 m 257
 1692 0 l 257
 1895 0 l 257
 1895 1537 l 257
 1692 1537 l 257
294 1538 m 257
 294 1337 l 257
 1737 1337 l 257
 1737 1538 l 257
 294 1538 l 257
270 204 m 257
 270 0 l 257
 1743 0 l 257
 1743 204 l 257
 270 204 l 257
EndSplineSet
PickledDataWithLists: "(dp0
Vcom.fontlab.hintData
p1
(dp2
Vhhints
p3
(lp4
(dp5
Vposition
p6
I801
sVwidth
p7
I8
sass."
EndChar

StartChar: ring
Encoding: 730 730 279
GlifName: ring
Width: 2048
VWidth: 0
Flags: HW
LayerCount: 2
Fore
SplineSet
949 1252.5 m 257
 1097 1252.5 l 257
 1097 1122.5 l 257
 949 1122.5 l 257
 949 1252.5 l 257
844 1343 m 257
 844 1034 l 257
 1204 1034 l 257
 1204 1343 l 257
 844 1343 l 257
EndSplineSet
EndChar

StartChar: s
Encoding: 115 115 280
GlifName: s
Width: 2048
VWidth: 0
Flags: HW
LayerCount: 2
Fore
SplineSet
219 1024 m 257
 220 822 l 257
 1829 826 l 257
 1828 1024 l 257
 219 1024 l 257
219 1024 m 257
 220 736 l 257
 420 736 l 257
 419 1024 l 257
 219 1024 l 257
220 200 m 257
 219 1 l 257
 1826 0 l 257
 1825 201 l 257
 220 200 l 257
1624 292 m 257
 1627 12 l 257
 1826 12 l 257
 1824 293 l 257
 1624 292 l 257
220 736 m 257
 1624 292 l 257
 1824 293 l 257
 420 736 l 257
 220 736 l 257
EndSplineSet
EndChar

StartChar: section
Encoding: 167 167 285
GlifName: section
Width: 2048
VWidth: 0
Flags: HW
HStem: 88 7<1213.5 1405.5 1405.5 1405.5>
LayerCount: 2
Fore
SplineSet
633.5 1238 m 257
 633.5 1035 l 257
 1231.5 1035 l 257
 1231.5 1238 l 257
 633.5 1238 l 257
633.5 1241 m 257
 633.5 605 l 257
 835.5 605 l 257
 835.5 1241 l 257
 633.5 1241 l 257
670.5 -61 m 257
 670.5 -260 l 257
 1378.5 -260 l 257
 1378.5 -61 l 257
 670.5 -61 l 257
1213.5 -259 m 257
 1414.5 -259 l 257
 1414.5 95 l 257
 1213.5 95 l 257
 1213.5 -259 l 257
633.5 605 m 257
 1213.5 95 l 257
 1414.5 95 l 257
 835.5 605 l 257
 633.5 605 l 257
633.5 1626 m 257
 633.5 1423 l 257
 1231.5 1423 l 257
 1231.5 1626 l 257
 633.5 1626 l 257
633.5 1629 m 257
 633.5 1237 l 257
 835.5 1237 l 257
 835.5 1629 l 257
 633.5 1629 l 257
661.5 286 m 257
 661.5 87 l 257
 1369.5 87 l 257
 1369.5 286 l 257
 661.5 286 l 257
1204.5 88 m 257
 1405.5 88 l 257
 1405.5 442 l 257
 1204.5 442 l 257
 1204.5 88 l 257
633.5 1237 m 257
 1204.5 442 l 257
 1405.5 442 l 257
 835.5 1237 l 257
 633.5 1237 l 257
EndSplineSet
PickledDataWithLists: "(dp0
Vcom.fontlab.hintData
p1
(dp2
Vhhints
p3
(lp4
(dp5
Vposition
p6
I88
sVwidth
p7
I7
sass."
EndChar

StartChar: semicolon
Encoding: 59 59 286
GlifName: semicolon
Width: 2048
VWidth: 0
Flags: HW
LayerCount: 2
Fore
SplineSet
911.5 430 m 257
 911.5 201 l 257
 1159.5 201 l 257
 1159.5 430 l 257
 911.5 430 l 257
1010.5 328 m 257
 892.5 47 l 257
 1035.5 -13 l 257
 1157.5 197 l 257
 1010.5 328 l 257
888.5 871 m 257
 888.5 624 l 257
 1153.5 624 l 257
 1153.5 871 l 257
 888.5 871 l 257
EndSplineSet
PickledDataWithLists: "(dp0
."
EndChar

StartChar: seven
Encoding: 55 55 287
GlifName: seven
Width: 2048
VWidth: 0
Flags: HW
HStem: 867 56 1418 223
VStem: 751 219
LayerCount: 2
Fore
SplineSet
54 1355 m 257
 1788 1355 l 257
 1796 0 l 257
 1994 0 l 257
 1991 1557 l 257
 54 1554 l 257
 54 1355 l 257
EndSplineSet
PickledDataWithLists: "(dp0
Vcom.fontlab.hintData
p1
(dp2
Vhhints
p3
(lp4
(dp5
Vposition
p6
I867
sVwidth
p7
I56
sa(dp8
g6
I1418
sg7
I223
sasVvhints
p9
(lp10
(dp11
g6
I751
sg7
I219
sass."
EndChar

StartChar: six
Encoding: 54 54 288
GlifName: six
Width: 2048
VWidth: 0
Flags: HW
HStem: 8 193 51 150 759 65 888 98 1418 223 1418 182
VStem: 52 198 772 204
LayerCount: 2
Fore
SplineSet
41 1548 m 257
 51.5 201 l 257
 52 0 l 257
 2001 4 l 257
 2004 959 l 257
 244 960 l 257
 244 1348 l 257
 2009 1348 l 257
 2009 1548 l 257
 41 1548 l 257
1796.5 759 m 257
 1797 203 l 257
 250 203 l 257
 249.5 759 l 257
 1796.5 759 l 257
EndSplineSet
PickledDataWithLists: "(dp0
Vcom.fontlab.hintData
p1
(dp2
Vhhints
p3
(lp4
(dp5
Vposition
p6
I8
sVwidth
p7
I193
sa(dp8
g6
I51
sg7
I150
sa(dp9
g6
I759
sg7
I65
sa(dp10
g6
I888
sg7
I98
sa(dp11
g6
I1418
sg7
I223
sa(dp12
g6
I1418
sg7
I182
sasVvhints
p13
(lp14
(dp15
g6
I52
sg7
I198
sa(dp16
g6
I772
sg7
I204
sass."
EndChar

StartChar: slash
Encoding: 47 47 289
GlifName: slash
Width: 2048
VWidth: 0
Flags: HW
LayerCount: 2
Fore
SplineSet
1215 1483 m 257
 645 6 l 257
 833 -67 l 257
 1403 1410 l 257
 1215 1483 l 257
EndSplineSet
PickledDataWithLists: "(dp0
."
EndChar

StartChar: sterling
Encoding: 163 163 291
GlifName: sterling
Width: 2048
VWidth: 0
Flags: HW
LayerCount: 2
Fore
SplineSet
934 1543 m 257
 934 1344 l 257
 1225 1344 l 257
 1225 1543 l 257
 934 1543 l 257
607 770 m 257
 607 571 l 257
 1333 571 l 257
 1333 770 l 257
 607 770 l 257
890 1542 m 257
 890 3 l 257
 1088 3 l 257
 1088 1542 l 257
 890 1542 l 257
715 202 m 257
 715 3 l 257
 1441 3 l 257
 1441 202 l 257
 715 202 l 257
EndSplineSet
EndChar

StartChar: t
Encoding: 116 116 292
GlifName: t
Width: 2048
VWidth: 0
Flags: HW
LayerCount: 2
Fore
SplineSet
922.5 1545 m 257
 922.5 1 l 257
 1123.5 1 l 257
 1122.5 1545 l 257
 922.5 1545 l 257
930.5 199 m 257
 930.5 0 l 257
 1821.5 0 l 257
 1821.5 199 l 257
 930.5 199 l 257
186.5 1024 m 257
 187.5 824 l 257
 1861.5 824 l 257
 1860.5 1025 l 257
 186.5 1024 l 257
EndSplineSet
EndChar

StartChar: tcaron
Encoding: 357 357 293
GlifName: tcaron
Width: 2048
VWidth: 0
Flags: HW
LayerCount: 2
Fore
SplineSet
342 1529 m 257
 342 0 l 257
 543 0 l 257
 543 1529 l 257
 342 1529 l 257
495 199 m 257
 495 0 l 257
 886 0 l 257
 886 199 l 257
 495 199 l 257
70 1025 m 257
 70 824 l 257
 849 824 l 257
 849 1025 l 257
 70 1025 l 257
672 1496 m 257
 672 1291 l 257
 802 1291 l 257
 802 1496 l 257
 672 1496 l 257
EndSplineSet
EndChar

StartChar: thorn
Encoding: 254 254 294
GlifName: thorn
Width: 2048
VWidth: 0
Flags: HW
LayerCount: 2
Fore
SplineSet
173 1034 m 257
 173 -406 l 257
 373 -406 l 257
 373 1034 l 257
 173 1034 l 257
360 667 m 257
 360 468 l 257
 1940 468 l 257
 1940 667 l 257
 360 667 l 257
368 6 m 257
 368 -195 l 257
 1938 -195 l 257
 1938 6 l 257
 368 6 l 257
1740 600 m 257
 1740 -101 l 257
 1938 -104 l 257
 1938 597 l 257
 1740 600 l 257
EndSplineSet
EndChar

StartChar: three
Encoding: 51 51 295
GlifName: three
Width: 2048
VWidth: 0
Flags: HW
HStem: -8 250 200 42 736 20 964 37 1403 237
VStem: 756 207 756 89
LayerCount: 2
Fore
SplineSet
100.5 736 m 257
 1783 736 l 257
 1783 192 l 257
 59 192 l 257
 68.5 -8 l 257
 1980.5 -8 l 257
 1987 1553 l 257
 89 1553 l 257
 89 1353 l 257
 1781 1353 l 257
 1781 936 l 257
 101 936 l 257
 100.5 736 l 257
EndSplineSet
PickledDataWithLists: "(dp0
Vcom.fontlab.hintData
p1
(dp2
Vhhints
p3
(lp4
(dp5
Vposition
p6
I-8
sVwidth
p7
I250
sa(dp8
g6
I200
sg7
I42
sa(dp9
g6
I736
sg7
I20
sa(dp10
g6
I964
sg7
I37
sa(dp11
g6
I1403
sg7
I237
sasVvhints
p12
(lp13
(dp14
g6
I756
sg7
I207
sa(dp15
g6
I756
sg7
I89
sass."
EndChar

StartChar: threequarters
Encoding: 190 190 296
GlifName: threequarters
Width: 2048
VWidth: 0
Flags: HW
HStem: -4 8 298 23 347 42 369 19 915 100 998 17 1212 8 1304 15 1479 95
VStem: 603 36 603 83 890 81 1144 84
LayerCount: 2
Fore
SplineSet
1388 1483 m 257
 212 6 l 257
 600 -67 l 257
 1776 1410 l 257
 1388 1483 l 257
96 1272 m 257
 670 1272 l 257
 670 1084 l 257
 59 1084 l 257
 67 1015 l 257
 841 1015 l 257
 847 1553 l 257
 86 1553 l 257
 86 1484 l 257
 668 1484 l 257
 668 1340 l 257
 96 1340 l 257
 96 1272 l 257
1264 340 m 257
 1811 340 l 257
 1811 7 l 257
 1984 7 l 257
 1978 687 l 257
 1809 687 l 257
 1809 428 l 257
 1433 428 l 257
 1433 689 l 257
 1264 689 l 257
 1264 340 l 257
EndSplineSet
PickledDataWithLists: "(dp0
Vcom.fontlab.hintData
p1
(dp2
Vhhints
p3
(lp4
(dp5
Vposition
p6
I-4
sVwidth
p7
I8
sa(dp8
g6
I298
sg7
I23
sa(dp9
g6
I347
sg7
I42
sa(dp10
g6
I369
sg7
I19
sa(dp11
g6
I915
sg7
I100
sa(dp12
g6
I998
sg7
I17
sa(dp13
g6
I1212
sg7
I8
sa(dp14
g6
I1304
sg7
I15
sa(dp15
g6
I1479
sg7
I95
sasVvhints
p16
(lp17
(dp18
g6
I603
sg7
I36
sa(dp19
g6
I603
sg7
I83
sa(dp20
g6
I890
sg7
I81
sa(dp21
g6
I1144
sg7
I84
sass."
EndChar

StartChar: tilde
Encoding: 732 732 297
GlifName: tilde
Width: 2048
VWidth: 0
Flags: HW
LayerCount: 2
Fore
SplineSet
858.5 781 m 257
 858.5 682 l 257
 1208.5 621 l 257
 1208.5 720 l 257
 858.5 781 l 257
620.5 723 m 257
 635.5 625 l 257
 858.5 682 l 257
 858.5 781 l 257
 620.5 723 l 257
1208.5 720 m 257
 1208.5 621 l 257
 1389.5 762 l 257
 1365.5 858 l 257
 1208.5 720 l 257
EndSplineSet
EndChar

StartChar: tildecomb
Encoding: 771 771 298
GlifName: tildecomb
Width: 2048
VWidth: 0
Flags: HW
LayerCount: 2
Fore
SplineSet
877.5 2015 m 257
 877.5 1916 l 257
 1227.5 1855 l 257
 1227.5 1954 l 257
 877.5 2015 l 257
639.5 1957 m 257
 654.5 1859 l 257
 877.5 1916 l 257
 877.5 2015 l 257
 639.5 1957 l 257
1227.5 1954 m 257
 1227.5 1855 l 257
 1408.5 1996 l 257
 1384.5 2092 l 257
 1227.5 1954 l 257
EndSplineSet
EndChar

StartChar: two
Encoding: 50 50 300
GlifName: two
Width: 2048
VWidth: 0
Flags: HW
HStem: 0 259 130 129 751 273 1433 207
VStem: 14 304 312 6 780 41 780 15
LayerCount: 2
Fore
SplineSet
109 1344 m 257
 1742 1344 l 257
 1742 908 l 257
 116 908 l 257
 116 0 l 257
 1928 0 l 257
 1928 200 l 257
 319 202 l 257
 319 706 l 257
 1942 707 l 257
 1942 1544 l 257
 109 1544 l 257
 109 1344 l 257
EndSplineSet
PickledDataWithLists: "(dp0
Vcom.fontlab.hintData
p1
(dp2
Vhhints
p3
(lp4
(dp5
Vposition
p6
I0
sVwidth
p7
I259
sa(dp8
g6
I130
sg7
I129
sa(dp9
g6
I751
sg7
I273
sa(dp10
g6
I1433
sg7
I207
sasVvhints
p11
(lp12
(dp13
g6
I14
sg7
I304
sa(dp14
g6
I312
sg7
I6
sa(dp15
g6
I780
sg7
I41
sa(dp16
g6
I780
sg7
I15
sass."
EndChar

StartChar: u
Encoding: 117 117 301
GlifName: u
Width: 2048
VWidth: 0
Flags: HW
LayerCount: 2
Fore
SplineSet
149.5 1024 m 257
 149.5 0 l 257
 348.5 0 l 257
 350.5 1024 l 257
 149.5 1024 l 257
1381.5 1026 m 257
 1381.5 4 l 257
 1582.5 4 l 257
 1581.5 1026 l 257
 1381.5 1026 l 257
196.5 200 m 257
 197.5 0 l 257
 1898.5 0 l 257
 1898.5 200 l 257
 196.5 200 l 257
EndSplineSet
EndChar

StartChar: underscore
Encoding: 95 95 309
GlifName: underscore
Width: 2048
VWidth: 0
Flags: HW
LayerCount: 2
Fore
SplineSet
-0.5 -5 m 257
 -4.5 -71 l 257
 2048.5 -71 l 257
 2052.5 -5 l 257
 -0.5 -5 l 257
EndSplineSet
EndChar

StartChar: uni00B2
Encoding: 178 178 311
GlifName: uni00B_2
Width: 2048
VWidth: 0
Flags: HW
HStem: 892 104 944 52 1192 109 1465 83
VStem: 620 122 739 2 926 6 926 16
LayerCount: 2
Fore
SplineSet
385 1455 m 257
 1275 1455 l 257
 1275 1259 l 257
 394 1259 l 257
 394 851 l 257
 1361 851 l 257
 1361 940 l 257
 514 942 l 257
 514 1167 l 257
 1381 1168 l 257
 1381 1544 l 257
 385 1544 l 257
 385 1455 l 257
EndSplineSet
PickledDataWithLists: "(dp0
Vcom.fontlab.hintData
p1
(dp2
Vhhints
p3
(lp4
(dp5
Vposition
p6
I892
sVwidth
p7
I104
sa(dp8
g6
I944
sg7
I52
sa(dp9
g6
I1192
sg7
I109
sa(dp10
g6
I1465
sg7
I83
sasVvhints
p11
(lp12
(dp13
g6
I620
sg7
I122
sa(dp14
g6
I739
sg7
I2
sa(dp15
g6
I926
sg7
I6
sa(dp16
g6
I926
sg7
I16
sass."
EndChar

StartChar: uni00B3
Encoding: 179 179 312
GlifName: uni00B_3
Width: 2048
VWidth: 0
Flags: HW
HStem: 887 100 970 17 1184 8 1276 15 1451 95
VStem: 916 36 916 83
LayerCount: 2
Fore
SplineSet
456 1184 m 257
 1408 1184 l 257
 1408 938 l 257
 432 938 l 257
 437 849 l 257
 1520 849 l 257
 1524 1553 l 257
 449 1553 l 257
 449 1463 l 257
 1407 1463 l 257
 1407 1275 l 257
 456 1275 l 257
 456 1184 l 257
EndSplineSet
PickledDataWithLists: "(dp0
Vcom.fontlab.hintData
p1
(dp2
Vhhints
p3
(lp4
(dp5
Vposition
p6
I887
sVwidth
p7
I100
sa(dp8
g6
I970
sg7
I17
sa(dp9
g6
I1184
sg7
I8
sa(dp10
g6
I1276
sg7
I15
sa(dp11
g6
I1451
sg7
I95
sasVvhints
p12
(lp13
(dp14
g6
I916
sg7
I36
sa(dp15
g6
I916
sg7
I83
sass."
EndChar

StartChar: uni00B9
Encoding: 185 185 313
GlifName: uni00B_9
Width: 2048
VWidth: 0
Flags: HW
VStem: 762 110
LayerCount: 2
Fore
SplineSet
1022 889 m 257
 1102 889 l 257
 1102 1551 l 257
 1022 1551 l 257
 1022 889 l 257
1023 1549 m 257
 940 1399 l 257
 1003 1349 l 257
 1086 1499 l 257
 1023 1549 l 257
EndSplineSet
PickledDataWithLists: "(dp0
Vcom.fontlab.hintData
p1
(dp2
Vvhints
p3
(lp4
(dp5
Vposition
p6
I762
sVwidth
p7
I110
sass."
EndChar

StartChar: uni0123
Encoding: 291 291 315
GlifName: uni0123
Width: 2048
VWidth: 0
Flags: HW
LayerCount: 2
Fore
SplineSet
297 1024 m 257
 297 0 l 257
 489 0 l 257
 489 1024 l 257
 297 1024 l 257
337 1024 m 257
 337 823 l 257
 1877 823 l 257
 1877 1024 l 257
 337 1024 l 257
1705 1024 m 257
 1705 -411 l 257
 1899 -411 l 257
 1899 1024 l 257
 1705 1024 l 257
360 198 m 257
 360 -1 l 257
 1841 -1 l 257
 1841 198 l 257
 360 198 l 257
291 -214 m 257
 291 -413 l 257
 1850 -413 l 257
 1850 -214 l 257
 291 -214 l 257
959 1496 m 257
 959 1198 l 257
 1089 1198 l 257
 1089 1496 l 257
 959 1496 l 257
EndSplineSet
EndChar

StartChar: uni0192
Encoding: 402 402 326
GlifName: uni0192
Width: 2048
VWidth: 0
Flags: HW
LayerCount: 2
Fore
SplineSet
763 1025 m 257
 763 -406 l 257
 963 -406 l 257
 963 1025 l 257
 763 1025 l 257
825 1025 m 257
 825 831 l 257
 1603 831 l 257
 1603 1025 l 257
 825 1025 l 257
229 559 m 257
 229 356 l 257
 1506 356 l 257
 1506 559 l 257
 229 559 l 257
167 -201 m 257
 167 -404 l 257
 965 -404 l 257
 965 -201 l 257
 167 -201 l 257
EndSplineSet
PickledDataWithLists: "(dp0
."
EndChar

StartChar: uni0237
Encoding: 567 567 331
GlifName: uni0237
Width: 2048
VWidth: 0
Flags: HW
LayerCount: 2
Fore
SplineSet
1639.5 1024 m 257
 1639.5 -411 l 257
 1838.5 -411 l 257
 1838.5 1024 l 257
 1639.5 1024 l 257
209.5 -209 m 257
 209.5 -409 l 257
 1739.5 -409 l 257
 1739.5 -209 l 257
 209.5 -209 l 257
210.5 -6 m 257
 210.5 -351 l 257
 410.5 -351 l 257
 410.5 -6 l 257
 210.5 -6 l 257
EndSplineSet
EndChar

StartChar: uni02C9
Encoding: 713 713 332
GlifName: uni02C_9
Width: 2048
VWidth: 0
Flags: HW
LayerCount: 2
Fore
SplineSet
744 1630 m 257
 744 1552 l 257
 1304 1552 l 257
 1304 1630 l 257
 744 1630 l 257
EndSplineSet
EndChar

StartChar: uni02CA
Encoding: 714 714 333
GlifName: uni02C_A_
Width: 2048
VWidth: 0
Flags: HW
LayerCount: 2
Fore
SplineSet
1044.5 2180 m 257
 914.5 1926 l 257
 1002.5 1880 l 257
 1133.5 2135 l 257
 1044.5 2180 l 257
EndSplineSet
EndChar

StartChar: uni02CB
Encoding: 715 715 334
GlifName: uni02C_B_
Width: 2048
VWidth: 0
Flags: HW
LayerCount: 2
Fore
SplineSet
918.5 2107 m 257
 1038.5 1871 l 257
 1129.5 1917 l 257
 1010.5 2154 l 257
 918.5 2107 l 257
EndSplineSet
EndChar

StartChar: uni0302
Encoding: 770 770 335
GlifName: uni0302
Width: 2048
VWidth: 0
Flags: HW
LayerCount: 2
Fore
SplineSet
1062 2300 m 257
 987 2300 l 257
 855 1992 l 257
 930 1960 l 257
 1062 2300 l 257
990 2240 m 257
 1118 1960 l 257
 1193 1988 l 257
 1062 2300 l 257
 990 2240 l 257
EndSplineSet
EndChar

StartChar: uni0304
Encoding: 772 772 336
GlifName: uni0304
Width: 2048
VWidth: 0
Flags: HW
LayerCount: 2
Fore
SplineSet
744 1630 m 257
 744 1552 l 257
 1304 1552 l 257
 1304 1630 l 257
 744 1630 l 257
EndSplineSet
EndChar

StartChar: uni0306
Encoding: 774 774 337
GlifName: uni0306
Width: 2048
VWidth: 0
Flags: HW
LayerCount: 2
Fore
SplineSet
1189 1552 m 257
 1189 1480 l 257
 1354 1552 l 257
 1354 1645 l 257
 1189 1552 l 257
865 1550 m 257
 864 1480 l 257
 1189 1480 l 257
 1189 1552 l 257
 865 1550 l 257
694 1630 m 257
 694 1552 l 257
 864 1480 l 257
 865 1550 l 257
 694 1630 l 257
EndSplineSet
EndChar

StartChar: uni0307
Encoding: 775 775 338
GlifName: uni0307
Width: 2048
VWidth: 0
Flags: HW
LayerCount: 2
Fore
SplineSet
968 1738 m 257
 968 1637 l 257
 1080 1637 l 257
 1080 1738 l 257
 968 1738 l 257
EndSplineSet
EndChar

StartChar: uni0308
Encoding: 776 776 339
GlifName: uni0308
Width: 2048
VWidth: 0
Flags: HW
LayerCount: 2
Fore
SplineSet
813 1600 m 257
 813 1499 l 257
 925 1499 l 257
 925 1600 l 257
 813 1600 l 257
1055 1600 m 257
 1055 1499 l 257
 1167 1499 l 257
 1167 1600 l 257
 1055 1600 l 257
EndSplineSet
EndChar

StartChar: uni030A
Encoding: 778 778 340
GlifName: uni030A_
Width: 2048
VWidth: 0
Flags: HW
LayerCount: 2
Fore
SplineSet
949 1756.5 m 257
 1097 1756.5 l 257
 1097 1626.5 l 257
 949 1626.5 l 257
 949 1756.5 l 257
844 1847 m 257
 844 1538 l 257
 1204 1538 l 257
 1204 1847 l 257
 844 1847 l 257
EndSplineSet
EndChar

StartChar: uni030C
Encoding: 780 780 342
GlifName: uni030C_
Width: 2048
VWidth: 0
Flags: HW
LayerCount: 2
Fore
SplineSet
1143 1364 m 257
 1055 1645 l 257
 1005 1620 l 257
 1093 1363 l 257
 1143 1364 l 257
1095 1413 m 257
 1143 1364 l 257
 1231 1622 l 257
 1180 1646 l 257
 1095 1413 l 257
EndSplineSet
EndChar

StartChar: uni0326
Encoding: 806 806 343
GlifName: uni0326
Width: 2048
VWidth: 0
Flags: HW
LayerCount: 2
Fore
SplineSet
909.5 -1 m 257
 909.5 -230 l 257
 1157.5 -230 l 257
 1157.5 -1 l 257
 909.5 -1 l 257
1008.5 -103 m 257
 890.5 -384 l 257
 1033.5 -444 l 257
 1155.5 -234 l 257
 1008.5 -103 l 257
EndSplineSet
EndChar

StartChar: uni0327
Encoding: 807 807 344
GlifName: uni0327
Width: 2048
VWidth: 0
Flags: HW
LayerCount: 2
Fore
SplineSet
800.5 180 m 257
 800.5 -144 l 257
 956.5 -144 l 257
 956.5 180 l 257
 800.5 180 l 257
801.5 -288 m 257
 801.5 -408 l 257
 1247.5 -408 l 257
 1247.5 -288 l 257
 801.5 -288 l 257
1095.5 0 m 257
 1095.5 -372 l 257
 1247.5 -372 l 257
 1247.5 0 l 257
 1095.5 0 l 257
801.5 0 m 257
 801.5 -156 l 257
 1247.5 -156 l 257
 1247.5 0 l 257
 801.5 0 l 257
EndSplineSet
EndChar

StartChar: uni0328
Encoding: 808 808 345
GlifName: uni0328
Width: 2048
VWidth: 0
Flags: HW
LayerCount: 2
Fore
SplineSet
753 -288 m 257
 753 -410 l 257
 1295 -410 l 257
 1295 -288 l 257
 753 -288 l 257
753 0 m 257
 753 -410 l 257
 871 -410 l 257
 871 0 l 257
 753 0 l 257
753 0 m 257
 753 -121 l 257
 1295 -121 l 257
 1295 0 l 257
 753 0 l 257
EndSplineSet
EndChar

StartChar: uni0900
Encoding: 2304 2304 346
GlifName: uni0900
Width: 2048
VWidth: 0
Flags: HW
LayerCount: 2
Fore
SplineSet
113.5 2124 m 257
 113.5 1639 l 257
 312.5 1639 l 257
 312.5 2124 l 257
 113.5 2124 l 257
159.5 2126 m 257
 159.5 1925 l 257
 1793.5 1925 l 257
 1793.5 2126 l 257
 159.5 2126 l 257
1717.5 2127 m 257
 1717.5 1636 l 257
 1917.5 1636 l 257
 1917.5 2127 l 257
 1717.5 2127 l 257
414.5 1865 m 257
 414.5 1665 l 257
 1614.5 1665 l 257
 1614.5 1865 l 257
 414.5 1865 l 257
-4.5 1546 m 257
 -0.5 1347 l 257
 2052.5 1347 l 257
 2048.5 1546 l 257
 -4.5 1546 l 257
EndSplineSet
EndChar

StartChar: uni0901
Encoding: 2305 2305 347
GlifName: uni0901
Width: 2048
VWidth: 0
Flags: HW
LayerCount: 2
Fore
SplineSet
154.5 2124 m 257
 154.5 1639 l 257
 353.5 1639 l 257
 353.5 2124 l 257
 154.5 2124 l 257
200.5 1842 m 257
 200.5 1641 l 257
 1834.5 1641 l 257
 1834.5 1842 l 257
 200.5 1842 l 257
1758.5 2132 m 257
 1758.5 1641 l 257
 1958.5 1641 l 257
 1958.5 2132 l 257
 1758.5 2132 l 257
456.5 2095 m 257
 456.5 1895 l 257
 1656.5 1895 l 257
 1656.5 2095 l 257
 456.5 2095 l 257
-2.5 1546 m 257
 -2.5 1347 l 257
 2050.5 1347 l 257
 2050.5 1546 l 257
 -2.5 1546 l 257
EndSplineSet
EndChar

StartChar: uni0902
Encoding: 2306 2306 348
GlifName: uni0902
Width: 2048
VWidth: 0
Flags: HW
LayerCount: 2
Fore
SplineSet
925.5 1949 m 257
 925.5 1749 l 257
 1125.5 1749 l 257
 1125.5 1949 l 257
 925.5 1949 l 257
-2.5 1546 m 257
 -2.5 1347 l 257
 2050.5 1347 l 257
 2050.5 1546 l 257
 -2.5 1546 l 257
EndSplineSet
EndChar

StartChar: uni0903
Encoding: 2307 2307 349
GlifName: uni0903
Width: 2048
VWidth: 0
Flags: HW
LayerCount: 2
Fore
SplineSet
924 649 m 257
 924 449 l 257
 1124 449 l 257
 1124 649 l 257
 924 649 l 257
924 1317 m 257
 924 1117 l 257
 1124 1117 l 257
 1124 1317 l 257
 924 1317 l 257
EndSplineSet
EndChar

StartChar: uni0904
Encoding: 2308 2308 350
GlifName: uni0904
Width: 2048
VWidth: 0
Flags: HW
LayerCount: 2
Fore
SplineSet
765.5 2155 m 257
 765.5 1836 l 257
 963.5 1836 l 257
 963.5 2155 l 257
 765.5 2155 l 257
764.5 1967 m 257
 764.5 1768 l 257
 1935.5 1768 l 257
 1935.5 1967 l 257
 764.5 1967 l 257
1736.5 1956 m 257
 1736.5 1516 l 257
 1937.5 1516 l 257
 1937.5 1956 l 257
 1736.5 1956 l 257
1703.5 1543 m 257
 1703.5 1343 l 257
 2035.5 1343 l 257
 2035.5 1543 l 257
 1703.5 1543 l 257
1764.5 1419 m 257
 1764.5 1 l 257
 1963.5 1 l 257
 1963.5 1419 l 257
 1764.5 1419 l 257
37.5 1547 m 257
 37.5 1348 l 257
 1072.5 1348 l 257
 1072.5 1547 l 257
 37.5 1547 l 257
898.5 1550 m 257
 898.5 140 l 257
 1098.5 140 l 257
 1098.5 1550 l 257
 898.5 1550 l 257
121.5 894 m 257
 121.5 693 l 257
 1818.5 693 l 257
 1818.5 894 l 257
 121.5 894 l 257
12.5 201 m 257
 12.5 1 l 257
 1098.5 1 l 257
 1098.5 201 l 257
 12.5 201 l 257
EndSplineSet
EndChar

StartChar: uni0905
Encoding: 2309 2309 351
GlifName: a-deva
Width: 2048
VWidth: 0
Flags: HW
LayerCount: 2
Fore
SplineSet
1656.5 1543 m 257
 1656.5 1343 l 257
 2035.5 1343 l 257
 2035.5 1543 l 257
 1656.5 1543 l 257
1799.5 1419 m 257
 1799.5 1 l 257
 1998.5 1 l 257
 1998.5 1419 l 257
 1799.5 1419 l 257
37.5 1547 m 257
 37.5 1348 l 257
 1072.5 1348 l 257
 1072.5 1547 l 257
 37.5 1547 l 257
898.5 1550 m 257
 898.5 140 l 257
 1098.5 140 l 257
 1098.5 1550 l 257
 898.5 1550 l 257
121.5 894 m 257
 121.5 693 l 257
 1853.5 693 l 257
 1853.5 894 l 257
 121.5 894 l 257
12.5 201 m 257
 12.5 1 l 257
 1098.5 1 l 257
 1098.5 201 l 257
 12.5 201 l 257
EndSplineSet
EndChar

StartChar: uni0906
Encoding: 2310 2310 352
GlifName: aa-deva
Width: 2048
VWidth: 0
Flags: HW
LayerCount: 2
Fore
SplineSet
1328 1548 m 257
 1328 1343 l 257
 2048 1343 l 257
 2048 1548 l 257
 1328 1548 l 257
1344 1419 m 257
 1344 1 l 257
 1543 1 l 257
 1543 1419 l 257
 1344 1419 l 257
25 1548 m 257
 25 1348 l 257
 897 1348 l 257
 897 1548 l 257
 25 1548 l 257
723 1548 m 257
 723 140 l 257
 923 140 l 257
 923 1548 l 257
 723 1548 l 257
109 894 m 257
 109 693 l 257
 1443 693 l 257
 1443 894 l 257
 109 894 l 257
0 201 m 257
 0 1 l 257
 923 1 l 257
 923 201 l 257
 0 201 l 257
1843 1420 m 257
 1843 2 l 257
 2042 2 l 257
 2042 1420 l 257
 1843 1420 l 257
EndSplineSet
PickledDataWithLists: "(dp0
."
EndChar

StartChar: uni0907
Encoding: 2311 2311 353
GlifName: uni0907
Width: 2048
VWidth: 0
Flags: HW
LayerCount: 2
Fore
SplineSet
-6 1556 m 257
 -6 1355 l 257
 2054 1355 l 257
 2054 1556 l 257
 -6 1556 l 257
1064 1553 m 257
 1064 1110 l 257
 1264 1110 l 257
 1264 1553 l 257
 1064 1553 l 257
171 1205 m 257
 171 1004 l 257
 1264 1004 l 257
 1264 1205 l 257
 171 1205 l 257
171 1181 m 257
 171 738 l 257
 341 738 l 257
 341 1181 l 257
 171 1181 l 257
171 881 m 257
 171 681 l 257
 1278 681 l 257
 1278 881 l 257
 171 881 l 257
1157 881 m 257
 1157 285 l 257
 1356 285 l 257
 1356 881 l 257
 1157 881 l 257
149 298 m 257
 149 97 l 257
 1359 97 l 257
 1359 298 l 257
 149 298 l 257
265 298 m 257
 265 -244 l 257
 465 -244 l 257
 465 298 l 257
 265 298 l 257
EndSplineSet
EndChar

StartChar: uni0908
Encoding: 2312 2312 354
GlifName: uni0908
Width: 2048
VWidth: 0
Flags: HW
LayerCount: 2
Fore
SplineSet
-6 1556 m 257
 -6 1355 l 257
 2054 1355 l 257
 2054 1556 l 257
 -6 1556 l 257
1064 1553 m 257
 1064 1110 l 257
 1264 1110 l 257
 1264 1553 l 257
 1064 1553 l 257
171 1205 m 257
 171 1004 l 257
 1264 1004 l 257
 1264 1205 l 257
 171 1205 l 257
171 1181 m 257
 171 738 l 257
 371 738 l 257
 371 1181 l 257
 171 1181 l 257
171 881 m 257
 171 681 l 257
 1278 681 l 257
 1278 881 l 257
 171 881 l 257
1175 881 m 257
 1175 285 l 257
 1356 285 l 257
 1356 881 l 257
 1175 881 l 257
149 298 m 257
 149 97 l 257
 1359 97 l 257
 1359 298 l 257
 149 298 l 257
265 298 m 257
 265 -244 l 257
 488 -244 l 257
 488 298 l 257
 265 298 l 257
274 1770 m 257
 1033 1423 l 257
 1196 1539 l 257
 436 1886 l 257
 274 1770 l 257
EndSplineSet
EndChar

StartChar: uni0909
Encoding: 2313 2313 355
GlifName: uni0909
Width: 2048
VWidth: 0
Flags: HW
LayerCount: 2
Fore
SplineSet
-2 1548 m 257
 -2 1349 l 257
 2050 1349 l 257
 2050 1548 l 257
 -2 1548 l 257
894 1530 m 257
 894 1001 l 257
 1093 1001 l 257
 1093 1530 l 257
 894 1530 l 257
237 1044 m 257
 237 845 l 257
 1591 845 l 257
 1591 1044 l 257
 237 1044 l 257
1392 994 m 257
 1392 8 l 257
 1592 8 l 257
 1592 994 l 257
 1392 994 l 257
132 201 m 257
 132 2 l 257
 1581 2 l 257
 1581 201 l 257
 132 201 l 257
132 363 m 257
 132 36 l 257
 332 36 l 257
 332 363 l 257
 132 363 l 257
EndSplineSet
EndChar

StartChar: uni090A
Encoding: 2314 2314 356
GlifName: uni090A_
Width: 2048
VWidth: 0
Flags: HW
LayerCount: 2
Fore
SplineSet
-6.5 1548 m 257
 -6.5 1349 l 257
 2054.5 1349 l 257
 2054.5 1548 l 257
 -6.5 1548 l 257
817.5 1530 m 257
 817.5 1001 l 257
 1016.5 1001 l 257
 1016.5 1530 l 257
 817.5 1530 l 257
148.5 1044 m 257
 148.5 845 l 257
 1871.5 845 l 257
 1871.5 1044 l 257
 148.5 1044 l 257
1184.5 994 m 257
 1184.5 11 l 257
 1384.5 11 l 257
 1384.5 994 l 257
 1184.5 994 l 257
43.5 204 m 257
 43.5 5 l 257
 1381.5 5 l 257
 1381.5 204 l 257
 43.5 204 l 257
43.5 366 m 257
 43.5 39 l 257
 243.5 39 l 257
 243.5 366 l 257
 43.5 366 l 257
1672.5 946 m 257
 1672.5 217 l 257
 1871.5 217 l 257
 1871.5 946 l 257
 1672.5 946 l 257
EndSplineSet
EndChar

StartChar: uni090B
Encoding: 2315 2315 357
GlifName: uni090B_
Width: 2048
VWidth: 0
Flags: HW
LayerCount: 2
Fore
SplineSet
14 1546 m 257
 14 1347 l 257
 2028 1347 l 257
 2028 1546 l 257
 14 1546 l 257
1018 1533 m 257
 1018 0 l 257
 1217 0 l 257
 1217 1533 l 257
 1018 1533 l 257
28 1043 m 257
 28 844 l 257
 332 845 l 257
 332 1044 l 257
 28 1043 l 257
1017 496 m 257
 124 329 l 257
 206 136 l 257
 1099 303 l 257
 1017 496 l 257
332 1044 m 257
 332 846 l 257
 1104 742 l 257
 1114 944 l 257
 332 1044 l 257
1201 897 m 257
 1201 699 l 257
 2016 699 l 257
 2016 897 l 257
 1201 897 l 257
1694 897 m 257
 1694 262 l 257
 1893 262 l 257
 1893 897 l 257
 1694 897 l 257
1770 464 m 257
 1770 264 l 257
 2034 264 l 257
 2034 464 l 257
 1770 464 l 257
EndSplineSet
EndChar

StartChar: uni090C
Encoding: 2316 2316 358
GlifName: uni090C_
Width: 2048
VWidth: 0
Flags: HW
LayerCount: 2
Fore
SplineSet
-8 1551 m 257
 -8 1352 l 257
 2056 1352 l 257
 2056 1551 l 257
 -8 1551 l 257
1065 1551 m 257
 1065 689 l 257
 1265 689 l 257
 1265 1551 l 257
 1065 1551 l 257
1764 791 m 257
 50 791 l 257
 50 590 l 257
 1764 590 l 257
 1764 791 l 257
50 777 m 257
 50 252 l 257
 251 252 l 257
 251 777 l 257
 50 777 l 257
701 791 m 257
 701 433 l 257
 902 433 l 257
 902 791 l 257
 701 791 l 257
1553 792 m 257
 1553 73 l 257
 1753 73 l 257
 1753 792 l 257
 1553 792 l 257
1628 259 m 257
 1628 71 l 257
 2054 71 l 257
 2054 259 l 257
 1628 259 l 257
EndSplineSet
EndChar

StartChar: uni090D
Encoding: 2317 2317 359
GlifName: uni090D_
Width: 2048
VWidth: 0
Flags: HW
LayerCount: 2
Fore
SplineSet
-5 1550 m 257
 -5 1349 l 257
 2049 1349 l 257
 2049 1550 l 257
 -5 1550 l 257
1748 1545 m 257
 1752 779 l 257
 1947 779 l 257
 1947 1545 l 257
 1748 1545 l 257
1189 839 m 257
 1189 639 l 257
 1947 639 l 257
 1947 839 l 257
 1189 839 l 257
142 1542 m 257
 142 338 l 257
 341 338 l 257
 341 1542 l 257
 142 1542 l 257
142 496 m 257
 142 297 l 257
 1124 297 l 257
 1124 496 l 257
 142 496 l 257
925 358 m 257
 925 -98 l 257
 1124 -98 l 257
 1124 358 l 257
 925 358 l 257
387 101 m 257
 387 -98 l 257
 1122 -98 l 257
 1122 101 l 257
 387 101 l 257
157 2124 m 257
 157 1639 l 257
 356 1639 l 257
 356 2124 l 257
 157 2124 l 257
203 1840 m 257
 203 1641 l 257
 1816 1641 l 257
 1816 1840 l 257
 203 1840 l 257
1641 2132 m 257
 1641 1641 l 257
 1840 1641 l 257
 1840 2132 l 257
 1641 2132 l 257
EndSplineSet
EndChar

StartChar: uni090E
Encoding: 2318 2318 360
GlifName: uni090E_
Width: 2048
VWidth: 0
Flags: HW
LayerCount: 2
Fore
SplineSet
-5 1550 m 257
 -5 1351 l 257
 2049 1351 l 257
 2049 1550 l 257
 -5 1550 l 257
1748 1545 m 257
 1748 645 l 257
 1947 645 l 257
 1947 1545 l 257
 1748 1545 l 257
1221 845 m 257
 1221 645 l 257
 1947 645 l 257
 1947 845 l 257
 1221 845 l 257
142 1542 m 257
 142 338 l 257
 341 338 l 257
 341 1542 l 257
 142 1542 l 257
142 358 m 257
 142 159 l 257
 1117 159 l 257
 1117 358 l 257
 142 358 l 257
923 358 m 257
 923 -98 l 257
 1124 -98 l 257
 1124 358 l 257
 923 358 l 257
387 -38 m 257
 387 -238 l 257
 1122 -238 l 257
 1122 -38 l 257
 387 -38 l 257
270 2062 m 257
 270 1823 l 257
 470 1823 l 257
 470 2062 l 257
 270 2062 l 257
269 1868 m 257
 269 1667 l 257
 1971 1667 l 257
 1971 1868 l 257
 269 1868 l 257
1769 1858 m 257
 1769 1540 l 257
 1971 1540 l 257
 1971 1858 l 257
 1769 1858 l 257
EndSplineSet
EndChar

StartChar: uni090F
Encoding: 2319 2319 361
GlifName: uni090F_
Width: 2048
VWidth: 0
Flags: HW
LayerCount: 2
Fore
SplineSet
10.5 1548 m 257
 10.5 1348 l 257
 2037.5 1348 l 257
 2037.5 1548 l 257
 10.5 1548 l 257
1735.5 1548 m 257
 1735.5 782 l 257
 1935.5 782 l 257
 1935.5 1548 l 257
 1735.5 1548 l 257
1642.5 979 m 257
 1642.5 779 l 257
 1935.5 779 l 257
 1935.5 979 l 257
 1642.5 979 l 257
149.5 1542 m 257
 149.5 338 l 257
 349.5 338 l 257
 349.5 1542 l 257
 149.5 1542 l 257
149.5 497 m 257
 149.5 297 l 257
 1249.5 297 l 257
 1249.5 497 l 257
 149.5 497 l 257
1056.5 473 m 257
 1056.5 -98 l 257
 1256.5 -98 l 257
 1256.5 473 l 257
 1056.5 473 l 257
394.5 102 m 257
 394.5 -98 l 257
 1254.5 -98 l 257
 1254.5 102 l 257
 394.5 102 l 257
EndSplineSet
EndChar

StartChar: uni0910
Encoding: 2320 2320 362
GlifName: uni0910
Width: 2048
VWidth: 0
Flags: HW
LayerCount: 2
Fore
SplineSet
1.5 1548 m 257
 1.5 1348 l 257
 2046.5 1348 l 257
 2046.5 1548 l 257
 1.5 1548 l 257
1744.5 1545 m 257
 1744.5 779 l 257
 1944.5 779 l 257
 1944.5 1545 l 257
 1744.5 1545 l 257
1651.5 979 m 257
 1651.5 779 l 257
 1944.5 779 l 257
 1944.5 979 l 257
 1651.5 979 l 257
136.5 1542 m 257
 136.5 338 l 257
 336.5 338 l 257
 336.5 1542 l 257
 136.5 1542 l 257
136.5 497 m 257
 136.5 297 l 257
 1236.5 297 l 257
 1236.5 497 l 257
 136.5 497 l 257
1043.5 473 m 257
 1043.5 -98 l 257
 1243.5 -98 l 257
 1243.5 473 l 257
 1043.5 473 l 257
381.5 102 m 257
 381.5 -98 l 257
 1241.5 -98 l 257
 1241.5 102 l 257
 381.5 102 l 257
440.5 1883 m 257
 1778.5 1433 l 257
 1942.5 1547 l 257
 604.5 1998 l 257
 440.5 1883 l 257
EndSplineSet
EndChar

StartChar: uni0911
Encoding: 2321 2321 363
GlifName: uni0911
Width: 2048
VWidth: 0
Flags: HW
LayerCount: 2
Fore
SplineSet
1328.5 1548 m 257
 1328.5 1343 l 257
 2040.5 1343 l 257
 2040.5 1548 l 257
 1328.5 1548 l 257
1344.5 1419 m 257
 1344.5 1 l 257
 1543.5 1 l 257
 1543.5 1419 l 257
 1344.5 1419 l 257
25.5 1548 m 257
 25.5 1348 l 257
 897.5 1348 l 257
 897.5 1548 l 257
 25.5 1548 l 257
723.5 1548 m 257
 723.5 140 l 257
 923.5 140 l 257
 923.5 1548 l 257
 723.5 1548 l 257
109.5 894 m 257
 109.5 693 l 257
 1443.5 693 l 257
 1443.5 894 l 257
 109.5 894 l 257
0.5 201 m 257
 0.5 1 l 257
 923.5 1 l 257
 923.5 201 l 257
 0.5 201 l 257
1835.5 1420 m 257
 1835.5 2 l 257
 2034.5 2 l 257
 2034.5 1420 l 257
 1835.5 1420 l 257
1326.5 2085 m 257
 1326.5 1639 l 257
 1526.5 1639 l 257
 1526.5 2085 l 257
 1326.5 2085 l 257
1332.5 1842 m 257
 1332.5 1641 l 257
 2047.5 1641 l 257
 2047.5 1842 l 257
 1332.5 1842 l 257
1847.5 2083 m 257
 1847.5 1641 l 257
 2047.5 1641 l 257
 2047.5 2083 l 257
 1847.5 2083 l 257
EndSplineSet
EndChar

StartChar: uni0912
Encoding: 2322 2322 364
GlifName: oS_hort-deva
Width: 2048
VWidth: 0
Flags: HW
LayerCount: 2
Fore
SplineSet
1328 1543 m 257
 1328 1343 l 257
 2048 1343 l 257
 2048 1543 l 257
 1328 1543 l 257
1349 1419 m 257
 1349 1 l 257
 1548 1 l 257
 1548 1419 l 257
 1349 1419 l 257
25 1548 m 257
 25 1348 l 257
 897 1348 l 257
 897 1548 l 257
 25 1548 l 257
723 1548 m 257
 723 140 l 257
 923 140 l 257
 923 1548 l 257
 723 1548 l 257
109 894 m 257
 109 693 l 257
 1443 693 l 257
 1443 894 l 257
 109 894 l 257
0 201 m 257
 0 1 l 257
 923 1 l 257
 923 201 l 257
 0 201 l 257
1843 1420 m 257
 1843 2 l 257
 2042 2 l 257
 2042 1420 l 257
 1843 1420 l 257
1066 2155 m 257
 1066 1836 l 257
 1264 1836 l 257
 1264 2155 l 257
 1066 2155 l 257
1065 1967 m 257
 1065 1768 l 257
 1980 1768 l 257
 1980 1967 l 257
 1065 1967 l 257
1781 1956 m 257
 1781 1516 l 257
 1982 1516 l 257
 1982 1956 l 257
 1781 1956 l 257
EndSplineSet
PickledDataWithLists: "(dp0
."
EndChar

StartChar: uni0913
Encoding: 2323 2323 365
GlifName: uni0913
Width: 2048
VWidth: 0
Flags: HW
LayerCount: 2
Fore
SplineSet
1344 1548 m 257
 1344 1343 l 257
 2032 1343 l 257
 2032 1548 l 257
 1344 1548 l 257
1360 1419 m 257
 1360 1 l 257
 1559 1 l 257
 1559 1419 l 257
 1360 1419 l 257
41 1548 m 257
 41 1348 l 257
 901 1348 l 257
 901 1548 l 257
 41 1548 l 257
727 1548 m 257
 727 140 l 257
 927 140 l 257
 927 1548 l 257
 727 1548 l 257
125 894 m 257
 125 693 l 257
 1459 693 l 257
 1459 894 l 257
 125 894 l 257
16 201 m 257
 16 1 l 257
 927 1 l 257
 927 201 l 257
 16 201 l 257
1827 1423 m 257
 1827 5 l 257
 2026 5 l 257
 2026 1423 l 257
 1827 1423 l 257
1455 1768 m 257
 1816 1458 l 257
 1994 1550 l 257
 1632 1861 l 257
 1455 1768 l 257
EndSplineSet
EndChar

StartChar: uni0914
Encoding: 2324 2324 366
GlifName: uni0914
Width: 2048
VWidth: 0
Flags: HW
LayerCount: 2
Fore
SplineSet
1344 1548 m 257
 1344 1343 l 257
 2032 1343 l 257
 2032 1548 l 257
 1344 1548 l 257
1360 1419 m 257
 1360 1 l 257
 1559 1 l 257
 1559 1419 l 257
 1360 1419 l 257
41 1548 m 257
 41 1348 l 257
 901 1348 l 257
 901 1548 l 257
 41 1548 l 257
727 1548 m 257
 727 140 l 257
 927 140 l 257
 927 1548 l 257
 727 1548 l 257
125 894 m 257
 125 693 l 257
 1459 693 l 257
 1459 894 l 257
 125 894 l 257
16 201 m 257
 16 1 l 257
 927 1 l 257
 927 201 l 257
 16 201 l 257
1827 1420 m 257
 1827 2 l 257
 2026 2 l 257
 2026 1420 l 257
 1827 1420 l 257
1155 1750 m 257
 1435 1540 l 257
 1766 1523 l 257
 1291 1903 l 257
 1155 1750 l 257
1744 1949 m 257
 1807 1522 l 257
 2019 1547 l 257
 1941 1988 l 257
 1744 1949 l 257
EndSplineSet
EndChar

StartChar: uni0915
Encoding: 2325 2325 367
GlifName: ka-deva
Width: 2048
VWidth: 0
Flags: HW
LayerCount: 2
Fore
SplineSet
5 1547 m 257
 5 1346 l 257
 2043 1343 l 257
 2043 1544 l 257
 5 1547 l 257
1108 1516 m 257
 1108 10 l 257
 1310 10 l 257
 1310 1516 l 257
 1108 1516 l 257
137 1029 m 257
 137 829 l 257
 1200 829 l 257
 1200 1029 l 257
 137 1029 l 257
137 987 m 257
 131 439 l 257
 301 443 l 257
 303 989 l 257
 137 987 l 257
155 597 m 257
 155 405 l 257
 1162 401 l 257
 1162 604 l 257
 155 597 l 257
1214 947 m 257
 1214 746 l 257
 1950 746 l 257
 1950 947 l 257
 1214 947 l 257
1751 872 m 257
 1745 587 l 257
 1947 587 l 257
 1950 879 l 257
 1751 872 l 257
EndSplineSet
PickledDataWithLists: "(dp0
."
EndChar

StartChar: uni0916
Encoding: 2326 2326 368
GlifName: uni0916
Width: 2048
VWidth: 0
Flags: HW
LayerCount: 2
Fore
SplineSet
-4 1549 m 257
 -4 1349 l 257
 2052 1349 l 257
 2052 1549 l 257
 -4 1549 l 257
1720 1514 m 257
 1720 0 l 257
 1920 0 l 257
 1920 1514 l 257
 1720 1514 l 257
1033 979 m 257
 1033 779 l 257
 1461 779 l 257
 1461 979 l 257
 1033 979 l 257
1003 979 m 257
 1003 457 l 257
 1203 457 l 257
 1203 979 l 257
 1003 979 l 257
1003 568 m 257
 1003 368 l 257
 1772 368 l 257
 1772 568 l 257
 1003 568 l 257
318 1441 m 257
 317 120 l 257
 517 120 l 257
 518 1441 l 257
 318 1441 l 257
13 734 m 257
 13 534 l 257
 517 534 l 257
 517 734 l 257
 13 734 l 257
317 270 m 257
 317 70 l 257
 1857 70 l 257
 1857 270 l 257
 317 270 l 257
EndSplineSet
EndChar

StartChar: uni0917
Encoding: 2327 2327 369
GlifName: uni0917
Width: 2048
VWidth: 0
Flags: HW
LayerCount: 2
Fore
SplineSet
51 853 m 257
 250 853 l 257
 250 1044 l 257
 51 1044 l 257
 51 853 l 257
51 882 m 257
 51 683 l 257
 1039 683 l 257
 1039 882 l 257
 51 882 l 257
840 1548 m 257
 840 812 l 257
 1039 812 l 257
 1039 1548 l 257
 840 1548 l 257
1997 1548 m 257
 210 1548 l 257
 210 1348 l 257
 1997 1348 l 257
 1997 1548 l 257
1717 1523 m 257
 1717 0 l 257
 1916 0 l 257
 1916 1523 l 257
 1717 1523 l 257
EndSplineSet
EndChar

StartChar: uni0918
Encoding: 2328 2328 370
GlifName: uni0918
Width: 2048
VWidth: 0
Flags: HW
LayerCount: 2
Fore
SplineSet
0.5 1554 m 257
 0.5 1354 l 257
 2047.5 1354 l 257
 2047.5 1554 l 257
 0.5 1554 l 257
1726.5 1522 m 257
 1726.5 13 l 257
 1926.5 13 l 257
 1926.5 1522 l 257
 1726.5 1522 l 257
172.5 1515 m 257
 172.5 883 l 257
 371.5 883 l 257
 371.5 1515 l 257
 172.5 1515 l 257
266.5 921 m 257
 265.5 721 l 257
 1021.5 717 l 257
 1022.5 917 l 257
 266.5 921 l 257
178.5 469 m 257
 178.5 269 l 257
 1902.5 269 l 257
 1902.5 469 l 257
 178.5 469 l 257
172.5 269 m 257
 371.5 269 l 257
 371.5 764 l 257
 172.5 764 l 257
 172.5 269 l 257
EndSplineSet
EndChar

StartChar: uni0919
Encoding: 2329 2329 371
GlifName: uni0919
Width: 2048
VWidth: 0
Flags: HW
LayerCount: 2
Fore
SplineSet
-2 1554 m 257
 -2 1354 l 257
 2050 1354 l 257
 2050 1554 l 257
 -2 1554 l 257
1023 1543 m 257
 1023 1026 l 257
 1223 1026 l 257
 1223 1543 l 257
 1023 1543 l 257
1214 1226 m 257
 228 1226 l 257
 228 1026 l 257
 1214 1026 l 257
 1214 1226 l 257
227 1083 m 257
 227 629 l 257
 432 629 l 257
 432 1083 l 257
 227 1083 l 257
227 820 m 257
 227 620 l 257
 1300 620 l 257
 1300 820 l 257
 227 820 l 257
1100 680 m 257
 1100 29 l 257
 1300 29 l 257
 1300 680 l 257
 1100 680 l 257
114 201 m 257
 114 0 l 257
 1301 0 l 257
 1301 201 l 257
 114 201 l 257
114 423 m 257
 114 8 l 257
 315 8 l 257
 315 423 l 257
 114 423 l 257
1327 1037 m 257
 1327 890 l 257
 1484 890 l 257
 1484 1037 l 257
 1327 1037 l 257
EndSplineSet
EndChar

StartChar: uni091A
Encoding: 2330 2330 372
GlifName: uni091A_
Width: 2048
VWidth: 0
Flags: HW
LayerCount: 2
Fore
SplineSet
0 1556 m 257
 0 1356 l 257
 2048 1356 l 257
 2048 1556 l 257
 0 1556 l 257
1662 1553 m 257
 1662 -2 l 257
 1862 -2 l 257
 1862 1553 l 257
 1662 1553 l 257
1829 280 m 257
 1829 480 l 257
 808 480 l 257
 808 280 l 257
 1829 280 l 257
808 837 m 257
 808 421 l 257
 1008 421 l 257
 1008 837 l 257
 808 837 l 257
72 991 m 257
 72 791 l 257
 1080 791 l 257
 1080 991 l 257
 72 991 l 257
EndSplineSet
EndChar

StartChar: uni091B
Encoding: 2331 2331 373
GlifName: uni091B_
Width: 2048
VWidth: 0
Flags: HW
LayerCount: 2
Fore
SplineSet
-3 1555 m 257
 -3 1355 l 257
 2051 1355 l 257
 2051 1555 l 257
 -3 1555 l 257
1236 1130 m 257
 95 1130 l 257
 95 931 l 257
 1236 931 l 257
 1236 1130 l 257
92 1130 m 257
 92 584 l 257
 292 584 l 257
 292 1130 l 257
 92 1130 l 257
170 639 m 257
 170 439 l 257
 820 439 l 257
 820 639 l 257
 170 639 l 257
87 493 m 257
 87 0 l 257
 287 0 l 257
 287 493 l 257
 87 493 l 257
87 199 m 257
 87 0 l 257
 1522 0 l 257
 1522 199 l 257
 87 199 l 257
1321 6 m 257
 1522 6 l 257
 1522 1515 l 257
 1321 1515 l 257
 1321 6 l 257
1462 1007 m 257
 1462 808 l 257
 2032 808 l 257
 2032 1007 l 257
 1462 1007 l 257
1831 868 m 257
 1831 471 l 257
 2032 471 l 257
 2032 868 l 257
 1831 868 l 257
EndSplineSet
EndChar

StartChar: uni091C
Encoding: 2332 2332 374
GlifName: uni091C_
Width: 2048
VWidth: 0
Flags: HW
LayerCount: 2
Fore
SplineSet
-17 1551 m 257
 -17 1350 l 257
 2065 1350 l 257
 2065 1551 l 257
 -17 1551 l 257
1719 1551 m 257
 1719 -12 l 257
 1918 -12 l 257
 1918 1551 l 257
 1719 1551 l 257
926 860 m 257
 926 663 l 257
 1852 663 l 257
 1852 860 l 257
 926 860 l 257
880 860 m 257
 880 413 l 257
 1080 413 l 257
 1080 860 l 257
 880 860 l 257
58 567 m 257
 58 367 l 257
 1080 367 l 257
 1080 567 l 257
 58 567 l 257
58 855 m 257
 58 509 l 257
 258 509 l 257
 258 855 l 257
 58 855 l 257
EndSplineSet
EndChar

StartChar: uni091D
Encoding: 2333 2333 375
GlifName: uni091D_
Width: 2048
VWidth: 0
Flags: HW
LayerCount: 2
Fore
SplineSet
-8.5 1549 m 257
 -8.5 1349 l 257
 2056.5 1349 l 257
 2056.5 1549 l 257
 -8.5 1549 l 257
1712.5 1539 m 257
 1712.5 -5 l 257
 1913.5 -5 l 257
 1913.5 1539 l 257
 1712.5 1539 l 257
968.5 1537 m 257
 968.5 1024 l 257
 1167.5 1024 l 257
 1167.5 1537 l 257
 968.5 1537 l 257
134.5 1223 m 257
 134.5 1024 l 257
 1167.5 1024 l 257
 1167.5 1223 l 257
 134.5 1223 l 257
134.5 1085 m 257
 134.5 651 l 257
 334.5 651 l 257
 334.5 1085 l 257
 134.5 1085 l 257
134.5 837 m 257
 134.5 638 l 257
 1907.5 638 l 257
 1907.5 837 l 257
 134.5 837 l 257
939.5 691 m 257
 939.5 7 l 257
 1139.5 7 l 257
 1139.5 691 l 257
 939.5 691 l 257
134.5 203 m 257
 134.5 3 l 257
 1139.5 3 l 257
 1139.5 203 l 257
 134.5 203 l 257
134.5 63 m 257
 134.5 -148 l 257
 334.5 -148 l 257
 334.5 63 l 257
 134.5 63 l 257
EndSplineSet
EndChar

StartChar: uni091E
Encoding: 2334 2334 376
GlifName: uni091E_
Width: 2048
VWidth: 0
Flags: HW
LayerCount: 2
Fore
SplineSet
-2.5 1548 m 257
 -2.5 1348 l 257
 2050.5 1348 l 257
 2050.5 1548 l 257
 -2.5 1548 l 257
1756.5 1538 m 257
 1756.5 -8 l 257
 1956.5 -8 l 257
 1956.5 1538 l 257
 1756.5 1538 l 257
979.5 737 m 257
 979.5 537 l 257
 1853.5 537 l 257
 1853.5 737 l 257
 979.5 737 l 257
86.5 960 m 257
 86.5 760 l 257
 956.5 760 l 257
 956.5 960 l 257
 86.5 960 l 257
925.5 960 m 257
 925.5 316 l 257
 1125.5 316 l 257
 1125.5 960 l 257
 925.5 960 l 257
63.5 460 m 257
 63.5 260 l 257
 1125.5 260 l 257
 1125.5 460 l 257
 63.5 460 l 257
EndSplineSet
EndChar

StartChar: uni091F
Encoding: 2335 2335 377
GlifName: uni091F_
Width: 2048
VWidth: 0
Flags: HW
LayerCount: 2
Fore
SplineSet
-4 1549 m 257
 -4 1348 l 257
 2052 1348 l 257
 2052 1549 l 257
 -4 1549 l 257
1597 1528 m 257
 1597 988 l 257
 1797 988 l 257
 1797 1528 l 257
 1597 1528 l 257
1797 1023 m 257
 106 1023 l 257
 106 822 l 257
 1797 822 l 257
 1797 1023 l 257
85 1024 m 257
 85 5 l 257
 285 5 l 257
 285 1024 l 257
 85 1024 l 257
85 201 m 257
 85 0 l 257
 1840 0 l 257
 1840 201 l 257
 85 201 l 257
EndSplineSet
EndChar

StartChar: uni0920
Encoding: 2336 2336 378
GlifName: uni0920
Width: 2048
VWidth: 0
Flags: HW
LayerCount: 2
Fore
SplineSet
0 1551 m 257
 0 1350 l 257
 2048 1350 l 257
 2048 1551 l 257
 0 1551 l 257
912 1484 m 257
 920 1023 l 257
 1121 1023 l 257
 1120 1484 l 257
 912 1484 l 257
85 1035 m 257
 85 834 l 257
 1985 834 l 257
 1985 1035 l 257
 85 1035 l 257
72 1035 m 257
 72 13 l 257
 272 13 l 257
 272 1035 l 257
 72 1035 l 257
1785 1035 m 257
 1785 -2 l 257
 1985 -2 l 257
 1985 1035 l 257
 1785 1035 l 257
73 198 m 257
 73 -3 l 257
 1965 -3 l 257
 1965 198 l 257
 73 198 l 257
EndSplineSet
EndChar

StartChar: uni0921
Encoding: 2337 2337 379
GlifName: uni0921
Width: 2048
VWidth: 0
Flags: HW
LayerCount: 2
Fore
SplineSet
1 1549 m 257
 1 1345 l 257
 2047 1345 l 257
 2047 1549 l 257
 1 1549 l 257
895 1545 m 257
 895 1014 l 257
 1094 1014 l 257
 1094 1545 l 257
 895 1545 l 257
895 1025 m 257
 895 815 l 257
 1945 815 l 257
 1945 1025 l 257
 895 1025 l 257
1772 1025 m 257
 1772 5 l 257
 1971 5 l 257
 1971 1025 l 257
 1772 1025 l 257
61 200 m 257
 61 0 l 257
 1971 0 l 257
 1971 200 l 257
 61 200 l 257
61 331 m 257
 61 5 l 257
 261 5 l 257
 261 331 l 257
 61 331 l 257
EndSplineSet
EndChar

StartChar: uni0922
Encoding: 2338 2338 380
GlifName: uni0922
Width: 2048
VWidth: 0
Flags: HW
LayerCount: 2
Fore
SplineSet
5 1549 m 257
 5 1348 l 257
 2043 1348 l 257
 2043 1549 l 257
 5 1549 l 257
1588 1528 m 257
 1588 988 l 257
 1788 988 l 257
 1788 1528 l 257
 1588 1528 l 257
1788 1023 m 257
 115 1023 l 257
 115 822 l 257
 1788 822 l 257
 1788 1023 l 257
94 1024 m 257
 94 5 l 257
 294 5 l 257
 294 1024 l 257
 94 1024 l 257
94 201 m 257
 94 0 l 257
 1831 0 l 257
 1831 201 l 257
 94 201 l 257
1632 544 m 257
 1632 -2 l 257
 1833 -2 l 257
 1833 544 l 257
 1632 544 l 257
1579 547 m 257
 1579 347 l 257
 1831 347 l 257
 1831 547 l 257
 1579 547 l 257
EndSplineSet
EndChar

StartChar: uni0923
Encoding: 2339 2339 381
GlifName: uni0923
Width: 2048
VWidth: 0
Flags: HW
LayerCount: 2
Fore
SplineSet
-0.5 1548 m 257
 -0.5 1350 l 257
 2048.5 1350 l 257
 2048.5 1548 l 257
 -0.5 1548 l 257
1740.5 1530 m 257
 1740.5 -1 l 257
 1940.5 -1 l 257
 1940.5 1530 l 257
 1740.5 1530 l 257
109.5 1543 m 257
 109.5 855 l 257
 309.5 855 l 257
 309.5 1543 l 257
 109.5 1543 l 257
965.5 1528 m 257
 965.5 844 l 257
 1165.5 844 l 257
 1165.5 1528 l 257
 965.5 1528 l 257
109.5 1024 m 257
 109.5 825 l 257
 1165.5 825 l 257
 1165.5 1024 l 257
 109.5 1024 l 257
EndSplineSet
EndChar

StartChar: uni0924
Encoding: 2340 2340 382
GlifName: uni0924
Width: 2048
VWidth: 0
Flags: HW
LayerCount: 2
Fore
SplineSet
-15 1562 m 257
 -15 1362 l 257
 2063 1362 l 257
 2063 1562 l 257
 -15 1562 l 257
1673 1562 m 257
 1673 1 l 257
 1872 1 l 257
 1872 1562 l 257
 1673 1562 l 257
1827 788 m 257
 120 788 l 257
 120 588 l 257
 1827 588 l 257
 1827 788 l 257
120 766 m 257
 120 26 l 257
 320 26 l 257
 320 766 l 257
 120 766 l 257
EndSplineSet
EndChar

StartChar: uni0925
Encoding: 2341 2341 383
GlifName: uni0925
Width: 2048
VWidth: 0
Flags: HW
LayerCount: 2
Fore
SplineSet
1647 1548 m 257
 1647 1350 l 257
 2031 1350 l 257
 2031 1548 l 257
 1647 1548 l 257
1783 1541 m 257
 1783 -18 l 257
 1982 -18 l 257
 1982 1541 l 257
 1783 1541 l 257
17 1550 m 257
 17 1350 l 257
 974 1350 l 257
 974 1550 l 257
 17 1550 l 257
773 1413 m 257
 773 927 l 257
 973 927 l 257
 973 1413 l 257
 773 1413 l 257
974 1018 m 257
 21 1018 l 257
 21 810 l 257
 974 810 l 257
 974 1018 l 257
21 946 m 257
 21 132 l 257
 220 132 l 257
 220 946 l 257
 21 946 l 257
21 331 m 257
 21 132 l 257
 1982 132 l 257
 1982 331 l 257
 21 331 l 257
EndSplineSet
EndChar

StartChar: uni0926
Encoding: 2342 2342 384
GlifName: uni0926
Width: 2048
VWidth: 0
Flags: HW
LayerCount: 2
Fore
SplineSet
3.5 1550 m 257
 3.5 1350 l 257
 2044.5 1350 l 257
 2044.5 1550 l 257
 3.5 1550 l 257
992.5 1509 m 257
 992.5 923 l 257
 1192.5 923 l 257
 1192.5 1509 l 257
 992.5 1509 l 257
1191.5 1020 m 257
 57.5 1020 l 257
 57.5 821 l 257
 1191.5 821 l 257
 1191.5 1020 l 257
53.5 996 m 257
 53.5 219 l 257
 253.5 219 l 257
 253.5 996 l 257
 53.5 996 l 257
53.5 346 m 257
 53.5 146 l 257
 1317.5 146 l 257
 1317.5 346 l 257
 53.5 346 l 257
1121.5 406 m 257
 1121.5 -7 l 257
 1321.5 -7 l 257
 1321.5 406 l 257
 1121.5 406 l 257
EndSplineSet
EndChar

StartChar: uni0927
Encoding: 2343 2343 385
GlifName: uni0927
Width: 2048
VWidth: 0
Flags: HW
LayerCount: 2
Fore
SplineSet
1691 1548 m 257
 1691 1348 l 257
 1992 1348 l 257
 1992 1548 l 257
 1691 1548 l 257
1740 1440 m 257
 1740 -6 l 257
 1939 -6 l 257
 1939 1440 l 257
 1740 1440 l 257
63 1545 m 257
 63 1346 l 257
 961 1346 l 257
 961 1545 l 257
 63 1545 l 257
57 1501 m 257
 57 808 l 257
 256 808 l 257
 256 1501 l 257
 57 1501 l 257
56 882 m 257
 56 681 l 257
 967 681 l 257
 967 882 l 257
 56 882 l 257
90 711 m 257
 90 205 l 257
 290 205 l 257
 290 711 l 257
 90 711 l 257
90 326 m 257
 90 126 l 257
 1806 126 l 257
 1806 326 l 257
 90 326 l 257
EndSplineSet
EndChar

StartChar: uni0928
Encoding: 2344 2344 386
GlifName: uni0928
Width: 2048
VWidth: 0
Flags: HW
LayerCount: 2
Fore
SplineSet
3 1545 m 257
 3 1347 l 257
 2045 1347 l 257
 2045 1545 l 257
 3 1545 l 257
1730 1548 m 257
 1730 3 l 257
 1929 3 l 257
 1929 1548 l 257
 1730 1548 l 257
98 744 m 257
 98 544 l 257
 1899 544 l 257
 1899 744 l 257
 98 744 l 257
99 741 m 257
 99 456 l 257
 300 456 l 257
 300 741 l 257
 99 741 l 257
EndSplineSet
EndChar

StartChar: uni0929
Encoding: 2345 2345 387
GlifName: uni0929
Width: 2048
VWidth: 0
Flags: HW
LayerCount: 2
Fore
SplineSet
0 1545 m 257
 0 1347 l 257
 2042 1347 l 257
 2042 1545 l 257
 0 1545 l 257
1727 1548 m 257
 1727 3 l 257
 1926 3 l 257
 1926 1548 l 257
 1727 1548 l 257
95 744 m 257
 95 544 l 257
 1896 544 l 257
 1896 744 l 257
 95 744 l 257
96 741 m 257
 96 456 l 257
 297 456 l 257
 297 741 l 257
 96 741 l 257
1083.5 -58 m 257
 1085.5 -305 l 257
 1350.5 -305 l 257
 1348.5 -58 l 257
 1083.5 -58 l 257
EndSplineSet
Ligature2: "nuktNuktaFormsinDevanagarilookup0 subtable" uni0928 uni093C
EndChar

StartChar: uni092A
Encoding: 2346 2346 388
GlifName: uni092A_
Width: 2048
VWidth: 0
Flags: HW
LayerCount: 2
Fore
SplineSet
-15 1549 m 257
 -15 1349 l 257
 2063 1349 l 257
 2063 1549 l 257
 -15 1549 l 257
1723 1539 m 257
 1723 2 l 257
 1923 2 l 257
 1923 1539 l 257
 1723 1539 l 257
109 1551 m 257
 109 837 l 257
 310 837 l 257
 310 1551 l 257
 109 1551 l 257
109 1025 m 257
 109 825 l 257
 1889 825 l 257
 1889 1025 l 257
 109 1025 l 257
EndSplineSet
EndChar

StartChar: uni092B
Encoding: 2347 2347 389
GlifName: uni092B_
Width: 2048
VWidth: 0
Flags: HW
LayerCount: 2
Fore
SplineSet
-15 1549 m 257
 -15 1349 l 257
 2063 1349 l 257
 2063 1549 l 257
 -15 1549 l 257
1378 1539 m 257
 1378 2 l 257
 1578 2 l 257
 1578 1539 l 257
 1378 1539 l 257
109 1551 m 257
 109 837 l 257
 310 837 l 257
 310 1551 l 257
 109 1551 l 257
109 1024 m 257
 109 824 l 257
 2003 824 l 257
 2003 1024 l 257
 109 1024 l 257
1813 1024 m 257
 1813 686 l 257
 2012 686 l 257
 2012 1024 l 257
 1813 1024 l 257
EndSplineSet
EndChar

StartChar: uni092C
Encoding: 2348 2348 390
GlifName: uni092C_
Width: 2048
VWidth: 0
Flags: HW
LayerCount: 2
Fore
SplineSet
-0.5 1550 m 257
 -0.5 1351 l 257
 2048.5 1351 l 257
 2048.5 1550 l 257
 -0.5 1550 l 257
1683.5 1437 m 257
 1683.5 -25 l 257
 1883.5 -25 l 257
 1883.5 1437 l 257
 1683.5 1437 l 257
76.5 1021 m 257
 76.5 232 l 257
 276.5 232 l 257
 276.5 1021 l 257
 76.5 1021 l 257
77.5 404 m 257
 77.5 204 l 257
 1833.5 204 l 257
 1833.5 404 l 257
 77.5 404 l 257
101.5 926 m 257
 1555.5 224 l 257
 1722.5 328 l 257
 271.5 1030 l 257
 101.5 926 l 257
75.5 1037 m 257
 75.5 820 l 257
 1125.5 820 l 257
 1125.5 1037 l 257
 75.5 1037 l 257
EndSplineSet
EndChar

StartChar: uni092D
Encoding: 2349 2349 391
GlifName: uni092D_
Width: 2048
VWidth: 0
Flags: HW
LayerCount: 2
Fore
SplineSet
0 169 m 1
 0 0 l 1
 838 0 l 1
 838 169 l 1
 0 169 l 1
0 473 m 1
 0 0 l 1
 186 0 l 1
 186 473 l 1
 0 473 l 1
1582.5 1548 m 257
 1582.5 1348 l 257
 2027.5 1348 l 257
 2027.5 1548 l 257
 1582.5 1548 l 257
1752.5 1543 m 257
 1752.5 0 l 257
 1951.5 0 l 257
 1951.5 1543 l 257
 1752.5 1543 l 257
20.5 1532 m 257
 20.5 1079 l 257
 220.5 1079 l 257
 220.5 1532 l 257
 20.5 1532 l 257
46.5 1538 m 257
 46.5 1338 l 257
 838.5 1338 l 257
 838.5 1538 l 257
 46.5 1538 l 257
773.5 1538 m 257
 773.5 1 l 261
 972.5 1 l 261
 972.5 1538 l 257
 773.5 1538 l 257
79.5 473 m 257
 79.5 273 l 257
 1923.5 273 l 257
 1923.5 473 l 257
 79.5 473 l 257
EndSplineSet
EndChar

StartChar: uni092E
Encoding: 2350 2350 392
GlifName: uni092E_
Width: 2048
VWidth: 0
Flags: HW
LayerCount: 2
Fore
SplineSet
0 169 m 1
 0 0 l 1
 608 0 l 1
 608 169 l 1
 0 169 l 1
0 473 m 1
 0 0 l 1
 186 0 l 1
 186 473 l 1
 0 473 l 1
3 1548 m 257
 3 1348 l 257
 2045 1348 l 257
 2045 1548 l 257
 3 1548 l 257
1770 1543 m 257
 1770 0 l 257
 1969 0 l 257
 1969 1543 l 257
 1770 1543 l 257
591 1538 m 257
 591 -1 l 257
 790 -1 l 257
 790 1538 l 257
 591 1538 l 257
97 473 m 257
 97 273 l 257
 1941 273 l 257
 1941 473 l 257
 97 473 l 257
EndSplineSet
EndChar

StartChar: uni092F
Encoding: 2351 2351 393
GlifName: uni092F_
Width: 2048
VWidth: 0
Flags: HW
LayerCount: 2
Fore
SplineSet
-9 1550 m 257
 -9 1351 l 257
 2057 1351 l 257
 2057 1550 l 257
 -9 1550 l 257
1722 1531 m 257
 1722 0 l 257
 1923 0 l 257
 1923 1531 l 257
 1722 1531 l 257
134 1484 m 257
 627 847 l 257
 837 846 l 257
 328 1536 l 257
 134 1484 l 257
627 847 m 257
 136 472 l 257
 299 405 l 257
 837 846 l 257
 627 847 l 257
343 626 m 257
 294 412 l 257
 1852 185 l 257
 1929 358 l 257
 343 626 l 257
EndSplineSet
EndChar

StartChar: uni0930
Encoding: 2352 2352 394
GlifName: uni0930
Width: 2048
VWidth: 0
Flags: HW
LayerCount: 2
Fore
SplineSet
-0.5 1549 m 257
 -0.5 1350 l 257
 2048.5 1350 l 257
 2048.5 1549 l 257
 -0.5 1549 l 257
1097.5 1540 m 257
 1097.5 790 l 257
 1297.5 790 l 257
 1297.5 1540 l 257
 1097.5 1540 l 257
1297.5 802 m 257
 352.5 802 l 257
 352.5 603 l 257
 1297.5 603 l 257
 1297.5 802 l 257
352.5 603 m 257
 1212.5 -50 l 257
 1385.5 41 l 257
 524.5 694 l 257
 352.5 603 l 257
EndSplineSet
EndChar

StartChar: uni0931
Encoding: 2353 2353 395
GlifName: uni0931
Width: 2048
VWidth: 0
Flags: HW
LayerCount: 2
Fore
SplineSet
0 1549 m 257
 0 1350 l 257
 2049 1350 l 257
 2049 1549 l 257
 0 1549 l 257
1098 1540 m 257
 1098 790 l 257
 1298 790 l 257
 1298 1540 l 257
 1098 1540 l 257
1298 802 m 257
 353 802 l 257
 353 603 l 257
 1298 603 l 257
 1298 802 l 257
353 603 m 257
 1213 -50 l 257
 1386 41 l 257
 525 694 l 257
 353 603 l 257
1002.5 -118 m 257
 1004.5 -365 l 257
 1269.5 -365 l 257
 1267.5 -118 l 257
 1002.5 -118 l 257
EndSplineSet
Ligature2: "nuktNuktaFormsinDevanagarilookup0 subtable" uni0930 uni093C
EndChar

StartChar: uni0932
Encoding: 2354 2354 396
GlifName: uni0932
Width: 2048
VWidth: 0
Flags: HW
LayerCount: 2
Fore
SplineSet
-5.5 1550 m 257
 -5.5 1344 l 257
 2053.5 1344 l 257
 2053.5 1550 l 257
 -5.5 1550 l 257
1928.5 1544 m 257
 1728.5 1544 l 257
 1728.5 2 l 257
 1928.5 2 l 257
 1928.5 1544 l 257
37.5 703 m 257
 37.5 194 l 257
 240.5 194 l 257
 240.5 703 l 257
 37.5 703 l 257
37.5 782 m 257
 37.5 582 l 257
 1842.5 582 l 257
 1842.5 782 l 257
 37.5 782 l 257
892.5 689 m 257
 892.5 374 l 257
 1092.5 374 l 257
 1092.5 689 l 257
 892.5 689 l 257
EndSplineSet
EndChar

StartChar: uni0933
Encoding: 2355 2355 397
GlifName: uni0933
Width: 2048
VWidth: 0
Flags: HW
LayerCount: 2
Fore
SplineSet
-5.5 1550 m 257
 -5.5 1344 l 257
 2053.5 1344 l 257
 2053.5 1550 l 257
 -5.5 1550 l 257
1928.5 1544 m 257
 1728.5 1544 l 257
 1728.5 194 l 257
 1928.5 194 l 257
 1928.5 1544 l 257
37.5 703 m 257
 37.5 194 l 257
 240.5 194 l 257
 240.5 703 l 257
 37.5 703 l 257
37.5 782 m 257
 37.5 582 l 257
 1842.5 582 l 257
 1842.5 782 l 257
 37.5 782 l 257
892.5 689 m 257
 892.5 374 l 257
 1092.5 374 l 257
 1092.5 689 l 257
 892.5 689 l 257
39.5 391 m 257
 39.5 191 l 257
 1928.5 191 l 257
 1928.5 391 l 257
 39.5 391 l 257
EndSplineSet
EndChar

StartChar: uni0934
Encoding: 2356 2356 398
GlifName: uni0934
Width: 2048
VWidth: 0
Flags: HW
LayerCount: 2
Fore
SplineSet
0 1550 m 257
 0 1344 l 257
 2059 1344 l 257
 2059 1550 l 257
 0 1550 l 257
1934 1544 m 257
 1734 1544 l 257
 1734 194 l 257
 1934 194 l 257
 1934 1544 l 257
43 703 m 257
 43 194 l 257
 246 194 l 257
 246 703 l 257
 43 703 l 257
43 782 m 257
 43 582 l 257
 1848 582 l 257
 1848 782 l 257
 43 782 l 257
898 689 m 257
 898 374 l 257
 1098 374 l 257
 1098 689 l 257
 898 689 l 257
45 391 m 257
 45 191 l 257
 1934 191 l 257
 1934 391 l 257
 45 391 l 257
1040.5 -34 m 257
 1042.5 -281 l 257
 1307.5 -281 l 257
 1305.5 -34 l 257
 1040.5 -34 l 257
EndSplineSet
Ligature2: "nuktNuktaFormsinDevanagarilookup0 subtable" uni0933 uni093C
EndChar

StartChar: uni0935
Encoding: 2357 2357 399
GlifName: uni0935
Width: 2048
VWidth: 0
Flags: HW
LayerCount: 2
Fore
SplineSet
-0.5 1550 m 257
 -0.5 1351 l 257
 2048.5 1351 l 257
 2048.5 1550 l 257
 -0.5 1550 l 257
1683.5 1437 m 257
 1683.5 -25 l 257
 1883.5 -25 l 257
 1883.5 1437 l 257
 1683.5 1437 l 257
76.5 1021 m 257
 76.5 232 l 257
 276.5 232 l 257
 276.5 1021 l 257
 76.5 1021 l 257
77.5 404 m 257
 77.5 204 l 257
 1833.5 204 l 257
 1833.5 404 l 257
 77.5 404 l 257
75.5 1037 m 257
 75.5 820 l 257
 613.5 820 l 257
 613.5 1037 l 257
 75.5 1037 l 257
EndSplineSet
EndChar

StartChar: uni0936
Encoding: 2358 2358 400
GlifName: uni0936
Width: 2048
VWidth: 0
Flags: HW
LayerCount: 2
Fore
SplineSet
1309 1549 m 257
 1309 1349 l 257
 1998 1349 l 257
 1998 1549 l 257
 1309 1549 l 257
1748 1520 m 257
 1748 -4 l 257
 1949 -4 l 257
 1949 1520 l 257
 1748 1520 l 257
50 1543 m 257
 50 1224 l 257
 250 1224 l 257
 250 1543 l 257
 50 1543 l 257
50 1550 m 257
 50 1348 l 257
 993 1348 l 257
 993 1550 l 257
 50 1550 l 257
869 1549 m 257
 869 816 l 257
 1069 816 l 257
 1069 1549 l 257
 869 1549 l 257
113 1023 m 257
 113 816 l 257
 1060 816 l 257
 1060 1023 l 257
 113 1023 l 257
110 822 m 257
 942 8 l 257
 1109 68 l 257
 277 882 l 257
 110 822 l 257
EndSplineSet
EndChar

StartChar: uni0937
Encoding: 2359 2359 401
GlifName: uni0937
Width: 2048
VWidth: 0
Flags: HW
LayerCount: 2
Fore
SplineSet
-7.5 1550 m 257
 -7.5 1350 l 257
 2055.5 1350 l 257
 2055.5 1550 l 257
 -7.5 1550 l 257
1715.5 1539 m 257
 1715.5 2 l 257
 1915.5 2 l 257
 1915.5 1539 l 257
 1715.5 1539 l 257
94.5 1551 m 257
 94.5 965 l 257
 293.5 965 l 257
 293.5 1551 l 257
 94.5 1551 l 257
94.5 1025 m 257
 94.5 824 l 257
 1881.5 824 l 257
 1881.5 1025 l 257
 94.5 1025 l 257
97.5 1361 m 257
 1449.5 960 l 257
 1915.5 981 l 257
 629.5 1352 l 257
 97.5 1361 l 257
EndSplineSet
EndChar

StartChar: uni0938
Encoding: 2360 2360 402
GlifName: uni0938
Width: 2048
VWidth: 0
Flags: HW
LayerCount: 2
Fore
SplineSet
-4 1550 m 257
 -4 1350 l 257
 2052 1350 l 257
 2052 1550 l 257
 -4 1550 l 257
1738 1544 m 257
 1738 3 l 257
 1938 3 l 257
 1938 1544 l 257
 1738 1544 l 257
154 1509 m 257
 154 729 l 257
 353 729 l 257
 353 1509 l 257
 154 1509 l 257
154 858 m 257
 154 659 l 257
 1886 659 l 257
 1886 858 l 257
 154 858 l 257
154 658 m 257
 993 4 l 257
 1190 0 l 257
 344 742 l 257
 154 658 l 257
EndSplineSet
EndChar

StartChar: uni0939
Encoding: 2361 2361 403
GlifName: uni0939
Width: 2048
VWidth: 0
Flags: HW
LayerCount: 2
Fore
SplineSet
-3.5 1551 m 257
 -3.5 1351 l 257
 2051.5 1351 l 257
 2051.5 1551 l 257
 -3.5 1551 l 257
967.5 1511 m 257
 967.5 1174 l 257
 1167.5 1174 l 257
 1164.5 1510 l 257
 967.5 1511 l 257
1169.5 1196 m 257
 524.5 1196 l 257
 524.5 996 l 257
 1169.5 996 l 257
 1169.5 1196 l 257
396.5 1195 m 257
 404.5 785 l 257
 604.5 785 l 257
 597.5 1195 l 257
 396.5 1195 l 257
1203.5 789 m 257
 1203.5 577 l 257
 1401.5 577 l 257
 1401.5 789 l 257
 1203.5 789 l 257
141.5 838 m 257
 141.5 637 l 257
 1401.5 643 l 257
 1401.5 841 l 257
 141.5 838 l 257
141.5 793 m 257
 141.5 215 l 257
 341.5 215 l 257
 341.5 793 l 257
 141.5 793 l 257
340.5 215 m 257
 141.5 215 l 257
 651.5 0 l 257
 1110.5 -1 l 257
 340.5 215 l 257
EndSplineSet
EndChar

StartChar: uni093A
Encoding: 2362 2362 404
GlifName: uni093A_
Width: 2048
VWidth: 0
Flags: HW
LayerCount: 2
Fore
SplineSet
938 1633 m 257
 938 1090 l 257
 1110 1090 l 257
 1110 1633 l 257
 938 1633 l 257
EndSplineSet
EndChar

StartChar: uni093B
Encoding: 2363 2363 405
GlifName: uni093B_
Width: 2048
VWidth: 0
Flags: HW
LayerCount: 2
Fore
SplineSet
924 1548 m 257
 924 4 l 257
 1124 4 l 257
 1124 1548 l 257
 924 1548 l 257
96 1228 m 257
 96 1028 l 257
 1952 1028 l 257
 1952 1228 l 257
 96 1228 l 257
EndSplineSet
EndChar

StartChar: uni093C
Encoding: 2364 2364 406
GlifName: uni093C_
Width: 2048
VWidth: 0
Flags: HW
HStem: -1 247
VStem: 1693 265
LayerCount: 2
Fore
SplineSet
890.5 -54 m 257
 892.5 -301 l 257
 1157.5 -301 l 257
 1155.5 -54 l 257
 890.5 -54 l 257
EndSplineSet
PickledDataWithLists: "(dp0
Vcom.fontlab.hintData
p1
(dp2
Vhhints
p3
(lp4
(dp5
Vposition
p6
I-1
sVwidth
p7
I247
sasVvhints
p8
(lp9
(dp10
g6
I1693
sg7
I265
sass."
EndChar

StartChar: uni093D
Encoding: 2365 2365 407
GlifName: uni093D_
Width: 2048
VWidth: 0
Flags: HW
LayerCount: 2
Fore
SplineSet
856 1264 m 257
 856 1080 l 257
 1381 1080 l 257
 1381 1264 l 257
 856 1264 l 257
857 1080 m 257
 1161 268 l 257
 1351 269 l 257
 1058 1079 l 257
 857 1080 l 257
967 269 m 257
 967 104 l 257
 1351 104 l 257
 1351 269 l 257
 967 269 l 257
667 457 m 257
 966 104 l 257
 968 270 l 257
 812 548 l 257
 667 457 l 257
EndSplineSet
EndChar

StartChar: uni093E
Encoding: 2366 2366 408
GlifName: uni093E_
Width: 2048
VWidth: 0
Flags: HW
LayerCount: 2
Fore
SplineSet
0 1550 m 257
 0 1350 l 257
 2048 1350 l 257
 2048 1550 l 257
 0 1550 l 257
922 1514 m 257
 922 1 l 257
 1122 1 l 257
 1122 1514 l 257
 922 1514 l 257
EndSplineSet
EndChar

StartChar: uni093F
Encoding: 2367 2367 409
GlifName: uni093F_
Width: 2048
VWidth: 0
Flags: HW
LayerCount: 2
Fore
SplineSet
30 1551 m 257
 30 1352 l 257
 2042 1352 l 257
 2042 1551 l 257
 30 1551 l 257
996 1784 m 257
 996 2 l 257
 1195 2 l 257
 1195 1784 l 257
 996 1784 l 257
993 1933 m 257
 993 1733 l 257
 2366 1733 l 257
 2366 1933 l 257
 993 1933 l 257
2169 1909 m 257
 2169 1621 l 257
 2369 1621 l 257
 2369 1909 l 257
 2169 1909 l 257
EndSplineSet
EndChar

StartChar: uni0940
Encoding: 2368 2368 410
GlifName: uni0940
Width: 2048
VWidth: 0
Flags: HW
LayerCount: 2
Fore
SplineSet
-2 1551 m 257
 -2 1350 l 257
 2048 1350 l 257
 2048 1551 l 257
 -2 1551 l 257
1057 1748 m 257
 1057 12 l 257
 1256 12 l 257
 1256 1748 l 257
 1057 1748 l 257
1256 1694 m 257
 1256 1895 l 257
 -398 1895 l 257
 -398 1694 l 257
 1256 1694 l 257
-409 1895 m 257
 -409 1563 l 257
 -210 1563 l 257
 -210 1895 l 257
 -409 1895 l 257
EndSplineSet
EndChar

StartChar: uni0941
Encoding: 2369 2369 411
GlifName: uni0941
Width: 2048
VWidth: 0
Flags: HW
LayerCount: 2
Fore
SplineSet
-0.5 1550 m 257
 -0.5 1350 l 257
 2047.5 1350 l 257
 2047.5 1550 l 257
 -0.5 1550 l 257
40.5 -23 m 257
 40.5 -222 l 257
 469.5 -222 l 257
 469.5 -23 l 257
 40.5 -23 l 257
269.5 -40 m 257
 269.5 -458 l 257
 469.5 -458 l 257
 469.5 -40 l 257
 269.5 -40 l 257
-228.5 -351 m 257
 -228.5 -550 l 257
 470.5 -550 l 257
 470.5 -351 l 257
 -228.5 -351 l 257
-228.5 -183 m 257
 -228.5 -448 l 257
 -28.5 -448 l 257
 -28.5 -183 l 257
 -228.5 -183 l 257
EndSplineSet
EndChar

StartChar: uni0942
Encoding: 2370 2370 412
GlifName: uni0942
Width: 2048
VWidth: 0
Flags: HW
LayerCount: 2
Fore
SplineSet
-1.5 1552 m 257
 -1.5 1353 l 257
 2048.5 1353 l 257
 2048.5 1552 l 257
 -1.5 1552 l 257
-26.5 -485 m 257
 -26.5 -285 l 257
 -340.5 -285 l 257
 -340.5 -485 l 257
 -26.5 -485 l 257
-139.5 -289 m 257
 -139.5 0 l 257
 -340.5 0 l 257
 -340.5 -289 l 257
 -139.5 -289 l 257
-340.5 0 m 257
 -340.5 -199 l 257
 75.5 -199 l 257
 75.5 0 l 257
 -340.5 0 l 257
74.5 -196 m 257
 329.5 -406 l 257
 592.5 -409 l 257
 75.5 0 l 257
 74.5 -196 l 257
EndSplineSet
EndChar

StartChar: uni0943
Encoding: 2371 2371 413
GlifName: uni0943
Width: 2048
VWidth: 0
Flags: HW
LayerCount: 2
Fore
SplineSet
-5 1549 m 257
 -5 1349 l 257
 2048 1349 l 257
 2048 1549 l 257
 -5 1549 l 257
-8 9 m 257
 -390 -133 l 257
 -320 -320 l 257
 61 -178 l 257
 -8 9 l 257
-390 -132 m 257
 -212 -611 l 257
 -24 -541 l 257
 -202 -62 l 257
 -390 -132 l 257
-270 -455 m 257
 -200 -643 l 257
 261 -471 l 257
 191 -284 l 257
 -270 -455 l 257
EndSplineSet
EndChar

StartChar: uni0944
Encoding: 2372 2372 414
GlifName: uni0944
Width: 2048
VWidth: 0
Flags: HW
LayerCount: 2
Fore
SplineSet
14 1547 m 257
 14 1347 l 257
 2048 1347 l 257
 2048 1547 l 257
 14 1547 l 257
-88 4 m 257
 -433 4 l 257
 -433 -196 l 257
 -88 -196 l 257
 -88 4 l 257
-488 3 m 257
 -488 -872 l 257
 -288 -872 l 257
 -288 3 l 257
 -488 3 l 257
-423 -321 m 257
 -423 -522 l 257
 -62 -522 l 257
 -62 -321 l 257
 -423 -321 l 257
-416 -672 m 257
 -421 -872 l 257
 -54 -872 l 257
 -49 -672 l 257
 -416 -672 l 257
EndSplineSet
EndChar

StartChar: uni0945
Encoding: 2373 2373 415
GlifName: uni0945
Width: 2048
VWidth: 0
Flags: HW
LayerCount: 2
Fore
SplineSet
-12 1553 m 257
 -12 1354 l 257
 2048 1354 l 257
 2048 1553 l 257
 -12 1553 l 257
-537 2124 m 257
 -537 1639 l 257
 -335 1639 l 257
 -335 2124 l 257
 -537 2124 l 257
-348 1841 m 257
 -348 1641 l 257
 246 1641 l 257
 246 1841 l 257
 -348 1841 l 257
210 2132 m 257
 210 1641 l 257
 410 1641 l 257
 410 2132 l 257
 210 2132 l 257
EndSplineSet
EndChar

StartChar: uni0946
Encoding: 2374 2374 416
GlifName: uni0946
Width: 2048
VWidth: 0
Flags: HW
LayerCount: 2
Fore
SplineSet
-43.5 1549 m 257
 -43.5 1350 l 257
 2047.5 1350 l 257
 2047.5 1549 l 257
 -43.5 1549 l 257
-684.5 2123 m 257
 -684.5 1823 l 257
 -484.5 1823 l 257
 -484.5 2123 l 257
 -684.5 2123 l 257
-685.5 1963 m 257
 -685.5 1763 l 257
 197.5 1763 l 257
 197.5 1963 l 257
 -685.5 1963 l 257
-2.5 1858 m 257
 -2.5 1540 l 257
 197.5 1540 l 257
 197.5 1858 l 257
 -2.5 1858 l 257
EndSplineSet
EndChar

StartChar: uni0947
Encoding: 2375 2375 417
GlifName: uni0947
Width: 2048
VWidth: 0
Flags: HW
LayerCount: 2
Fore
SplineSet
5 1550 m 257
 5 1350 l 257
 2048 1350 l 257
 2048 1550 l 257
 5 1550 l 257
-291 1919 m 257
 81 1447 l 257
 239 1555 l 257
 -109 2044 l 257
 -291 1919 l 257
EndSplineSet
EndChar

StartChar: uni0948
Encoding: 2376 2376 418
GlifName: uni0948
Width: 2048
VWidth: 0
Flags: HW
LayerCount: 2
Fore
SplineSet
-22.5 1548 m 257
 -22.5 1343 l 257
 2048.5 1343 l 257
 2048.5 1548 l 257
 -22.5 1548 l 257
-411.5 1750 m 257
 68.5 1546 l 257
 360.5 1546 l 257
 -275.5 1903 l 257
 -411.5 1750 l 257
177.5 1949 m 257
 240.5 1522 l 257
 452.5 1547 l 257
 374.5 1988 l 257
 177.5 1949 l 257
EndSplineSet
EndChar

StartChar: uni0949
Encoding: 2377 2377 419
GlifName: uni0949
Width: 2048
VWidth: 0
Flags: HW
LayerCount: 2
Fore
SplineSet
8.5 1548 m 257
 8.5 1347 l 257
 2047.5 1347 l 257
 2047.5 1548 l 257
 8.5 1548 l 257
918.5 1504 m 257
 918.5 2 l 257
 1119.5 2 l 257
 1119.5 1504 l 257
 918.5 1504 l 257
116.5 2085 m 257
 116.5 1639 l 257
 315.5 1639 l 257
 315.5 2085 l 257
 116.5 2085 l 257
260.5 1841 m 257
 260.5 1641 l 257
 1789.5 1641 l 257
 1789.5 1841 l 257
 260.5 1841 l 257
1718.5 2083 m 257
 1718.5 1641 l 257
 1917.5 1641 l 257
 1917.5 2083 l 257
 1718.5 2083 l 257
EndSplineSet
EndChar

StartChar: uni094A
Encoding: 2378 2378 420
GlifName: uni094A_
Width: 2048
VWidth: 0
Flags: HW
LayerCount: 2
Fore
SplineSet
24.5 1545 m 257
 24.5 1345 l 257
 2048.5 1352 l 257
 2048.5 1552 l 257
 24.5 1545 l 257
1050.5 1518 m 257
 1050.5 1 l 257
 1244.5 1 l 257
 1244.5 1518 l 257
 1050.5 1518 l 257
-210.5 2062 m 257
 -210.5 1823 l 257
 -10.5 1823 l 257
 -10.5 2062 l 257
 -210.5 2062 l 257
-210.5 1866 m 257
 -210.5 1665 l 257
 1072.5 1665 l 257
 1072.5 1866 l 257
 -210.5 1866 l 257
1044.5 1866 m 257
 1044.5 1545 l 257
 1243.5 1545 l 257
 1243.5 1866 l 257
 1044.5 1866 l 257
EndSplineSet
EndChar

StartChar: uni094B
Encoding: 2379 2379 421
GlifName: uni094B_
Width: 2048
VWidth: 0
Flags: HW
LayerCount: 2
Fore
SplineSet
3 1548 m 257
 3 1343 l 257
 2048 1343 l 257
 2048 1548 l 257
 3 1548 l 257
1006 1423 m 257
 1003 5 l 257
 1202 5 l 257
 1205 1423 l 257
 1006 1423 l 257
-100 1999 m 257
 880 1458 l 257
 1058 1550 l 257
 77 2092 l 257
 -100 1999 l 257
EndSplineSet
EndChar

StartChar: uni094C
Encoding: 2380 2380 422
GlifName: uni094C_
Width: 2048
VWidth: 0
Flags: HW
LayerCount: 2
Fore
SplineSet
0 1548 m 257
 0 1343 l 257
 2048 1343 l 257
 2048 1548 l 257
 0 1548 l 257
1099 1421 m 257
 1091 3 l 257
 1290 1 l 257
 1298 1419 l 257
 1099 1421 l 257
-348 1805 m 257
 10 1546 l 257
 383 1546 l 257
 -174 2000 l 257
 -348 1805 l 257
200 2058 m 257
 263 1522 l 257
 485 1548 l 257
 397 2107 l 257
 200 2058 l 257
EndSplineSet
EndChar

StartChar: uni094D
Encoding: 2381 2381 423
GlifName: uni094D_
Width: 2048
VWidth: 0
Flags: HW
LayerCount: 2
Fore
SplineSet
-553 -22 m 257
 -553 -218 l 257
 -196 -218 l 257
 -196 -22 l 257
 -553 -22 l 257
-337 -183 m 257
 133 -588 l 257
 277 -425 l 257
 -194 -21 l 257
 -337 -183 l 257
2 1563 m 257
 2 1361 l 257
 2058 1361 l 257
 2058 1563 l 257
 2 1563 l 257
EndSplineSet
EndChar

StartChar: glyph094D
Encoding: 65536 -1 424
GlifName: uni094D_.alt
Width: 2048
VWidth: 0
Flags: HW
LayerCount: 2
Fore
SplineSet
-553 -22 m 257
 -553 -218 l 257
 -196 -218 l 257
 -196 -22 l 257
 -553 -22 l 257
-337 -183 m 257
 133 -588 l 257
 277 -425 l 257
 -194 -21 l 257
 -337 -183 l 257
EndSplineSet
PickledDataWithLists: "(dp0
."
EndChar

StartChar: uni094E
Encoding: 2382 2382 425
GlifName: uni094E_
Width: 2048
VWidth: 0
Flags: HW
LayerCount: 2
Fore
SplineSet
793.5 1537 m 257
 793.5 1 l 257
 994.5 1 l 257
 994.5 1537 l 257
 793.5 1537 l 257
806.5 1544 m 257
 806.5 1342 l 257
 1254.5 1342 l 257
 1254.5 1544 l 257
 806.5 1544 l 257
EndSplineSet
EndChar

StartChar: uni094F
Encoding: 2383 2383 426
GlifName: uni094F_
Width: 2048
VWidth: 0
Flags: HW
LayerCount: 2
Fore
SplineSet
-2 1548 m 257
 -2 1347 l 257
 2048 1354 l 257
 2048 1555 l 257
 -2 1548 l 257
882 1518 m 257
 882 1 l 257
 1084 1 l 257
 1084 1518 l 257
 882 1518 l 257
-252 2062 m 257
 -252 1823 l 257
 -53 1823 l 257
 -53 2062 l 257
 -252 2062 l 257
-253 1866 m 257
 -253 1666 l 257
 430 1666 l 257
 430 1866 l 257
 -253 1866 l 257
232 1863 m 257
 232 1545 l 257
 430 1545 l 257
 430 1863 l 257
 232 1863 l 257
295 2450 m 257
 114 2104 l 257
 269 2029 l 257
 459 2355 l 257
 295 2450 l 257
256 2283 m 257
 144 2089 l 257
 686 1816 l 257
 809 1987 l 257
 256 2283 l 257
808 1986 m 257
 477 1530 l 257
 756 1528 l 257
 980 1879 l 257
 808 1986 l 257
EndSplineSet
EndChar

StartChar: uni0950
Encoding: 2384 2384 427
GlifName: uni0950
Width: 2048
VWidth: 0
Flags: HW
LayerCount: 2
Fore
SplineSet
1825 894 m 257
 1825 510 l 257
 2026 510 l 257
 2026 894 l 257
 1825 894 l 257
50 1547 m 257
 50 1348 l 257
 940 1348 l 257
 940 1547 l 257
 50 1547 l 257
780 1548 m 257
 780 140 l 257
 980 140 l 257
 980 1548 l 257
 780 1548 l 257
134 894 m 257
 134 693 l 257
 1855 693 l 257
 1855 894 l 257
 134 894 l 257
25 201 m 257
 25 1 l 257
 978 1 l 257
 978 201 l 257
 25 201 l 257
1356 1417 m 257
 1356 988 l 257
 1457 988 l 257
 1457 1417 l 257
 1356 1417 l 257
1390 1088 m 257
 1390 988 l 257
 1967 985 l 257
 1967 1085 l 257
 1390 1088 l 257
1886 1420 m 257
 1886 985 l 257
 1986 985 l 257
 1986 1420 l 257
 1886 1420 l 257
1523 1269 m 257
 1523 1188 l 257
 1828 1188 l 257
 1828 1269 l 257
 1523 1269 l 257
EndSplineSet
EndChar

StartChar: uni0951
Encoding: 2385 2385 428
GlifName: uni0951
Width: 2048
VWidth: 0
Flags: HW
LayerCount: 2
Fore
SplineSet
925 2128 m 257
 925 1738 l 257
 1123 1738 l 257
 1123 2128 l 257
 925 2128 l 257
EndSplineSet
EndChar

StartChar: uni0952
Encoding: 2386 2386 429
GlifName: uni0952
Width: 2048
VWidth: 0
Flags: HW
LayerCount: 2
Fore
SplineSet
609.5 -134 m 257
 609.5 -285 l 257
 1438.5 -285 l 257
 1438.5 -134 l 257
 609.5 -134 l 257
EndSplineSet
EndChar

StartChar: uni0953
Encoding: 2387 2387 430
GlifName: uni0953
Width: 2048
VWidth: 0
Flags: HW
LayerCount: 2
Fore
SplineSet
807.5 1786 m 257
 1137.5 1318 l 257
 1240.5 1339 l 257
 1022.5 1841 l 257
 807.5 1786 l 257
EndSplineSet
EndChar

StartChar: uni0954
Encoding: 2388 2388 431
GlifName: uni0954
Width: 2048
VWidth: 0
Flags: HW
LayerCount: 2
Fore
SplineSet
985 1894 m 257
 831 1385 l 257
 972 1376 l 257
 1217 1850 l 257
 985 1894 l 257
EndSplineSet
EndChar

StartChar: uni0955
Encoding: 2389 2389 432
GlifName: uni0955
Width: 2048
VWidth: 0
Flags: HW
LayerCount: 2
Fore
SplineSet
-58 1553 m 257
 -58 1354 l 257
 2048 1354 l 257
 2048 1553 l 257
 -58 1553 l 257
-436 2190 m 257
 -436 1849 l 257
 -236 1849 l 257
 -236 2190 l 257
 -436 2190 l 257
-390 2047 m 257
 -390 1848 l 257
 204 1848 l 257
 204 2047 l 257
 -390 2047 l 257
30 2190 m 257
 30 1848 l 257
 228 1848 l 257
 228 2190 l 257
 30 2190 l 257
-528 1787 m 257
 -528 1588 l 257
 300 1588 l 257
 300 1787 l 257
 -528 1787 l 257
EndSplineSet
EndChar

StartChar: uni0956
Encoding: 2390 2390 433
GlifName: uni0956
Width: 2048
VWidth: 0
Flags: HW
LayerCount: 2
Fore
SplineSet
-4 1553 m 257
 -4 1354 l 257
 2048 1354 l 257
 2048 1553 l 257
 -4 1553 l 257
-761 -58 m 257
 -758 -391 l 257
 -559 -391 l 257
 -562 -58 l 257
 -761 -58 l 257
-569 -191 m 257
 -569 -390 l 257
 25 -390 l 257
 25 -191 l 257
 -569 -191 l 257
-151 -53 m 257
 -151 -391 l 257
 49 -391 l 257
 49 -53 l 257
 -151 -53 l 257
EndSplineSet
EndChar

StartChar: uni0957
Encoding: 2391 2391 434
GlifName: uni0957
Width: 2048
VWidth: 0
Flags: HW
LayerCount: 2
Fore
SplineSet
-7 1553 m 257
 -7 1353 l 257
 2048 1353 l 257
 2048 1553 l 257
 -7 1553 l 257
-618 1 m 257
 -617 -236 l 257
 -547 -236 l 257
 -548 1 l 257
 -618 1 l 257
-572 -175 m 257
 -572 -235 l 257
 22 -235 l 257
 22 -175 l 257
 -572 -175 l 257
-13 1 m 257
 -13 -236 l 257
 46 -236 l 257
 46 1 l 257
 -13 1 l 257
-618 -394 m 257
 -617 -639 l 257
 -547 -639 l 257
 -548 -394 l 257
 -618 -394 l 257
-572 -578 m 257
 -572 -638 l 257
 22 -638 l 257
 22 -578 l 257
 -572 -578 l 257
-13 -394 m 257
 -13 -641 l 257
 46 -641 l 257
 46 -394 l 257
 -13 -394 l 257
EndSplineSet
EndChar

StartChar: uni0958
Encoding: 2392 2392 435
GlifName: uni0958
Width: 2048
VWidth: 0
Flags: HW
LayerCount: 2
Fore
SplineSet
10 1547 m 257
 10 1346 l 257
 2048 1343 l 257
 2048 1544 l 257
 10 1547 l 257
1113 1516 m 257
 1113 10 l 257
 1315 10 l 257
 1315 1516 l 257
 1113 1516 l 257
142 1029 m 257
 142 829 l 257
 1205 829 l 257
 1205 1029 l 257
 142 1029 l 257
142 987 m 257
 136 439 l 257
 306 443 l 257
 308 989 l 257
 142 987 l 257
160 597 m 257
 160 405 l 257
 1167 401 l 257
 1167 604 l 257
 160 597 l 257
1219 947 m 257
 1219 746 l 257
 1955 746 l 257
 1955 947 l 257
 1219 947 l 257
1756 872 m 257
 1750 587 l 257
 1952 587 l 257
 1955 879 l 257
 1756 872 l 257
763.5 -34 m 257
 765.5 -281 l 257
 1030.5 -281 l 257
 1028.5 -34 l 257
 763.5 -34 l 257
EndSplineSet
Ligature2: "nuktNuktaFormsinDevanagarilookup0 subtable" uni0915 uni093C
EndChar

StartChar: uni0959
Encoding: 2393 2393 436
GlifName: uni0959
Width: 2048
VWidth: 0
Flags: HW
LayerCount: 2
Fore
SplineSet
0 1549 m 257
 0 1349 l 257
 2056 1349 l 257
 2056 1549 l 257
 0 1549 l 257
1724 1514 m 257
 1724 0 l 257
 1924 0 l 257
 1924 1514 l 257
 1724 1514 l 257
1037 979 m 257
 1037 779 l 257
 1465 779 l 257
 1465 979 l 257
 1037 979 l 257
1007 979 m 257
 1007 457 l 257
 1207 457 l 257
 1207 979 l 257
 1007 979 l 257
1007 568 m 257
 1007 368 l 257
 1776 368 l 257
 1776 568 l 257
 1007 568 l 257
322 1441 m 257
 321 120 l 257
 521 120 l 257
 522 1441 l 257
 322 1441 l 257
17 734 m 257
 17 534 l 257
 521 534 l 257
 521 734 l 257
 17 734 l 257
321 270 m 257
 321 70 l 257
 1861 70 l 257
 1861 270 l 257
 321 270 l 257
942.5 -14 m 257
 944.5 -261 l 257
 1209.5 -261 l 257
 1207.5 -14 l 257
 942.5 -14 l 257
EndSplineSet
Ligature2: "nuktNuktaFormsinDevanagarilookup0 subtable" uni0916 uni093C
EndChar

StartChar: uni095A
Encoding: 2394 2394 437
GlifName: uni095A_
Width: 2048
VWidth: 0
Flags: HW
LayerCount: 2
Fore
SplineSet
0 853 m 257
 199 853 l 257
 199 1044 l 257
 0 1044 l 257
 0 853 l 257
0 882 m 257
 0 683 l 257
 988 683 l 257
 988 882 l 257
 0 882 l 257
789 1548 m 257
 789 812 l 257
 988 812 l 257
 988 1548 l 257
 789 1548 l 257
1946 1548 m 257
 159 1548 l 257
 159 1348 l 257
 1946 1348 l 257
 1946 1548 l 257
1666 1523 m 257
 1666 0 l 257
 1865 0 l 257
 1865 1523 l 257
 1666 1523 l 257
1019.5 20 m 257
 1021.5 -227 l 257
 1286.5 -227 l 257
 1284.5 20 l 257
 1019.5 20 l 257
EndSplineSet
Ligature2: "nuktNuktaFormsinDevanagarilookup0 subtable" uni0917 uni093C
EndChar

StartChar: uni095B
Encoding: 2395 2395 438
GlifName: uni095B_
Width: 2048
VWidth: 0
Flags: HW
LayerCount: 2
Fore
SplineSet
0 1551 m 257
 0 1350 l 257
 2082 1350 l 257
 2082 1551 l 257
 0 1551 l 257
1736 1551 m 257
 1736 -12 l 257
 1935 -12 l 257
 1935 1551 l 257
 1736 1551 l 257
943 860 m 257
 943 663 l 257
 1869 663 l 257
 1869 860 l 257
 943 860 l 257
897 860 m 257
 897 413 l 257
 1097 413 l 257
 1097 860 l 257
 897 860 l 257
75 567 m 257
 75 367 l 257
 1097 367 l 257
 1097 567 l 257
 75 567 l 257
75 855 m 257
 75 509 l 257
 275 509 l 257
 275 855 l 257
 75 855 l 257
1015.5 10 m 257
 1017.5 -237 l 257
 1282.5 -237 l 257
 1280.5 10 l 257
 1015.5 10 l 257
EndSplineSet
Ligature2: "nuktNuktaFormsinDevanagarilookup0 subtable" uni091C uni093C
EndChar

StartChar: uni095C
Encoding: 2396 2396 439
GlifName: uni095C_
Width: 2048
VWidth: 0
Flags: HW
LayerCount: 2
Fore
SplineSet
0 1549 m 257
 0 1345 l 257
 2046 1345 l 257
 2046 1549 l 257
 0 1549 l 257
894 1545 m 257
 894 1014 l 257
 1093 1014 l 257
 1093 1545 l 257
 894 1545 l 257
894 1025 m 257
 894 815 l 257
 1944 815 l 257
 1944 1025 l 257
 894 1025 l 257
1771 1025 m 257
 1771 5 l 257
 1970 5 l 257
 1970 1025 l 257
 1771 1025 l 257
60 200 m 257
 60 0 l 257
 1970 0 l 257
 1970 200 l 257
 60 200 l 257
60 331 m 257
 60 5 l 257
 260 5 l 257
 260 331 l 257
 60 331 l 257
1057.5 -98 m 257
 1059.5 -345 l 257
 1324.5 -345 l 257
 1322.5 -98 l 257
 1057.5 -98 l 257
EndSplineSet
Ligature2: "nuktNuktaFormsinDevanagarilookup0 subtable" uni0921 uni093C
EndChar

StartChar: uni095D
Encoding: 2397 2397 440
GlifName: uni095D_
Width: 2048
VWidth: 0
Flags: HW
LayerCount: 2
Fore
SplineSet
0 1549 m 257
 0 1348 l 257
 2038 1348 l 257
 2038 1549 l 257
 0 1549 l 257
1583 1528 m 257
 1583 988 l 257
 1783 988 l 257
 1783 1528 l 257
 1583 1528 l 257
1783 1023 m 257
 110 1023 l 257
 110 822 l 257
 1783 822 l 257
 1783 1023 l 257
89 1024 m 257
 89 5 l 257
 289 5 l 257
 289 1024 l 257
 89 1024 l 257
89 201 m 257
 89 0 l 257
 1826 0 l 257
 1826 201 l 257
 89 201 l 257
1627 544 m 257
 1627 -2 l 257
 1828 -2 l 257
 1828 544 l 257
 1627 544 l 257
1574 547 m 257
 1574 347 l 257
 1826 347 l 257
 1826 547 l 257
 1574 547 l 257
1053.5 -106 m 257
 1055.5 -353 l 257
 1320.5 -353 l 257
 1318.5 -106 l 257
 1053.5 -106 l 257
EndSplineSet
Ligature2: "nuktNuktaFormsinDevanagarilookup0 subtable" uni0922 uni093C
EndChar

StartChar: uni095E
Encoding: 2398 2398 441
GlifName: uni095E_
Width: 2048
VWidth: 0
Flags: HW
LayerCount: 2
Fore
SplineSet
0 1549 m 257
 0 1349 l 257
 2078 1349 l 257
 2078 1549 l 257
 0 1549 l 257
1393 1539 m 257
 1393 2 l 257
 1593 2 l 257
 1593 1539 l 257
 1393 1539 l 257
124 1551 m 257
 124 837 l 257
 325 837 l 257
 325 1551 l 257
 124 1551 l 257
124 1024 m 257
 124 824 l 257
 2018 824 l 257
 2018 1024 l 257
 124 1024 l 257
1828 1024 m 257
 1828 686 l 257
 2027 686 l 257
 2027 1024 l 257
 1828 1024 l 257
945.5 -58 m 257
 947.5 -305 l 257
 1212.5 -305 l 257
 1210.5 -58 l 257
 945.5 -58 l 257
EndSplineSet
Ligature2: "nuktNuktaFormsinDevanagarilookup0 subtable" uni092B uni093C
EndChar

StartChar: uni095F
Encoding: 2399 2399 442
GlifName: uni095F_
Width: 2048
VWidth: 0
Flags: HW
HStem: 19 247
VStem: 1714 265
LayerCount: 2
Fore
SplineSet
0 1550 m 257
 0 1351 l 257
 2066 1351 l 257
 2066 1550 l 257
 0 1550 l 257
1731 1531 m 257
 1731 0 l 257
 1932 0 l 257
 1932 1531 l 257
 1731 1531 l 257
143 1484 m 257
 636 847 l 257
 846 846 l 257
 337 1536 l 257
 143 1484 l 257
636 847 m 257
 145 472 l 257
 308 405 l 257
 846 846 l 257
 636 847 l 257
352 626 m 257
 303 412 l 257
 1861 185 l 257
 1938 358 l 257
 352 626 l 257
911.5 -34 m 257
 913.5 -281 l 257
 1178.5 -281 l 257
 1176.5 -34 l 257
 911.5 -34 l 257
EndSplineSet
PickledDataWithLists: "(dp0
Vcom.fontlab.hintData
p1
(dp2
Vhhints
p3
(lp4
(dp5
Vposition
p6
I19
sVwidth
p7
I247
sasVvhints
p8
(lp9
(dp10
g6
I1714
sg7
I265
sass."
Ligature2: "nuktNuktaFormsinDevanagarilookup0 subtable" uni092F uni093C
EndChar

StartChar: uni0960
Encoding: 2400 2400 443
GlifName: uni0960
Width: 2048
VWidth: 0
Flags: HW
LayerCount: 2
Fore
SplineSet
8 1546 m 257
 8 1347 l 257
 2042 1347 l 257
 2042 1546 l 257
 8 1546 l 257
1020 1530 m 257
 1020 -3 l 257
 1219 -3 l 257
 1235 1529 l 257
 1020 1530 l 257
22 1044 m 257
 22 845 l 257
 326 845 l 257
 326 1044 l 257
 22 1044 l 257
1023 496 m 257
 118 329 l 257
 200 136 l 257
 1105 303 l 257
 1023 496 l 257
326 1044 m 257
 326 846 l 257
 1120 742 l 257
 1120 944 l 257
 326 1044 l 257
1207 897 m 257
 1207 699 l 257
 2030 699 l 257
 2030 897 l 257
 1207 897 l 257
1808 897 m 257
 1808 158 l 257
 2007 158 l 257
 2007 897 l 257
 1808 897 l 257
1884 358 m 257
 1884 158 l 257
 2048 158 l 257
 2048 358 l 257
 1884 358 l 257
1874 637 m 257
 1874 437 l 257
 2038 437 l 257
 2038 637 l 257
 1874 637 l 257
EndSplineSet
EndChar

StartChar: uni0961
Encoding: 2401 2401 444
GlifName: uni0961
Width: 2048
VWidth: 0
Flags: HW
LayerCount: 2
Fore
SplineSet
-16 1551 m 257
 -16 1352 l 257
 2047 1352 l 257
 2047 1551 l 257
 -16 1551 l 257
1033 1551 m 257
 1033 689 l 257
 1233 689 l 257
 1233 1551 l 257
 1033 1551 l 257
1980 791 m 257
 42 791 l 257
 42 590 l 257
 1980 590 l 257
 1980 791 l 257
42 777 m 257
 42 252 l 257
 243 252 l 257
 243 777 l 257
 42 777 l 257
905 791 m 257
 905 433 l 257
 1106 433 l 257
 1106 791 l 257
 905 791 l 257
1769 792 m 257
 1769 73 l 257
 1969 73 l 257
 1969 792 l 257
 1769 792 l 257
1844 259 m 257
 1844 71 l 257
 2045 71 l 257
 2045 259 l 257
 1844 259 l 257
1844 509 m 257
 1844 321 l 257
 2045 321 l 257
 2045 509 l 257
 1844 509 l 257
EndSplineSet
EndChar

StartChar: uni0962
Encoding: 2402 2402 445
GlifName: uni0962
Width: 2048
VWidth: 0
Flags: HW
LayerCount: 2
Fore
SplineSet
-7 1551 m 257
 -7 1351 l 257
 2048 1351 l 257
 2048 1551 l 257
 -7 1551 l 257
119 -16 m 257
 -798 -16 l 257
 -798 -216 l 257
 119 -216 l 257
 119 -16 l 257
-795 -30 m 257
 -795 -555 l 257
 -595 -555 l 257
 -595 -30 l 257
 -795 -30 l 257
-443 -16 m 257
 -443 -374 l 257
 -243 -374 l 257
 -243 -16 l 257
 -443 -16 l 257
-92 -15 m 257
 -92 -503 l 257
 108 -503 l 257
 108 -15 l 257
 -92 -15 l 257
79 -303 m 257
 78 -503 l 257
 170 -503 l 257
 171 -303 l 257
 79 -303 l 257
EndSplineSet
EndChar

StartChar: uni0963
Encoding: 2403 2403 446
GlifName: uni0963
Width: 2048
VWidth: 0
Flags: HW
LayerCount: 2
Fore
SplineSet
-7 1551 m 257
 -7 1351 l 257
 2048 1351 l 257
 2048 1551 l 257
 -7 1551 l 257
100 -16 m 257
 -798 -16 l 257
 -798 -217 l 257
 100 -217 l 257
 100 -16 l 257
-795 -30 m 257
 -795 -555 l 257
 -596 -555 l 257
 -596 -30 l 257
 -795 -30 l 257
-443 -16 m 257
 -443 -374 l 257
 -242 -374 l 257
 -242 -16 l 257
 -443 -16 l 257
-93 -15 m 257
 -93 -734 l 257
 108 -734 l 257
 108 -15 l 257
 -93 -15 l 257
78 -534 m 257
 78 -734 l 257
 170 -734 l 257
 170 -534 l 257
 78 -534 l 257
78 -238 m 257
 78 -438 l 257
 170 -438 l 257
 170 -238 l 257
 78 -238 l 257
EndSplineSet
EndChar

StartChar: uni0964
Encoding: 2404 2404 447
GlifName: uni0964
Width: 2048
VWidth: 0
Flags: HW
LayerCount: 2
Fore
SplineSet
924.5 1027 m 257
 924.5 -79 l 257
 1123.5 -79 l 257
 1123.5 1027 l 257
 924.5 1027 l 257
EndSplineSet
EndChar

StartChar: uni0965
Encoding: 2405 2405 448
GlifName: uni0965
Width: 2048
VWidth: 0
Flags: HW
LayerCount: 2
Fore
SplineSet
774.5 1027 m 257
 774.5 -79 l 257
 973.5 -79 l 257
 973.5 1027 l 257
 774.5 1027 l 257
1074.5 1027 m 257
 1074.5 -79 l 257
 1273.5 -79 l 257
 1273.5 1027 l 257
 1074.5 1027 l 257
EndSplineSet
EndChar

StartChar: uni0966
Encoding: 2406 2406 449
GlifName: uni0966
Width: 2048
VWidth: 0
Flags: HW
LayerCount: 2
Fore
SplineSet
119 994 m 257
 119 336 l 257
 319 336 l 257
 319 994 l 257
 119 994 l 257
119 1024 m 257
 119 823 l 257
 1891 823 l 257
 1891 1024 l 257
 119 1024 l 257
1692 1023 m 257
 1692 341 l 257
 1893 341 l 257
 1893 1023 l 257
 1692 1023 l 257
119 488 m 257
 119 288 l 257
 1893 288 l 257
 1893 488 l 257
 119 488 l 257
EndSplineSet
EndChar

StartChar: uni0967
Encoding: 2407 2407 450
GlifName: uni0967
Width: 2048
VWidth: 0
Flags: HW
LayerCount: 2
Fore
SplineSet
227 1279 m 257
 227 748 l 257
 428 748 l 257
 428 1279 l 257
 227 1279 l 257
298 1279 m 257
 298 1078 l 257
 1865 1078 l 257
 1865 1279 l 257
 298 1279 l 257
1711 1279 m 257
 1711 -29 l 257
 1911 -29 l 257
 1911 1279 l 257
 1711 1279 l 257
274 948 m 257
 274 749 l 257
 1845 749 l 257
 1845 948 l 257
 274 948 l 257
EndSplineSet
EndChar

StartChar: uni0968
Encoding: 2408 2408 451
GlifName: uni0968
Width: 2048
VWidth: 0
Flags: HW
LayerCount: 2
Fore
SplineSet
177 1275 m 257
 177 1076 l 257
 1841 1076 l 257
 1841 1275 l 257
 177 1275 l 257
1693 1274 m 257
 1693 497 l 257
 1893 497 l 257
 1893 1274 l 257
 1693 1274 l 257
224 687 m 257
 224 488 l 257
 1893 488 l 257
 1893 687 l 257
 224 687 l 257
221 486 m 257
 1801 4 l 257
 1996 68 l 257
 359 583 l 257
 221 486 l 257
172 1275 m 257
 172 913 l 257
 372 913 l 257
 372 1275 l 257
 172 1275 l 257
EndSplineSet
EndChar

StartChar: uni0969
Encoding: 2409 2409 452
GlifName: uni0969
Width: 2048
VWidth: 0
Flags: HW
LayerCount: 2
Fore
SplineSet
315 1258 m 257
 315 1057 l 257
 1816 1057 l 257
 1816 1258 l 257
 315 1258 l 257
1615 1247 m 257
 1615 311 l 257
 1816 311 l 257
 1816 1247 l 257
 1615 1247 l 257
355 863 m 257
 355 664 l 257
 1813 664 l 257
 1813 863 l 257
 355 863 l 257
333 495 m 257
 333 295 l 257
 1816 295 l 257
 1816 495 l 257
 333 495 l 257
333 295 m 257
 412 -107 l 257
 608 -67 l 257
 527 336 l 257
 333 295 l 257
EndSplineSet
EndChar

StartChar: uni096A
Encoding: 2410 2410 453
GlifName: uni096A_
Width: 2048
VWidth: 0
Flags: HW
LayerCount: 2
Fore
SplineSet
1760 970 m 257
 158 317 l 257
 358 317 l 257
 1959 970 l 257
 1760 970 l 257
161 963 m 257
 1741 317 l 257
 1940 316 l 257
 359 963 l 257
 161 963 l 257
158 227 m 257
 158 28 l 257
 1941 28 l 257
 1941 230 l 257
 158 227 l 257
158 317 m 257
 158 95 l 257
 358 95 l 257
 358 317 l 257
 158 317 l 257
1741 317 m 257
 1741 95 l 257
 1941 95 l 257
 1941 317 l 257
 1741 317 l 257
161 1169 m 257
 161 963 l 257
 362 963 l 257
 362 1169 l 257
 161 1169 l 257
1759 1171 m 257
 1759 970 l 257
 1959 970 l 257
 1959 1171 l 257
 1759 1171 l 257
EndSplineSet
EndChar

StartChar: uni096B
Encoding: 2411 2411 454
GlifName: uni096B_
Width: 2048
VWidth: 0
Flags: HW
LayerCount: 2
Fore
SplineSet
123 1285 m 257
 123 524 l 257
 322 524 l 257
 322 1285 l 257
 123 1285 l 257
121 670 m 257
 121 471 l 257
 1791 471 l 257
 1791 670 l 257
 121 670 l 257
1723 911 m 257
 1730 -8 l 257
 1930 -6 l 257
 1923 912 l 257
 1723 911 l 257
449 162 m 257
 449 -39 l 257
 1926 -39 l 257
 1926 162 l 257
 449 162 l 257
EndSplineSet
EndChar

StartChar: uni096C
Encoding: 2412 2412 455
GlifName: uni096C_
Width: 2048
VWidth: 0
Flags: HW
LayerCount: 2
Fore
SplineSet
146 1264 m 257
 146 1065 l 257
 1800 1065 l 257
 1800 1264 l 257
 146 1264 l 257
89 1269 m 257
 89 136 l 257
 289 136 l 257
 289 1269 l 257
 89 1269 l 257
124 795 m 257
 124 595 l 257
 1790 595 l 257
 1790 795 l 257
 124 795 l 257
159 335 m 257
 159 135 l 257
 1880 135 l 257
 1880 335 l 257
 159 335 l 257
1680 397 m 257
 1680 -96 l 257
 1880 -96 l 257
 1880 397 l 257
 1680 397 l 257
EndSplineSet
EndChar

StartChar: uni096D
Encoding: 2413 2413 456
GlifName: uni096D_
Width: 2048
VWidth: 0
Flags: HW
LayerCount: 2
Fore
SplineSet
59 1168 m 257
 59 230 l 257
 257 230 l 257
 257 1168 l 257
 59 1168 l 257
59 315 m 257
 59 116 l 257
 1950 116 l 257
 1950 315 l 257
 59 315 l 257
1798 1073 m 257
 1798 116 l 257
 2000 116 l 257
 2000 1073 l 257
 1798 1073 l 257
1957 1073 m 257
 505 1073 l 257
 505 871 l 257
 1957 871 l 257
 1957 1073 l 257
471 1073 m 257
 470 708 l 257
 668 708 l 257
 669 1073 l 257
 471 1073 l 257
EndSplineSet
EndChar

StartChar: uni096E
Encoding: 2414 2414 457
GlifName: uni096E_
Width: 2048
VWidth: 0
Flags: HW
LayerCount: 2
Fore
SplineSet
119 246 m 257
 119 45 l 257
 1931 45 l 257
 1931 246 l 257
 119 246 l 257
1660 1291 m 257
 119 246 l 257
 299 158 l 257
 1840 1203 l 257
 1660 1291 l 257
EndSplineSet
EndChar

StartChar: uni096F
Encoding: 2415 2415 458
GlifName: uni096F_
Width: 2048
VWidth: 0
Flags: HW
LayerCount: 2
Fore
SplineSet
321 804 m 257
 321 606 l 257
 1838 606 l 257
 1838 804 l 257
 321 804 l 257
1678 607 m 257
 1877 607 l 257
 1877 1209 l 257
 1678 1209 l 257
 1678 607 l 257
226 1265 m 257
 226 1066 l 257
 1877 1066 l 257
 1877 1265 l 257
 226 1265 l 257
230 1261 m 257
 230 490 l 257
 429 490 l 257
 429 1261 l 257
 230 1261 l 257
230 493 m 257
 1661 -36 l 257
 1829 71 l 257
 397 601 l 257
 230 493 l 257
EndSplineSet
EndChar

StartChar: uni0970
Encoding: 2416 2416 459
GlifName: uni0970
Width: 2048
VWidth: 0
Flags: HW
HStem: 587 370
VStem: 2027 398
LayerCount: 2
Fore
SplineSet
823.75 507.75 m 257
 826.75 137.25 l 257
 1224.25 137.25 l 257
 1221.25 507.75 l 257
 823.75 507.75 l 257
EndSplineSet
PickledDataWithLists: "(dp0
Vcom.fontlab.hintData
p1
(dp2
Vhhints
p3
(lp4
(dp5
Vposition
p6
I587
sVwidth
p7
I370
sasVvhints
p8
(lp9
(dp10
g6
I2027
sg7
I398
sass."
EndChar

StartChar: uni0971
Encoding: 2417 2417 460
GlifName: uni0971
Width: 2048
VWidth: 0
Flags: HW
HStem: 999 247
VStem: 1693 265
LayerCount: 2
Fore
SplineSet
890.5 946 m 257
 892.5 699 l 257
 1157.5 699 l 257
 1155.5 946 l 257
 890.5 946 l 257
EndSplineSet
PickledDataWithLists: "(dp0
Vcom.fontlab.hintData
p1
(dp2
Vhhints
p3
(lp4
(dp5
Vposition
p6
I999
sVwidth
p7
I247
sasVvhints
p8
(lp9
(dp10
g6
I1693
sg7
I265
sass."
EndChar

StartChar: uni0972
Encoding: 2418 2418 461
GlifName: uni0972
Width: 2048
VWidth: 0
Flags: HW
LayerCount: 2
Fore
SplineSet
1740 1548 m 257
 1740 1348 l 257
 2051 1348 l 257
 2051 1548 l 257
 1740 1548 l 257
1801 1419 m 257
 1801 1 l 257
 2000 1 l 257
 2000 1419 l 257
 1801 1419 l 257
50 1547 m 257
 50 1348 l 257
 1085 1348 l 257
 1085 1547 l 257
 50 1547 l 257
911 1548 m 257
 911 140 l 257
 1111 140 l 257
 1111 1548 l 257
 911 1548 l 257
134 894 m 257
 134 693 l 257
 1855 693 l 257
 1855 894 l 257
 134 894 l 257
25 201 m 257
 25 1 l 257
 1111 1 l 257
 1111 201 l 257
 25 201 l 257
861 1970 m 257
 861 1629 l 257
 1060 1629 l 257
 1060 1970 l 257
 861 1970 l 257
907 1827 m 257
 907 1628 l 257
 2013 1628 l 257
 2013 1827 l 257
 907 1827 l 257
1838 1970 m 257
 1838 1628 l 257
 2037 1628 l 257
 2037 1970 l 257
 1838 1970 l 257
EndSplineSet
EndChar

StartChar: uni0973
Encoding: 2419 2419 462
GlifName: uni0973
Width: 2048
VWidth: 0
Flags: HW
LayerCount: 2
Fore
SplineSet
1740 1548 m 257
 1740 1348 l 257
 2051 1348 l 257
 2051 1548 l 257
 1740 1548 l 257
1801 1419 m 257
 1801 1 l 257
 2000 1 l 257
 2000 1419 l 257
 1801 1419 l 257
50 1547 m 257
 50 1348 l 257
 1085 1348 l 257
 1085 1547 l 257
 50 1547 l 257
911 1548 m 257
 911 140 l 257
 1111 140 l 257
 1111 1548 l 257
 911 1548 l 257
134 894 m 257
 134 693 l 257
 1855 693 l 257
 1855 894 l 257
 134 894 l 257
25 201 m 257
 25 1 l 257
 1111 1 l 257
 1111 201 l 257
 25 201 l 257
1806 1933 m 257
 1806 1510 l 257
 1978 1510 l 257
 1978 1933 l 257
 1806 1933 l 257
EndSplineSet
EndChar

StartChar: uni0974
Encoding: 2420 2420 463
GlifName: uni0974
Width: 2048
VWidth: 0
Flags: HW
LayerCount: 2
Fore
SplineSet
1034 1548 m 257
 1034 1348 l 257
 2051 1348 l 257
 2051 1548 l 257
 1034 1548 l 257
1033 1419 m 257
 1033 1 l 257
 1232 1 l 257
 1232 1419 l 257
 1033 1419 l 257
50 1547 m 257
 50 1348 l 257
 389 1348 l 257
 389 1547 l 257
 50 1547 l 257
215 1548 m 257
 215 140 l 257
 415 140 l 257
 415 1548 l 257
 215 1548 l 257
86 894 m 257
 86 693 l 257
 1159 693 l 257
 1159 894 l 257
 86 894 l 257
25 201 m 257
 25 1 l 257
 415 1 l 257
 415 201 l 257
 25 201 l 257
1808 1819 m 257
 1808 4 l 257
 2008 4 l 257
 2008 1819 l 257
 1808 1819 l 257
EndSplineSet
EndChar

StartChar: uni0975
Encoding: 2421 2421 464
GlifName: uni0975
Width: 2048
VWidth: 0
Flags: HW
LayerCount: 2
Fore
SplineSet
1549 1543 m 257
 1549 1343 l 257
 2037 1343 l 257
 2037 1543 l 257
 1549 1543 l 257
1570 1860 m 257
 1570 1 l 257
 1769 1 l 257
 1769 1860 l 257
 1570 1860 l 257
25 1548 m 257
 25 1348 l 257
 1019 1348 l 257
 1019 1548 l 257
 25 1548 l 257
845 1548 m 257
 845 140 l 257
 1045 140 l 257
 1045 1548 l 257
 845 1548 l 257
109 894 m 257
 109 693 l 257
 1664 693 l 257
 1664 894 l 257
 109 894 l 257
0 201 m 257
 0 1 l 257
 1045 1 l 257
 1045 201 l 257
 0 201 l 257
1832 1420 m 257
 1832 2 l 257
 2031 2 l 257
 2031 1420 l 257
 1832 1420 l 257
466 2062 m 257
 466 1823 l 257
 665 1823 l 257
 665 2062 l 257
 466 2062 l 257
465 1866 m 257
 465 1666 l 257
 1735 1666 l 257
 1735 1866 l 257
 465 1866 l 257
1600 2450 m 257
 1419 2104 l 257
 1574 2029 l 257
 1764 2355 l 257
 1600 2450 l 257
1561 2283 m 257
 1449 2089 l 257
 1991 1816 l 257
 2114 1987 l 257
 1561 2283 l 257
2113 1986 m 257
 1782 1530 l 257
 2061 1528 l 257
 2285 1879 l 257
 2113 1986 l 257
EndSplineSet
EndChar

StartChar: uni0976
Encoding: 2422 2422 465
GlifName: uni0976
Width: 2048
VWidth: 0
Flags: HW
LayerCount: 2
Fore
SplineSet
1740 1548 m 257
 1740 1348 l 257
 2051 1348 l 257
 2051 1548 l 257
 1740 1548 l 257
1801 1419 m 257
 1801 1 l 257
 2000 1 l 257
 2000 1419 l 257
 1801 1419 l 257
50 1547 m 257
 50 1348 l 257
 1085 1348 l 257
 1085 1547 l 257
 50 1547 l 257
911 1548 m 257
 911 140 l 257
 1111 140 l 257
 1111 1548 l 257
 911 1548 l 257
134 894 m 257
 134 693 l 257
 1855 693 l 257
 1855 894 l 257
 134 894 l 257
25 201 m 257
 25 1 l 257
 1111 1 l 257
 1111 201 l 257
 25 201 l 257
75 -58 m 257
 78 -391 l 257
 277 -391 l 257
 274 -58 l 257
 75 -58 l 257
267 -191 m 257
 267 -390 l 257
 1885 -390 l 257
 1885 -191 l 257
 267 -191 l 257
1709 -53 m 257
 1709 -391 l 257
 1909 -391 l 257
 1909 -53 l 257
 1709 -53 l 257
EndSplineSet
EndChar

StartChar: uni0977
Encoding: 2423 2423 466
GlifName: uni0977
Width: 2048
VWidth: 0
Flags: HW
LayerCount: 2
Fore
SplineSet
1740 1548 m 257
 1740 1348 l 257
 2051 1348 l 257
 2051 1548 l 257
 1740 1548 l 257
1801 1419 m 257
 1808 -1 l 257
 2000 1 l 257
 2000 1419 l 257
 1801 1419 l 257
50 1547 m 257
 50 1348 l 257
 1085 1348 l 257
 1085 1547 l 257
 50 1547 l 257
911 1548 m 257
 911 140 l 257
 1111 140 l 257
 1111 1548 l 257
 911 1548 l 257
134 894 m 257
 134 693 l 257
 1855 693 l 257
 1855 894 l 257
 134 894 l 257
25 201 m 257
 25 1 l 257
 1111 1 l 257
 1111 201 l 257
 25 201 l 257
181 -40 m 257
 182 -277 l 257
 252 -277 l 257
 251 -40 l 257
 181 -40 l 257
227 -216 m 257
 227 -276 l 257
 1845 -276 l 257
 1845 -216 l 257
 227 -216 l 257
1810 -40 m 257
 1810 -277 l 257
 1869 -277 l 257
 1869 -40 l 257
 1810 -40 l 257
181 -394 m 257
 182 -639 l 257
 252 -639 l 257
 251 -394 l 257
 181 -394 l 257
227 -578 m 257
 227 -638 l 257
 1845 -638 l 257
 1845 -578 l 257
 227 -578 l 257
1810 -394 m 257
 1810 -641 l 257
 1869 -641 l 257
 1869 -394 l 257
 1810 -394 l 257
EndSplineSet
EndChar

StartChar: uni0978
Encoding: 2424 2424 467
GlifName: uni0978
Width: 2048
VWidth: 0
Flags: HW
LayerCount: 2
Fore
SplineSet
7 1550 m 257
 7 1350 l 257
 2048 1350 l 257
 2048 1550 l 257
 7 1550 l 257
335 1509 m 257
 335 737 l 257
 535 737 l 257
 535 1509 l 257
 335 1509 l 257
1785 1023 m 257
 61 1023 l 257
 61 824 l 257
 1785 824 l 257
 1785 1023 l 257
1715 1023 m 257
 1715 246 l 257
 1915 246 l 257
 1915 1023 l 257
 1715 1023 l 257
EndSplineSet
EndChar

StartChar: uni0979
Encoding: 2425 2425 468
GlifName: uni0979
Width: 2048
VWidth: 0
Flags: HW
LayerCount: 2
Fore
SplineSet
-34 1551 m 257
 -34 1350 l 257
 2048 1350 l 257
 2048 1551 l 257
 -34 1551 l 257
1702 1551 m 257
 1702 -12 l 257
 1901 -12 l 257
 1901 1551 l 257
 1702 1551 l 257
909 860 m 257
 909 663 l 257
 1835 663 l 257
 1835 860 l 257
 909 860 l 257
863 860 m 257
 863 413 l 257
 1063 413 l 257
 1063 860 l 257
 863 860 l 257
41 567 m 257
 41 367 l 257
 1063 367 l 257
 1063 567 l 257
 41 567 l 257
41 727 m 257
 41 509 l 257
 241 509 l 257
 241 727 l 257
 41 727 l 257
989 281 m 257
 990 116 l 257
 1150 116 l 257
 1149 281 l 257
 989 281 l 257
123 281 m 257
 124 116 l 257
 284 116 l 257
 283 281 l 257
 123 281 l 257
523 54 m 257
 524 -111 l 257
 684 -111 l 257
 683 54 l 257
 523 54 l 257
EndSplineSet
EndChar

StartChar: uni097A
Encoding: 2426 2426 469
GlifName: uni097A_
Width: 2048
VWidth: 0
Flags: HW
LayerCount: 2
Fore
SplineSet
-18 1550 m 257
 -18 1351 l 257
 2047 1351 l 257
 2047 1550 l 257
 -18 1550 l 257
1712 1531 m 257
 1712 0 l 257
 1913 0 l 257
 1913 1531 l 257
 1712 1531 l 257
125 1484 m 257
 318 847 l 257
 528 846 l 257
 319 1536 l 257
 125 1484 l 257
318 847 m 257
 127 472 l 257
 290 405 l 257
 528 846 l 257
 318 847 l 257
213 640 m 257
 128 472 l 257
 1765 199 l 257
 1842 372 l 257
 213 640 l 257
347 1271 m 257
 271 1153 l 257
 1759 465 l 257
 1836 629 l 257
 347 1271 l 257
EndSplineSet
EndChar

StartChar: uni097B
Encoding: 2427 2427 470
GlifName: uni097B_
Width: 2048
VWidth: 0
Flags: HW
HStem: 683 361<102 301 102 1090> 812 70<891 1090> 853 29<102 301 301 301> 1348 200<261 2036 261 2036> 1348 175<1756 1756 1756 1955>
VStem: 102 199<853 882 683 1044 853 1044 853 1044> 379 199 732 199
LayerCount: 2
Fore
SplineSet
102 853 m 257
 301 853 l 257
 301 1044 l 257
 102 1044 l 257
 102 853 l 257
102 882 m 257
 102 683 l 257
 1090 683 l 257
 1090 882 l 257
 102 882 l 257
891 1548 m 257
 891 812 l 257
 1090 812 l 257
 1090 1548 l 257
 891 1548 l 257
2036 1548 m 257
 261 1548 l 257
 261 1348 l 257
 2036 1348 l 257
 2036 1548 l 257
1756 1523 m 257
 1756 0 l 257
 1955 0 l 257
 1955 1523 l 257
 1756 1523 l 257
162 201 m 257
 162 0 l 257
 1932 0 l 257
 1932 201 l 257
 162 201 l 257
EndSplineSet
PickledDataWithLists: "(dp0
Vcom.fontlab.hintData
p1
(dp2
Vhhints
p3
(lp4
(dp5
Vposition
p6
I683
sVwidth
p7
I361
sa(dp8
g6
I812
sg7
I70
sa(dp9
g6
I853
sg7
I29
sa(dp10
g6
I1348
sg7
I200
sa(dp11
g6
I1348
sg7
I175
sasVvhints
p12
(lp13
(dp14
g6
I102
sg7
I199
sa(dp15
g6
I379
sg7
I199
sa(dp16
g6
I732
sg7
I199
sass."
EndChar

StartChar: uni097C
Encoding: 2428 2428 471
GlifName: uni097C_
Width: 2048
VWidth: 0
Flags: HW
LayerCount: 2
Fore
SplineSet
-34 1551 m 257
 -34 1350 l 257
 2048 1350 l 257
 2048 1551 l 257
 -34 1551 l 257
1702 1551 m 257
 1702 -3 l 257
 1901 -3 l 257
 1901 1551 l 257
 1702 1551 l 257
909 860 m 257
 909 663 l 257
 1835 663 l 257
 1835 860 l 257
 909 860 l 257
863 860 m 257
 863 413 l 257
 1063 413 l 257
 1063 860 l 257
 863 860 l 257
41 567 m 257
 41 367 l 257
 1063 367 l 257
 1063 567 l 257
 41 567 l 257
41 727 m 257
 41 509 l 257
 241 509 l 257
 241 727 l 257
 41 727 l 257
59 197 m 257
 59 -2 l 257
 1757 -2 l 257
 1757 197 l 257
 59 197 l 257
EndSplineSet
EndChar

StartChar: uni097D
Encoding: 2429 2429 472
GlifName: uni097D_
Width: 2048
VWidth: 0
Flags: HW
VStem: 192 641
LayerCount: 2
Fore
SplineSet
191.5 1519 m 257
 191.5 1333 l 257
 1340.5 1333 l 257
 1340.5 1519 l 257
 191.5 1519 l 257
1150.5 1514 m 257
 1150.5 966 l 257
 1344.5 966 l 257
 1344.5 1514 l 257
 1150.5 1514 l 257
368.5 1015 m 257
 368.5 816 l 257
 1344.5 816 l 257
 1344.5 1015 l 257
 368.5 1015 l 257
368.5 1011 m 257
 368.5 206 l 257
 616.5 206 l 257
 616.5 1011 l 257
 368.5 1011 l 257
EndSplineSet
PickledDataWithLists: "(dp0
Vcom.fontlab.hintData
p1
(dp2
Vvhints
p3
(lp4
(dp5
Vposition
p6
I192
sVwidth
p7
I641
sass."
EndChar

StartChar: uni097E
Encoding: 2430 2430 473
GlifName: uni097E_
Width: 2048
VWidth: 0
Flags: HW
HStem: 1014 11<896 1095 1095 1095>
LayerCount: 2
Fore
SplineSet
2 1549 m 257
 2 1345 l 257
 2053 1345 l 257
 2053 1549 l 257
 2 1549 l 257
896 1545 m 257
 896 1014 l 257
 1095 1014 l 257
 1095 1545 l 257
 896 1545 l 257
896 1025 m 257
 896 815 l 257
 1951 815 l 257
 1951 1025 l 257
 896 1025 l 257
1778 1025 m 257
 1778 5 l 257
 1977 5 l 257
 1977 1025 l 257
 1778 1025 l 257
62 200 m 257
 62 0 l 257
 1977 0 l 257
 1977 200 l 257
 62 200 l 257
62 331 m 257
 62 5 l 257
 262 5 l 257
 262 331 l 257
 62 331 l 257
28 -81 m 257
 28 -280 l 257
 2044 -280 l 257
 2044 -81 l 257
 28 -81 l 257
EndSplineSet
PickledDataWithLists: "(dp0
Vcom.fontlab.hintData
p1
(dp2
Vhhints
p3
(lp4
(dp5
Vposition
p6
I1014
sVwidth
p7
I11
sass."
EndChar

StartChar: uni097F
Encoding: 2431 2431 474
GlifName: uni097F_
Width: 2048
VWidth: 0
Flags: HW
LayerCount: 2
Fore
SplineSet
-1 1550 m 257
 -1 1351 l 257
 2051 1351 l 257
 2051 1550 l 257
 -1 1550 l 257
1685 1439 m 257
 1685 0 l 257
 1885 0 l 257
 1885 1439 l 257
 1685 1439 l 257
76 1021 m 257
 76 232 l 257
 276 232 l 257
 276 1021 l 257
 76 1021 l 257
77 404 m 257
 77 204 l 257
 1836 204 l 257
 1836 404 l 257
 77 404 l 257
101 926 m 257
 1331 224 l 257
 1725 328 l 257
 271 1030 l 257
 101 926 l 257
75 1037 m 257
 75 820 l 257
 1413 820 l 257
 1413 1037 l 257
 75 1037 l 257
79 140 m 257
 79 -60 l 257
 1885 -60 l 257
 1885 140 l 257
 79 140 l 257
EndSplineSet
EndChar

StartChar: uni1E9E
Encoding: 7838 7838 475
GlifName: uni1E_9E_
Width: 2048
VWidth: 0
Flags: HW
LayerCount: 2
Fore
SplineSet
82 1547 m 257
 82 -4 l 257
 288 -4 l 257
 288 1547 l 257
 82 1547 l 257
230 1548 m 257
 230 1328 l 257
 1860 1328 l 257
 1860 1548 l 257
 230 1548 l 257
1745 1548 m 257
 1745 1023 l 257
 1944 1023 l 257
 1944 1548 l 257
 1745 1548 l 257
1745 1062 m 257
 1290 1062 l 257
 1290 826 l 257
 1745 826 l 257
 1745 1062 l 257
1745 848 m 257
 1745 175 l 257
 1945 175 l 257
 1945 848 l 257
 1745 848 l 257
425 251 m 257
 425 40 l 257
 1941 40 l 257
 1941 251 l 257
 425 251 l 257
EndSplineSet
EndChar

StartChar: uni2044
Encoding: 8260 8260 476
GlifName: uni2044
Width: 2048
VWidth: 0
Flags: HW
LayerCount: 2
Fore
SplineSet
1309 1483 m 257
 617 6 l 257
 845 -67 l 257
 1536 1410 l 257
 1309 1483 l 257
EndSplineSet
PickledDataWithLists: "(dp0
."
EndChar

StartChar: uni20B9
Encoding: 8377 8377 477
GlifName: uni20B_9
Width: 2048
VWidth: 0
Flags: HW
LayerCount: 2
Fore
SplineSet
513.5 1172 m 257
 513.5 973 l 257
 1534.5 973 l 257
 1534.5 1172 l 257
 513.5 1172 l 257
513.5 1549 m 257
 513.5 1350 l 257
 1534.5 1350 l 257
 1534.5 1549 l 257
 513.5 1549 l 257
1099.5 1540 m 257
 1099.5 790 l 257
 1299.5 790 l 257
 1299.5 1540 l 257
 1099.5 1540 l 257
1299.5 802 m 257
 866.5 802 l 257
 866.5 603 l 257
 1299.5 603 l 257
 1299.5 802 l 257
866.5 603 m 257
 1214.5 -50 l 257
 1387.5 41 l 257
 1038.5 694 l 257
 866.5 603 l 257
EndSplineSet
EndChar

StartChar: uni25CC
Encoding: 9676 9676 478
GlifName: uni25C_C_
Width: 2048
VWidth: 0
Flags: HW
LayerCount: 2
Fore
SplineSet
958 1065 m 257
 958 926 l 257
 1080 926 l 257
 1080 1065 l 257
 958 1065 l 257
1223 953 m 257
 1223 814 l 257
 1345 814 l 257
 1345 953 l 257
 1223 953 l 257
697 957 m 257
 697 818 l 257
 819 818 l 257
 819 957 l 257
 697 957 l 257
1317 709 m 257
 1317 570 l 257
 1439 570 l 257
 1439 709 l 257
 1317 709 l 257
1226 438 m 257
 1226 299 l 257
 1348 299 l 257
 1348 438 l 257
 1226 438 l 257
609 713 m 257
 609 574 l 257
 731 574 l 257
 731 713 l 257
 609 713 l 257
965 371 m 257
 965 232 l 257
 1087 232 l 257
 1087 371 l 257
 965 371 l 257
697 455 m 257
 697 316 l 257
 819 316 l 257
 819 455 l 257
 697 455 l 257
EndSplineSet
EndChar

StartChar: uniFB01
Encoding: 64257 64257 479
GlifName: uniF_B_01
Width: 2048
VWidth: 0
Flags: HW
LayerCount: 2
Fore
SplineSet
635 1086 m 257
 635 -348 l 257
 834 -348 l 257
 834 1086 l 257
 635 1086 l 257
636 1225 m 257
 636 1025 l 257
 1730 1025 l 257
 1730 1225 l 257
 636 1225 l 257
1534 686 m 257
 1534 52 l 257
 1733 52 l 257
 1733 686 l 257
 1534 686 l 257
1406 199 m 257
 1406 1 l 257
 1862 1 l 257
 1862 199 l 257
 1406 199 l 257
40 677 m 257
 40 478 l 257
 1551 478 l 257
 1551 677 l 257
 40 677 l 257
EndSplineSet
Ligature2: "dligDiscretionaryLigatureslookup0 subtable" f i
EndChar

StartChar: uniFB02
Encoding: 64258 64258 480
GlifName: uniF_B_02
Width: 2048
VWidth: 0
Flags: HW
LayerCount: 2
Fore
SplineSet
752 1024 m 257
 752 -410 l 257
 952 -410 l 257
 952 1024 l 257
 752 1024 l 257
753 1024 m 257
 753 824 l 257
 1692 824 l 257
 1692 1024 l 257
 753 1024 l 257
92 601 m 257
 92 402 l 257
 1595 402 l 257
 1595 601 l 257
 92 601 l 257
1512 205 m 257
 1516 4 l 257
 2008 0 l 257
 2005 200 l 257
 1512 205 l 257
1661 1553 m 257
 1661 57 l 257
 1860 57 l 257
 1860 1553 l 257
 1661 1553 l 257
923 1553 m 257
 923 1352 l 257
 1670 1352 l 257
 1670 1553 l 257
 923 1553 l 257
EndSplineSet
Ligature2: "dligDiscretionaryLigatureslookup0 subtable" f l
EndChar

StartChar: v
Encoding: 118 118 484
GlifName: v
Width: 2048
VWidth: 0
Flags: HW
LayerCount: 2
Fore
SplineSet
193 1022 m 257
 922 0 l 257
 1129 1 l 257
 392 1025 l 257
 193 1022 l 257
1655 1021 m 257
 920 0 l 257
 1127 3 l 257
 1855 1022 l 257
 1655 1021 l 257
EndSplineSet
EndChar

StartChar: w
Encoding: 119 119 485
GlifName: w
Width: 2048
VWidth: 0
Flags: HW
LayerCount: 2
Fore
SplineSet
115.5 1023 m 257
 116.5 1 l 257
 315.5 0 l 257
 314.5 1023 l 257
 115.5 1023 l 257
1734.5 1028 m 257
 1734.5 12 l 257
 1933.5 12 l 257
 1933.5 1028 l 257
 1734.5 1028 l 257
920.5 610 m 257
 921.5 1 l 257
 1120.5 1 l 257
 1121.5 610 l 257
 920.5 610 l 257
114.5 276 m 257
 116.5 1 l 257
 1933.5 0 l 257
 1933.5 276 l 257
 114.5 276 l 257
EndSplineSet
EndChar

StartChar: x
Encoding: 120 120 490
GlifName: x
Width: 2048
VWidth: 0
Flags: HW
LayerCount: 2
Fore
SplineSet
102.5 0 m 257
 440.5 2 l 257
 1938.5 1023 l 257
 1643.5 1025 l 257
 102.5 0 l 257
104.5 1027 m 257
 1650.5 -1 l 257
 1945.5 -2 l 257
 443.5 1025 l 257
 104.5 1027 l 257
EndSplineSet
EndChar

StartChar: y
Encoding: 121 121 491
GlifName: y
Width: 2048
VWidth: 0
Flags: HW
LayerCount: 2
Fore
SplineSet
1690.5 1023 m 257
 1690.5 -410 l 257
 1890.5 -410 l 257
 1890.5 1023 l 257
 1690.5 1023 l 257
157.5 -211 m 257
 157.5 -410 l 257
 1874.5 -410 l 257
 1874.5 -211 l 257
 157.5 -211 l 257
157.5 1023 m 257
 157.5 264 l 257
 357.5 264 l 257
 357.5 1023 l 257
 157.5 1023 l 257
157.5 464 m 257
 157.5 264 l 257
 1775.5 264 l 257
 1775.5 464 l 257
 157.5 464 l 257
EndSplineSet
EndChar

StartChar: yen
Encoding: 165 165 495
GlifName: yen
Width: 2048
VWidth: 0
Flags: HW
LayerCount: 2
Fore
SplineSet
740 775 m 257
 740 615 l 257
 1286 615 l 257
 1286 775 l 257
 740 775 l 257
740 540 m 257
 740 380 l 257
 1286 380 l 257
 1286 540 l 257
 740 540 l 257
923 897 m 257
 923 -1 l 257
 1125 -1 l 257
 1125 897 l 257
 923 897 l 257
672 1547 m 257
 672 859 l 257
 872 859 l 257
 872 1547 l 257
 672 1547 l 257
1177 1547 m 257
 1177 859 l 257
 1376 859 l 257
 1376 1547 l 257
 1177 1547 l 257
740 1019 m 257
 740 859 l 257
 1286 859 l 257
 1286 1019 l 257
 740 1019 l 257
EndSplineSet
EndChar

StartChar: z
Encoding: 122 122 497
GlifName: z
Width: 2048
VWidth: 0
Flags: HW
LayerCount: 2
Fore
SplineSet
110 1027 m 257
 110 826 l 257
 1938 826 l 257
 1938 1027 l 257
 110 1027 l 257
110 201 m 257
 110 1 l 257
 1938 1 l 257
 1938 201 l 257
 110 201 l 257
1646 826 m 257
 110 201 l 257
 416 201 l 257
 1938 826 l 257
 1646 826 l 257
EndSplineSet
EndChar

StartChar: zero
Encoding: 48 48 501
GlifName: zero
Width: 2048
VWidth: 0
Flags: HW
HStem: 0 208 883 79 1418 223
VStem: 49 202 93 158 779 198 779 140
LayerCount: 2
Fore
SplineSet
412 908 m 257
 1637 908 l 257
 1637 708 l 257
 412 708 l 257
 412 908 l 257
295 1359 m 257
 1754 1359 l 257
 1753 208 l 257
 295 208 l 257
 295 1359 l 257
93 1559 m 257
 93 7 l 257
 1954 7 l 257
 1954 1559 l 257
 93 1559 l 257
EndSplineSet
PickledDataWithLists: "(dp0
Vcom.fontlab.hintData
p1
(dp2
Vhhints
p3
(lp4
(dp5
Vposition
p6
I0
sVwidth
p7
I208
sa(dp8
g6
I883
sg7
I79
sa(dp9
g6
I1418
sg7
I223
sasVvhints
p10
(lp11
(dp12
g6
I49
sg7
I202
sa(dp13
g6
I93
sg7
I158
sa(dp14
g6
I779
sg7
I198
sa(dp15
g6
I779
sg7
I140
sass."
EndChar

StartChar: uni0915_uni094D_uni0937.akhn
Encoding: 65537 -1 502
GlifName: uni0915_uni094D__uni0937.akhn
Width: 2048
VWidth: 0
Flags: HW
LayerCount: 2
Fore
SplineSet
1689 1550 m 257
 1689 1351 l 257
 2048 1351 l 257
 2048 1550 l 257
 1689 1550 l 257
1746 1511 m 257
 1746 4 l 257
 1945 4 l 257
 1945 1511 l 257
 1746 1511 l 257
48 1078 m 257
 48 878 l 257
 1945 878 l 257
 1945 1078 l 257
 48 1078 l 257
47 1023 m 257
 248 1023 l 257
 248 1422 l 257
 47 1422 l 257
 47 1023 l 257
48 1435 m 257
 48 1235 l 257
 1079 1235 l 257
 1079 1435 l 257
 48 1435 l 257
880 1422 m 257
 880 882 l 257
 1078 882 l 257
 1078 1422 l 257
 880 1422 l 257
158 635 m 257
 355 635 l 257
 1077 880 l 257
 879 880 l 257
 158 635 l 257
158 635 m 257
 158 200 l 257
 357 200 l 257
 357 635 l 257
 158 635 l 257
158 367 m 257
 158 166 l 257
 1906 166 l 257
 1906 367 l 257
 158 367 l 257
EndSplineSet
Ligature2: "akhnAkhandinDevanagarilookup0 subtable" uni0915 uni094D uni0937
EndChar

StartChar: uni091C_uni094D_uni091E.akhn
Encoding: 65538 -1 503
GlifName: uni091C__uni094D__uni091E_.akhn
Width: 2048
VWidth: 0
Flags: HW
LayerCount: 2
Fore
SplineSet
-34 1551 m 257
 -34 1350 l 257
 2048 1350 l 257
 2048 1551 l 257
 -34 1551 l 257
1702 1551 m 257
 1702 -12 l 257
 1901 -12 l 257
 1901 1551 l 257
 1702 1551 l 257
909 860 m 257
 909 663 l 257
 1835 663 l 257
 1835 860 l 257
 909 860 l 257
863 860 m 257
 863 413 l 257
 1063 413 l 257
 1063 860 l 257
 863 860 l 257
41 567 m 257
 41 367 l 257
 1063 367 l 257
 1063 567 l 257
 41 567 l 257
41 368 m 257
 313 77 l 257
 571 75 l 257
 284 368 l 257
 41 368 l 257
EndSplineSet
Ligature2: "akhnAkhandinDevanagarilookup0 subtable" uni091C uni094D uni091E
EndChar

StartChar: uni0930_uni094D.blwf
Encoding: 65539 -1 504
GlifName: uni0930_uni094D_.blwf
Width: 2048
VWidth: 0
Flags: HW
LayerCount: 2
Fore
SplineSet
-14 1550 m 257
 -14 1351 l 257
 2050 1351 l 257
 2050 1550 l 257
 -14 1550 l 257
-971 -210 m 257
 -747 -584 l 257
 -465 -590 l 257
 -849 -41 l 257
 -971 -210 l 257
-849 -41 m 257
 -1256 -605 l 257
 -1035 -599 l 257
 -734 -206 l 257
 -849 -41 l 257
EndSplineSet
Ligature2: "blwfBelowBaseFormsinDevanagarilookup0 subtable" uni0930 uni094D
EndChar

StartChar: uni0930_uni094D.rphf
Encoding: 65540 -1 505
GlifName: uni0930_uni094D_.rphf
Width: 2048
VWidth: 0
Flags: HW
LayerCount: 2
Fore
SplineSet
-11 1552 m 257
 -11 1352 l 257
 2052 1352 l 257
 2052 1552 l 257
 -11 1552 l 257
-520 1552 m 257
 -318 1551 l 257
 -318 1871 l 257
 -516 1874 l 257
 -520 1552 l 257
-256 2142 m 257
 -256 1942 l 257
 72 1942 l 257
 72 2142 l 257
 -256 2142 l 257
-256 2142 m 257
 -517 1875 l 257
 -319 1869 l 257
 -256 1942 l 257
 -256 2142 l 257
EndSplineSet
Ligature2: "rphfRephForminDevanagarilookup0 subtable" uni0930 uni094D
EndChar

StartChar: uni0915_uni094D.half
Encoding: 65586 -1 551
GlifName: uni0915_uni094D_.half
Width: 2048
VWidth: 0
Flags: HW
LayerCount: 2
Fore
SplineSet
5 1547 m 257
 5 1346 l 257
 2043 1343 l 257
 2043 1544 l 257
 5 1547 l 257
1108 1516 m 257
 1108 10 l 257
 1310 10 l 257
 1310 1516 l 257
 1108 1516 l 257
137 1029 m 257
 137 829 l 257
 1200 829 l 257
 1200 1029 l 257
 137 1029 l 257
137 987 m 257
 131 439 l 257
 301 443 l 257
 303 989 l 257
 137 987 l 257
155 597 m 257
 155 405 l 257
 1162 401 l 257
 1162 604 l 257
 155 597 l 257
1214 947 m 257
 1214 746 l 257
 2090 746 l 257
 2090 947 l 257
 1214 947 l 257
EndSplineSet
Ligature2: "halfHalfFormsinDevanagarilookup0 subtable" uni0915 uni094D
EndChar

StartChar: uni0916_uni094D.half
Encoding: 65588 -1 553
GlifName: uni0916_uni094D_.half
Width: 2048
VWidth: 0
Flags: HW
LayerCount: 2
Fore
SplineSet
-4 1549 m 257
 -4 1349 l 257
 2052 1349 l 257
 2052 1549 l 257
 -4 1549 l 257
1033 979 m 257
 1033 779 l 257
 1461 779 l 257
 1461 979 l 257
 1033 979 l 257
1003 979 m 257
 1003 457 l 257
 1203 457 l 257
 1203 979 l 257
 1003 979 l 257
1003 568 m 257
 1003 368 l 257
 1972 368 l 261
 1972 568 l 261
 1003 568 l 257
318 1441 m 257
 317 120 l 257
 517 120 l 257
 518 1441 l 257
 318 1441 l 257
13 734 m 257
 13 534 l 257
 517 534 l 257
 517 734 l 257
 13 734 l 257
317 270 m 257
 317 70 l 257
 2057 70 l 261
 2057 270 l 261
 317 270 l 257
EndSplineSet
Ligature2: "halfHalfFormsinDevanagarilookup0 subtable" uni0916 uni094D
EndChar

StartChar: uni200C
Encoding: 8204 8204 555
GlifName: uni200C_
Width: 2048
VWidth: 0
Flags: HW
LayerCount: 2
Fore
SplineSet
321 1552 m 257
 321 1440 l 257
 666 1440 l 257
 666 1552 l 257
 321 1552 l 257
431 1640 m 257
 431 -5 l 257
 521 -5 l 257
 521 1640 l 257
 431 1640 l 257
EndSplineSet
EndChar

StartChar: uni200D
Encoding: 8205 8205 556
GlifName: uni200D_
Width: 2048
VWidth: 0
Flags: HW
LayerCount: 2
Fore
SplineSet
466 1552 m 257
 531 1552 l 257
 531 -12 l 257
 466 -12 l 257
 466 1552 l 257
EndSplineSet
EndChar

StartChar: uni0917_uni094D.half
Encoding: 65590 -1 557
GlifName: uni0917_uni094D_.half
Width: 2048
VWidth: 0
Flags: HW
LayerCount: 2
Fore
SplineSet
51 853 m 257
 250 853 l 257
 250 1044 l 257
 51 1044 l 257
 51 853 l 257
51 882 m 257
 51 683 l 257
 1039 683 l 257
 1039 882 l 257
 51 882 l 257
840 1548 m 257
 840 812 l 257
 1039 812 l 257
 1039 1548 l 257
 840 1548 l 257
2097 1548 m 257
 210 1548 l 257
 210 1348 l 257
 2097 1348 l 257
 2097 1548 l 257
EndSplineSet
Ligature2: "halfHalfFormsinDevanagarilookup0 subtable" uni0917 uni094D
EndChar

StartChar: uni0918_uni094D.half
Encoding: 65591 -1 558
GlifName: N_ameM_e.65591
Width: 2048
VWidth: 0
Flags: HW
LayerCount: 2
Fore
SplineSet
0.5 1554 m 257
 0.5 1354 l 257
 2047.5 1354 l 257
 2047.5 1554 l 257
 0.5 1554 l 257
172.5 1515 m 257
 172.5 883 l 257
 371.5 883 l 257
 371.5 1515 l 257
 172.5 1515 l 257
266.5 921 m 257
 265.5 721 l 257
 1021.5 717 l 257
 1022.5 917 l 257
 266.5 921 l 257
178.5 469 m 257
 178.5 269 l 257
 2102.5 269 l 257
 2102.5 469 l 257
 178.5 469 l 257
172.5 269 m 257
 371.5 269 l 257
 371.5 764 l 257
 172.5 764 l 257
 172.5 269 l 257
EndSplineSet
Ligature2: "halfHalfFormsinDevanagarilookup0 subtable" uni0918 uni094D
EndChar

StartChar: uni0919_uni094D.half
Encoding: 65592 -1 559
GlifName: N_ameM_e.65592
Width: 2048
VWidth: 0
Flags: HW
LayerCount: 2
Fore
SplineSet
-2 1554 m 257
 -2 1354 l 257
 2050 1354 l 257
 2050 1554 l 257
 -2 1554 l 257
1023 1543 m 257
 1023 1026 l 257
 1223 1026 l 257
 1223 1543 l 257
 1023 1543 l 257
1214 1226 m 257
 228 1226 l 257
 228 1026 l 257
 1214 1026 l 257
 1214 1226 l 257
227 1083 m 257
 227 729 l 257
 432 729 l 257
 432 1083 l 257
 227 1083 l 257
227 920 m 257
 227 720 l 257
 1300 720 l 257
 1300 920 l 257
 227 920 l 257
1100 780 m 257
 1100 129 l 257
 1300 129 l 257
 1300 780 l 257
 1100 780 l 257
114 301 m 257
 114 100 l 257
 1301 100 l 257
 1301 301 l 257
 114 301 l 257
114 523 m 257
 114 108 l 257
 315 108 l 257
 315 523 l 257
 114 523 l 257
1327 1037 m 257
 1327 890 l 257
 1484 890 l 257
 1484 1037 l 257
 1327 1037 l 257
1095 78 m 257
 1095 -118 l 257
 1452 -118 l 257
 1452 78 l 257
 1095 78 l 257
1311 -83 m 257
 1781 -488 l 257
 1925 -325 l 257
 1454 79 l 257
 1311 -83 l 257
EndSplineSet
Ligature2: "halfHalfFormsinDevanagarilookup0 subtable" uni0919 uni094D
EndChar

StartChar: uni091A_uni094D.half
Encoding: 65593 -1 560
GlifName: uni091A__uni094D_.half
Width: 2048
VWidth: 0
Flags: HW
LayerCount: 2
Fore
SplineSet
0 1556 m 257
 0 1356 l 257
 2048 1356 l 257
 2048 1556 l 257
 0 1556 l 257
2129 280 m 261
 2129 480 l 261
 1108 480 l 261
 1108 280 l 261
 2129 280 l 261
1108 837 m 261
 1108 421 l 261
 1308 421 l 261
 1308 837 l 261
 1108 837 l 261
372 991 m 261
 372 791 l 261
 1380 791 l 261
 1380 991 l 261
 372 991 l 261
EndSplineSet
Ligature2: "halfHalfFormsinDevanagarilookup0 subtable" uni091A uni094D
EndChar

StartChar: uni091B_uni094D.half
Encoding: 65594 -1 561
GlifName: uni091B__uni094D_.half
Width: 2048
VWidth: 0
Flags: HW
LayerCount: 2
Fore
SplineSet
-3 1555 m 257
 -3 1355 l 257
 2051 1355 l 257
 2051 1555 l 257
 -3 1555 l 257
1836 1130 m 261
 695 1130 l 261
 695 931 l 261
 1836 931 l 261
 1836 1130 l 261
692 1130 m 261
 692 584 l 261
 892 584 l 261
 892 1130 l 261
 692 1130 l 261
770 639 m 261
 770 439 l 261
 1420 439 l 261
 1420 639 l 261
 770 639 l 261
687 493 m 261
 687 0 l 261
 887 0 l 261
 887 493 l 261
 687 493 l 261
687 199 m 261
 687 0 l 261
 2122 0 l 261
 2122 199 l 261
 687 199 l 261
EndSplineSet
Ligature2: "halfHalfFormsinDevanagarilookup0 subtable" uni091B uni094D
EndChar

StartChar: uni091C_uni094D.half
Encoding: 65595 -1 562
GlifName: uni091C__uni094D_.half
Width: 2048
VWidth: 0
Flags: HW
LayerCount: 2
Fore
SplineSet
-17 1551 m 257
 -17 1350 l 257
 2065 1350 l 257
 2065 1551 l 257
 -17 1551 l 257
1226 860 m 261
 1226 663 l 261
 2152 663 l 261
 2152 860 l 261
 1226 860 l 261
1180 860 m 261
 1180 413 l 261
 1380 413 l 261
 1380 860 l 261
 1180 860 l 261
358 567 m 261
 358 367 l 261
 1380 367 l 261
 1380 567 l 261
 358 567 l 261
358 855 m 261
 358 509 l 261
 558 509 l 261
 558 855 l 261
 358 855 l 261
EndSplineSet
Ligature2: "halfHalfFormsinDevanagarilookup0 subtable" uni091C uni094D
EndChar

StartChar: uni091D_uni094D.half
Encoding: 65596 -1 563
GlifName: uni091D__uni094D_.half
Width: 2048
VWidth: 0
Flags: HW
LayerCount: 2
Fore
SplineSet
-8.5 1549 m 257
 -8.5 1349 l 257
 2056.5 1349 l 257
 2056.5 1549 l 257
 -8.5 1549 l 257
1268.5 1537 m 257
 1268.5 1024 l 257
 1467.5 1024 l 257
 1467.5 1537 l 257
 1268.5 1537 l 257
434.5 1223 m 257
 434.5 1024 l 257
 1467.5 1024 l 257
 1467.5 1223 l 257
 434.5 1223 l 257
434.5 1085 m 257
 434.5 651 l 257
 634.5 651 l 257
 634.5 1085 l 257
 434.5 1085 l 257
434.5 837 m 257
 434.5 638 l 257
 2207.5 638 l 257
 2207.5 837 l 257
 434.5 837 l 257
1239.5 691 m 257
 1239.5 7 l 257
 1439.5 7 l 257
 1439.5 691 l 257
 1239.5 691 l 257
434.5 203 m 257
 434.5 3 l 257
 1439.5 3 l 257
 1439.5 203 l 257
 434.5 203 l 257
434.5 63 m 257
 434.5 -148 l 257
 634.5 -148 l 257
 634.5 63 l 257
 434.5 63 l 257
EndSplineSet
Ligature2: "halfHalfFormsinDevanagarilookup0 subtable" uni091D uni094D
EndChar

StartChar: uni091E_uni094D.half
Encoding: 65597 -1 564
GlifName: uni091E__uni094D_.half
Width: 2048
VWidth: 0
Flags: HW
LayerCount: 2
Fore
SplineSet
-2.5 1548 m 257
 -2.5 1348 l 257
 2050.5 1348 l 257
 2050.5 1548 l 257
 -2.5 1548 l 257
1239.5 737 m 261
 1239.5 537 l 261
 2113.5 537 l 261
 2113.5 737 l 261
 1239.5 737 l 261
346.5 960 m 261
 346.5 760 l 261
 1216.5 760 l 261
 1216.5 960 l 261
 346.5 960 l 261
1185.5 960 m 261
 1185.5 316 l 261
 1385.5 316 l 261
 1385.5 960 l 261
 1185.5 960 l 261
323.5 460 m 261
 323.5 260 l 261
 1385.5 260 l 261
 1385.5 460 l 261
 323.5 460 l 261
EndSplineSet
Ligature2: "halfHalfFormsinDevanagarilookup0 subtable" uni091E uni094D
EndChar

StartChar: uni091F_uni094D.half
Encoding: 65598 -1 565
Width: 2048
VWidth: 0
Flags: HW
LayerCount: 2
Fore
SplineSet
-4 1549 m 257
 -4 1348 l 257
 2052 1348 l 257
 2052 1549 l 257
 -4 1549 l 257
1597 1528 m 257
 1597 988 l 257
 1797 988 l 257
 1797 1528 l 257
 1597 1528 l 257
1797 1023 m 257
 106 1023 l 257
 106 822 l 257
 1797 822 l 257
 1797 1023 l 257
85 1024 m 257
 85 205 l 261
 285 205 l 261
 285 1024 l 257
 85 1024 l 257
85 401 m 261
 85 200 l 261
 1840 200 l 261
 1840 401 l 261
 85 401 l 261
1111 126 m 261
 1111 -70 l 261
 1468 -70 l 261
 1468 126 l 261
 1111 126 l 261
1327 -35 m 261
 1797 -440 l 261
 1941 -277 l 261
 1470 127 l 261
 1327 -35 l 261
EndSplineSet
EndChar

StartChar: uni0920_uni094D.half
Encoding: 65599 -1 566
Width: 2048
VWidth: 0
Flags: HW
LayerCount: 2
Fore
SplineSet
0 1551 m 257
 0 1350 l 257
 2048 1350 l 257
 2048 1551 l 257
 0 1551 l 257
912 1484 m 257
 920 1023 l 257
 1121 1023 l 257
 1120 1484 l 257
 912 1484 l 257
85 1035 m 257
 85 834 l 257
 1985 834 l 257
 1985 1035 l 257
 85 1035 l 257
72 1035 m 257
 72 213 l 261
 272 213 l 261
 272 1035 l 257
 72 1035 l 257
1785 1035 m 257
 1785 198 l 261
 1985 198 l 261
 1985 1035 l 257
 1785 1035 l 257
73 398 m 261
 73 197 l 261
 1965 197 l 261
 1965 398 l 261
 73 398 l 261
1072 178 m 261
 1072 -18 l 261
 1429 -18 l 261
 1429 178 l 261
 1072 178 l 261
1288 17 m 261
 1758 -388 l 261
 1902 -225 l 261
 1431 179 l 261
 1288 17 l 261
EndSplineSet
EndChar

StartChar: uni0921_uni094D.half
Encoding: 65600 -1 567
Width: 2048
VWidth: 0
Flags: HW
LayerCount: 2
Fore
SplineSet
1 1549 m 257
 1 1345 l 257
 2047 1345 l 257
 2047 1549 l 257
 1 1549 l 257
895 1545 m 257
 895 1014 l 257
 1094 1014 l 257
 1094 1545 l 257
 895 1545 l 257
895 1025 m 257
 895 815 l 257
 1945 815 l 257
 1945 1025 l 257
 895 1025 l 257
1772 1025 m 257
 1772 205 l 257
 1971 205 l 257
 1971 1025 l 257
 1772 1025 l 257
61 400 m 257
 61 200 l 257
 1971 200 l 257
 1971 400 l 257
 61 400 l 257
61 531 m 257
 61 205 l 257
 261 205 l 257
 261 531 l 257
 61 531 l 257
1047 178 m 261
 1047 -18 l 261
 1404 -18 l 261
 1404 178 l 261
 1047 178 l 261
1263 17 m 261
 1733 -388 l 261
 1877 -225 l 261
 1406 179 l 261
 1263 17 l 261
EndSplineSet
EndChar

StartChar: uni0922_uni094D.half
Encoding: 65601 -1 568
Width: 2048
VWidth: 0
Flags: HW
LayerCount: 2
Fore
SplineSet
5 1549 m 257
 5 1348 l 257
 2043 1348 l 257
 2043 1549 l 257
 5 1549 l 257
1588 1528 m 257
 1588 988 l 257
 1788 988 l 257
 1788 1528 l 257
 1588 1528 l 257
1788 1023 m 257
 115 1023 l 257
 115 822 l 257
 1788 822 l 257
 1788 1023 l 257
94 1024 m 257
 94 205 l 257
 294 205 l 257
 294 1024 l 257
 94 1024 l 257
94 401 m 257
 94 200 l 257
 1831 200 l 257
 1831 401 l 257
 94 401 l 257
1632 744 m 257
 1632 198 l 257
 1833 198 l 257
 1833 744 l 257
 1632 744 l 257
1579 747 m 257
 1579 547 l 257
 1831 547 l 257
 1831 747 l 257
 1579 747 l 257
1047 178 m 261
 1047 -18 l 261
 1404 -18 l 261
 1404 178 l 261
 1047 178 l 261
1263 17 m 261
 1733 -388 l 261
 1877 -225 l 261
 1406 179 l 261
 1263 17 l 261
EndSplineSet
EndChar

StartChar: uni0923_uni094D.half
Encoding: 65602 -1 569
Width: 2048
VWidth: 0
Flags: HW
LayerCount: 2
Fore
SplineSet
-0.5 1548 m 257
 -0.5 1350 l 257
 2048.5 1350 l 257
 2048.5 1548 l 257
 -0.5 1548 l 257
509.5 1543 m 257
 509.5 855 l 257
 709.5 855 l 257
 709.5 1543 l 257
 509.5 1543 l 257
1365.5 1528 m 257
 1365.5 844 l 257
 1565.5 844 l 257
 1565.5 1528 l 257
 1365.5 1528 l 257
509.5 1024 m 257
 509.5 825 l 257
 1565.5 825 l 257
 1565.5 1024 l 257
 509.5 1024 l 257
EndSplineSet
EndChar

StartChar: uni0924_uni094D.half
Encoding: 65603 -1 570
Width: 2048
VWidth: 0
Flags: HW
LayerCount: 2
Fore
SplineSet
-15 1562 m 257
 -15 1362 l 257
 2063 1362 l 257
 2063 1562 l 257
 -15 1562 l 257
2072 788 m 257
 365 788 l 257
 365 588 l 257
 2072 588 l 257
 2072 788 l 257
365 766 m 257
 365 26 l 257
 565 26 l 257
 565 766 l 257
 365 766 l 257
EndSplineSet
EndChar

StartChar: uni0925_uni094D.half
Encoding: 65604 -1 571
Width: 2048
VWidth: 0
Flags: HW
LayerCount: 2
Fore
SplineSet
1647 1548 m 257
 1647 1350 l 257
 2031 1350 l 257
 2031 1548 l 257
 1647 1548 l 257
17 1550 m 257
 17 1350 l 257
 974 1350 l 257
 974 1550 l 257
 17 1550 l 257
773 1413 m 257
 773 927 l 257
 973 927 l 257
 973 1413 l 257
 773 1413 l 257
974 1018 m 257
 21 1018 l 257
 21 810 l 257
 974 810 l 257
 974 1018 l 257
21 946 m 257
 21 132 l 257
 220 132 l 257
 220 946 l 257
 21 946 l 257
21 331 m 257
 21 132 l 257
 2052 132 l 257
 2052 331 l 257
 21 331 l 257
EndSplineSet
EndChar

StartChar: uni0926_uni094D.half
Encoding: 65605 -1 572
Width: 2048
VWidth: 0
Flags: HW
LayerCount: 2
Fore
SplineSet
3.5 1550 m 257
 3.5 1350 l 257
 2044.5 1350 l 257
 2044.5 1550 l 257
 3.5 1550 l 257
992.5 1509 m 257
 992.5 923 l 257
 1192.5 923 l 257
 1192.5 1509 l 257
 992.5 1509 l 257
1191.5 1020 m 257
 57.5 1020 l 257
 57.5 821 l 257
 1191.5 821 l 257
 1191.5 1020 l 257
53.5 996 m 257
 53.5 419 l 257
 253.5 419 l 257
 253.5 996 l 257
 53.5 996 l 257
53.5 546 m 257
 53.5 346 l 257
 1317.5 346 l 257
 1317.5 546 l 257
 53.5 546 l 257
1121.5 606 m 257
 1121.5 193 l 257
 1321.5 193 l 257
 1321.5 606 l 257
 1121.5 606 l 257
1195 178 m 257
 1195 -18 l 257
 1552 -18 l 257
 1552 178 l 257
 1195 178 l 257
1411 17 m 257
 1881 -388 l 257
 2025 -225 l 257
 1554 179 l 257
 1411 17 l 257
EndSplineSet
EndChar

StartChar: uni0927_uni094D.half
Encoding: 65606 -1 573
Width: 2048
VWidth: 0
Flags: HW
LayerCount: 2
Fore
SplineSet
313 1545 m 261
 313 1346 l 261
 1211 1346 l 261
 1211 1545 l 261
 313 1545 l 261
307 1501 m 261
 307 808 l 261
 506 808 l 261
 506 1501 l 261
 307 1501 l 261
306 882 m 261
 306 681 l 261
 1217 681 l 261
 1217 882 l 261
 306 882 l 261
340 711 m 261
 340 205 l 261
 540 205 l 261
 540 711 l 261
 340 711 l 261
340 326 m 261
 340 126 l 261
 2056 126 l 261
 2056 326 l 261
 340 326 l 261
EndSplineSet
EndChar

StartChar: uni0928_uni094D.half
Encoding: 65607 -1 574
Width: 2048
VWidth: 0
Flags: HW
LayerCount: 2
Fore
SplineSet
3 1545 m 257
 3 1347 l 257
 2045 1347 l 257
 2045 1545 l 257
 3 1545 l 257
298 744 m 261
 298 544 l 261
 2099 544 l 261
 2099 744 l 261
 298 744 l 261
299 741 m 261
 299 456 l 261
 500 456 l 261
 500 741 l 261
 299 741 l 261
EndSplineSet
EndChar

StartChar: uni0929_uni094D.half
Encoding: 65608 -1 575
Width: 2048
VWidth: 0
Flags: HW
LayerCount: 2
Fore
SplineSet
0 1545 m 257
 0 1347 l 257
 2042 1347 l 257
 2042 1545 l 257
 0 1545 l 257
245 744 m 261
 245 544 l 261
 2046 544 l 261
 2046 744 l 261
 245 744 l 261
246 741 m 261
 246 456 l 261
 447 456 l 261
 447 741 l 261
 246 741 l 261
1233.5 -58 m 261
 1235.5 -305 l 261
 1500.5 -305 l 261
 1498.5 -58 l 261
 1233.5 -58 l 261
EndSplineSet
EndChar

StartChar: uni092A_uni094D.half
Encoding: 65609 -1 576
Width: 2048
VWidth: 0
Flags: HW
LayerCount: 2
Fore
SplineSet
-15 1549 m 257
 -15 1349 l 257
 2063 1349 l 257
 2063 1549 l 257
 -15 1549 l 257
109 1551 m 257
 109 837 l 257
 310 837 l 257
 310 1551 l 257
 109 1551 l 257
109 1025 m 257
 109 825 l 257
 2089 825 l 261
 2089 1025 l 261
 109 1025 l 257
EndSplineSet
EndChar

StartChar: uni092B_uni094D.half
Encoding: 65610 -1 577
Width: 2048
VWidth: 0
Flags: HW
LayerCount: 2
Fore
SplineSet
-15 1549 m 257
 -15 1349 l 257
 2063 1349 l 257
 2063 1549 l 257
 -15 1549 l 257
1378 1539 m 257
 1378 2 l 257
 1578 2 l 257
 1578 1539 l 257
 1378 1539 l 257
109 1551 m 257
 109 837 l 257
 310 837 l 257
 310 1551 l 257
 109 1551 l 257
109 1024 m 257
 109 824 l 257
 2053 824 l 261
 2053 1024 l 261
 109 1024 l 257
EndSplineSet
EndChar

StartChar: uni092C_uni094D.half
Encoding: 65611 -1 578
Width: 2048
VWidth: 0
Flags: HW
LayerCount: 2
Fore
SplineSet
-0.5 1550 m 257
 -0.5 1351 l 257
 2048.5 1351 l 257
 2048.5 1550 l 257
 -0.5 1550 l 257
296.5 1021 m 261
 296.5 232 l 261
 496.5 232 l 261
 496.5 1021 l 261
 296.5 1021 l 261
297.5 404 m 261
 297.5 204 l 261
 2053.5 204 l 261
 2053.5 404 l 261
 297.5 404 l 261
321.5 926 m 261
 1775.5 224 l 261
 1942.5 328 l 261
 491.5 1030 l 261
 321.5 926 l 261
295.5 1037 m 261
 295.5 820 l 261
 1345.5 820 l 261
 1345.5 1037 l 261
 295.5 1037 l 261
EndSplineSet
EndChar

StartChar: uni092D_uni094D.half
Encoding: 65612 -1 579
Width: 2048
VWidth: 0
Flags: HW
LayerCount: 2
Fore
SplineSet
0 169 m 1
 0 0 l 1
 838 0 l 1
 838 169 l 1
 0 169 l 1
0 473 m 1
 0 0 l 1
 186 0 l 1
 186 473 l 1
 0 473 l 1
1582.5 1548 m 257
 1582.5 1348 l 257
 2027.5 1348 l 257
 2027.5 1548 l 257
 1582.5 1548 l 257
20.5 1532 m 257
 20.5 1079 l 257
 220.5 1079 l 257
 220.5 1532 l 257
 20.5 1532 l 257
46.5 1538 m 257
 46.5 1338 l 257
 838.5 1338 l 257
 838.5 1538 l 257
 46.5 1538 l 257
773.5 1538 m 257
 773.5 1 l 257
 972.5 1 l 257
 972.5 1538 l 257
 773.5 1538 l 257
79.5 473 m 257
 79.5 273 l 257
 2123.5 273 l 261
 2123.5 473 l 261
 79.5 473 l 257
EndSplineSet
EndChar

StartChar: uni092E_uni094D.half
Encoding: 65613 -1 580
Width: 2048
VWidth: 0
Flags: HW
LayerCount: 2
Fore
SplineSet
0 169 m 1
 0 0 l 1
 608 0 l 1
 608 169 l 1
 0 169 l 1
0 473 m 1
 0 0 l 1
 186 0 l 1
 186 473 l 1
 0 473 l 1
3 1548 m 257
 3 1348 l 257
 2045 1348 l 257
 2045 1548 l 257
 3 1548 l 257
591 1538 m 257
 591 -1 l 257
 790 -1 l 257
 790 1538 l 257
 591 1538 l 257
97 473 m 257
 97 273 l 257
 2093 273 l 261
 2093 473 l 261
 97 473 l 257
EndSplineSet
EndChar

StartChar: uni092F_uni094D.half
Encoding: 65614 -1 581
Width: 2048
VWidth: 0
Flags: HW
LayerCount: 2
Fore
SplineSet
-9 1550 m 257
 -9 1351 l 257
 2057 1351 l 257
 2057 1550 l 257
 -9 1550 l 257
334 1484 m 261
 827 847 l 261
 1037 846 l 261
 528 1536 l 261
 334 1484 l 261
827 847 m 261
 336 472 l 261
 499 405 l 261
 1037 846 l 261
 827 847 l 261
543 626 m 261
 494 412 l 261
 2052 185 l 261
 2129 358 l 261
 543 626 l 261
EndSplineSet
EndChar

StartChar: uni0930_uni094D.half
Encoding: 65615 -1 582
Width: 2048
VWidth: 0
Flags: HW
LayerCount: 2
Fore
SplineSet
-0.5 1549 m 257
 -0.5 1350 l 257
 2048.5 1350 l 257
 2048.5 1549 l 257
 -0.5 1549 l 257
2048 1099 m 257
 1447.5 802 l 257
 1447.5 603 l 257
 2048 871 l 257
 2048 1099 l 257
1447.5 802 m 257
 838 784 l 257
 838 596 l 257
 1447.5 603 l 257
 1447.5 802 l 257
250 1024 m 257
 838 596 l 257
 838 784 l 257
 295 1189 l 257
 250 1024 l 257
EndSplineSet
EndChar

StartChar: NameMe.65616
Encoding: 65616 -1 583
Width: 2048
VWidth: 0
Flags: HW
LayerCount: 2
Fore
SplineSet
-5.5 1550 m 257
 -5.5 1344 l 257
 2053.5 1344 l 257
 2053.5 1550 l 257
 -5.5 1550 l 257
1928.5 1544 m 257
 1728.5 1544 l 257
 1728.5 2 l 257
 1928.5 2 l 257
 1928.5 1544 l 257
37.5 703 m 257
 37.5 194 l 257
 240.5 194 l 257
 240.5 703 l 257
 37.5 703 l 257
37.5 782 m 257
 37.5 582 l 257
 1842.5 582 l 257
 1842.5 782 l 257
 37.5 782 l 257
892.5 689 m 257
 892.5 374 l 257
 1092.5 374 l 257
 1092.5 689 l 257
 892.5 689 l 257
EndSplineSet
EndChar

StartChar: NameMe.65617
Encoding: 65617 -1 584
Width: 2048
VWidth: 0
Flags: HW
LayerCount: 2
Fore
SplineSet
-5.5 1550 m 257
 -5.5 1344 l 257
 2053.5 1344 l 257
 2053.5 1550 l 257
 -5.5 1550 l 257
1928.5 1544 m 257
 1728.5 1544 l 257
 1728.5 194 l 257
 1928.5 194 l 257
 1928.5 1544 l 257
37.5 703 m 257
 37.5 194 l 257
 240.5 194 l 257
 240.5 703 l 257
 37.5 703 l 257
37.5 782 m 257
 37.5 582 l 257
 1842.5 582 l 257
 1842.5 782 l 257
 37.5 782 l 257
892.5 689 m 257
 892.5 374 l 257
 1092.5 374 l 257
 1092.5 689 l 257
 892.5 689 l 257
39.5 391 m 257
 39.5 191 l 257
 1928.5 191 l 257
 1928.5 391 l 257
 39.5 391 l 257
EndSplineSet
EndChar

StartChar: NameMe.65618
Encoding: 65618 -1 585
Width: 2048
VWidth: 0
Flags: HW
LayerCount: 2
Fore
SplineSet
0 1550 m 257
 0 1344 l 257
 2059 1344 l 257
 2059 1550 l 257
 0 1550 l 257
1934 1544 m 257
 1734 1544 l 257
 1734 194 l 257
 1934 194 l 257
 1934 1544 l 257
43 703 m 257
 43 194 l 257
 246 194 l 257
 246 703 l 257
 43 703 l 257
43 782 m 257
 43 582 l 257
 1848 582 l 257
 1848 782 l 257
 43 782 l 257
898 689 m 257
 898 374 l 257
 1098 374 l 257
 1098 689 l 257
 898 689 l 257
45 391 m 257
 45 191 l 257
 1934 191 l 257
 1934 391 l 257
 45 391 l 257
1040.5 -34 m 257
 1042.5 -281 l 257
 1307.5 -281 l 257
 1305.5 -34 l 257
 1040.5 -34 l 257
EndSplineSet
EndChar

StartChar: NameMe.65619
Encoding: 65619 -1 586
Width: 2048
VWidth: 0
Flags: HW
LayerCount: 2
Fore
SplineSet
-0.5 1550 m 257
 -0.5 1351 l 257
 2048.5 1351 l 257
 2048.5 1550 l 257
 -0.5 1550 l 257
1683.5 1437 m 257
 1683.5 -25 l 257
 1883.5 -25 l 257
 1883.5 1437 l 257
 1683.5 1437 l 257
76.5 1021 m 257
 76.5 232 l 257
 276.5 232 l 257
 276.5 1021 l 257
 76.5 1021 l 257
77.5 404 m 257
 77.5 204 l 257
 1833.5 204 l 257
 1833.5 404 l 257
 77.5 404 l 257
75.5 1037 m 257
 75.5 820 l 257
 613.5 820 l 257
 613.5 1037 l 257
 75.5 1037 l 257
EndSplineSet
EndChar

StartChar: NameMe.65620
Encoding: 65620 -1 587
Width: 2048
VWidth: 0
Flags: HW
LayerCount: 2
Fore
SplineSet
1309 1549 m 257
 1309 1349 l 257
 1998 1349 l 257
 1998 1549 l 257
 1309 1549 l 257
1748 1520 m 257
 1748 -4 l 257
 1949 -4 l 257
 1949 1520 l 257
 1748 1520 l 257
50 1543 m 257
 50 1224 l 257
 250 1224 l 257
 250 1543 l 257
 50 1543 l 257
50 1550 m 257
 50 1348 l 257
 993 1348 l 257
 993 1550 l 257
 50 1550 l 257
869 1549 m 257
 869 816 l 257
 1069 816 l 257
 1069 1549 l 257
 869 1549 l 257
113 1023 m 257
 113 816 l 257
 1060 816 l 257
 1060 1023 l 257
 113 1023 l 257
110 822 m 257
 942 8 l 257
 1109 68 l 257
 277 882 l 257
 110 822 l 257
EndSplineSet
EndChar

StartChar: NameMe.65621
Encoding: 65621 -1 588
Width: 2048
VWidth: 0
Flags: HW
LayerCount: 2
Fore
SplineSet
-7.5 1550 m 257
 -7.5 1350 l 257
 2055.5 1350 l 257
 2055.5 1550 l 257
 -7.5 1550 l 257
1715.5 1539 m 257
 1715.5 2 l 257
 1915.5 2 l 257
 1915.5 1539 l 257
 1715.5 1539 l 257
94.5 1551 m 257
 94.5 965 l 257
 293.5 965 l 257
 293.5 1551 l 257
 94.5 1551 l 257
94.5 1025 m 257
 94.5 824 l 257
 1881.5 824 l 257
 1881.5 1025 l 257
 94.5 1025 l 257
97.5 1361 m 257
 1449.5 960 l 257
 1915.5 981 l 257
 629.5 1352 l 257
 97.5 1361 l 257
EndSplineSet
EndChar

